<svg xmlns="http://www.w3.org/2000/svg" viewBox="0 0 118.943 118.943">
  <path fill="#E0E0E0" d="M76.117 59.695c.335-27.258-6.53-52.804-14.866-58.15 31.192.942 56.192 26.505 56.192 57.927 0 31.847-25.679 57.684-57.46 57.959 8.42-5.242 15.799-30.557 16.134-57.736z"/>
  <path fill="#0099F9" d="M59.472 118.943C26.679 118.943 0 92.264 0 59.471S26.679 0 59.472 0s59.473 26.679 59.473 59.472c-.001 32.792-26.68 59.471-59.473 59.471zM59.472 3C28.333 3 3 28.333 3 59.471s25.333 56.473 56.472 56.473 56.473-25.333 56.473-56.473C115.944 28.333 90.61 3 59.472 3z"/>
  <path fill="#0099F9" d="M22.803 90.43l-.004-.75a39.413 39.413 0 003.966-.238l.08.746a40.276 40.276 0 01-4.042.242zm-4.058-.278c-1.521-.24-2.845-.64-3.937-1.187l.336-.671c1.022.513 2.273.889 3.717 1.116l-.116.742zm12.096-.548l-.135-.738a71.955 71.955 0 003.905-.825l.175.729a72.694 72.694 0 01-3.945.834zm7.841-1.861l-.208-.721c1.25-.359 2.536-.756 3.822-1.179l.233.712c-1.294.427-2.589.826-3.847 1.188zM11.72 86.155l.331-.176-.334.171c-.548-.982-.823-2.102-.823-3.338 0-.243.01-.49.031-.742l.748.063a7.47 7.47 0 00-.029.68c0 1.106.243 2.104.723 2.961l-.647.381zm34.613-.925l-.258-.704c1.228-.45 2.473-.93 3.731-1.438l.279.696c-1.264.512-2.517.993-3.752 1.446zm7.464-2.998l-.299-.688a141.725 141.725 0 003.648-1.646l.316.68c-1.23.576-2.452 1.127-3.665 1.654zm7.29-3.399l-.333-.672c1.182-.588 2.37-1.197 3.563-1.826l.351.663c-1.2.632-2.394 1.244-3.581 1.835zm-48.43-.448l-.694-.287a24.945 24.945 0 011.885-3.605l.637.396c-.757 1.216-1.373 2.393-1.828 3.496zm55.541-3.306l-.365-.655c1.176-.655 2.334-1.32 3.473-1.991l.381.646c-1.145.673-2.307 1.34-3.489 2zm-51.434-3.444l-.594-.46a55.711 55.711 0 012.591-3.099l.559.501a54.653 54.653 0 00-2.556 3.058zm58.362-.642l-.396-.637a160.926 160.926 0 003.373-2.159l.412.627a162.454 162.454 0 01-3.389 2.169zm6.721-4.425l-.43-.615a141.529 141.529 0 003.253-2.333l.445.604a149.265 149.265 0 01-3.268 2.344zm-59.779-.884l-.529-.531a88.97 88.97 0 012.918-2.779l.506.555a86.479 86.479 0 00-2.895 2.755zm66.248-3.901l-.465-.589a123.158 123.158 0 003.103-2.526l.482.573c-.996.841-2.045 1.696-3.12 2.542zM27.97 60.292l-.484-.572c1.002-.846 2.053-1.7 3.121-2.542l.464.59a110.865 110.865 0 00-3.101 2.524zm66.498-3.704l-.506-.555a92.71 92.71 0 002.895-2.755l.529.531c-.918.915-1.9 1.85-2.918 2.779zm-60.216-1.251l-.445-.603a141.532 141.532 0 013.268-2.346l.43.614a153.303 153.303 0 00-3.253 2.335zm65.912-4.451l-.561-.501a54.71 54.71 0 002.56-3.057l.594.459a56.297 56.297 0 01-2.593 3.099zm-59.346-.127l-.41-.626a152.389 152.389 0 013.387-2.17l.395.637a163.49 163.49 0 00-3.372 2.159zm6.796-4.235l-.382-.646a172.164 172.164 0 013.487-2.002l.365.655a180.5 180.5 0 00-3.47 1.993zm57.467-2.05l-.638-.396c.758-1.216 1.373-2.392 1.832-3.495l.693.288c-.474 1.14-1.11 2.353-1.887 3.603zM54.604 42.62l-.35-.663a168.862 168.862 0 013.578-1.835l.334.671a165.127 165.127 0 00-3.562 1.827zm7.167-3.566l-.315-.681a143.06 143.06 0 013.666-1.653l.299.688a145.343 145.343 0 00-3.65 1.646zm46.245-2.154l-.748-.064c.021-.238.031-.474.031-.704 0-1.106-.243-2.104-.722-2.962l.626-.417.033.063c.535.96.813 2.079.813 3.315 0 .252-.011.508-.033.769zm-38.905-1.038l-.278-.696c1.267-.509 2.52-.991 3.755-1.444l.258.703c-1.229.451-2.474.93-3.735 1.437zm7.51-2.754l-.234-.712c1.296-.428 2.591-.828 3.848-1.189l.206.722a102.73 102.73 0 00-3.82 1.179zm7.683-2.2l-.173-.729a72.71 72.71 0 013.944-.834l.135.737a72.673 72.673 0 00-3.906.826zm19.472-.272c-1.025-.511-2.277-.883-3.721-1.108l.115-.741c1.52.238 2.844.634 3.938 1.178l-.332.671zm-11.624-1.133l-.078-.746a40.515 40.515 0 014.04-.243l.004.75c-1.23.007-2.564.088-3.966.239z"/>
  <path fill="#0099F9" d="M18.538 100.975c-.324 0-.65-.126-.895-.377-7.931-8.134 9.189-34.651 29.601-54.557 10.296-10.04 22.273-18.772 32.858-23.956 11.104-5.438 19.248-6.354 22.932-2.578a1.252 1.252 0 01-1.791 1.747c-2.783-2.854-10.273-1.706-20.04 3.078-10.356 5.072-22.098 13.639-32.21 23.501-21.278 20.746-35.365 45.064-29.559 51.019a1.249 1.249 0 01-.896 2.123z"/>
  <path fill="#0099F9" d="M96.323 91.556c-11.335 0-29.007-5.936-46.117-15.489-12.802-7.149-23.956-15.492-31.407-23.492-7.827-8.405-10.694-15.621-8.07-20.319 1.24-2.221 4.311-4.868 11.895-4.868 11.336 0 29.006 5.935 46.117 15.487C92.7 56.254 114.014 76.3 108.216 86.688c-1.242 2.22-4.311 4.868-11.893 4.868zM22.622 30.387c-3.384 0-7.737.577-9.274 3.332-1.908 3.417.879 9.544 7.646 16.812 7.244 7.778 18.138 15.917 30.675 22.917 16.688 9.319 33.801 15.108 44.654 15.108 3.382 0 7.733-.578 9.271-3.331 3.77-6.75-10.729-24.325-38.32-39.731-16.688-9.317-33.798-15.107-44.652-15.107z"/>
  <path fill="#0099F9" d="M92.571 99.803c-10.381 0-28.698-11.063-45.584-27.529C25.392 51.217 13.425 28.342 20.308 21.28c1.386-1.421 3.426-2.141 6.063-2.141 10.381 0 28.699 11.063 45.584 27.528 10.418 10.159 18.938 21.021 23.994 30.584 5.119 9.688 6.073 16.936 2.687 20.409-1.387 1.422-3.428 2.143-6.065 2.143zM26.37 19.889c-2.428 0-4.286.644-5.525 1.915-6.595 6.765 5.368 29.165 26.666 49.933 16.754 16.339 34.862 27.316 45.061 27.316 2.429 0 4.287-.646 5.526-1.915 3.143-3.223 2.145-10.159-2.813-19.535-5.021-9.497-13.491-20.292-23.854-30.398C54.677 30.867 36.568 19.889 26.37 19.889z"/>
  <path fill="#0099F9" d="M62.114 118.781c-11.816 0-20.435-31.078-20.786-59.071-.182-14.435 1.749-29.263 5.295-40.683C50.378 6.929 55.412.23 60.796.162c.813-.001 1.508.653 1.519 1.481a1.5 1.5 0 01-1.48 1.519c-3.806.047-8.152 6.467-11.347 16.754-3.457 11.131-5.337 25.622-5.159 39.755.393 31.14 10.039 56.109 17.788 56.109h.063a1.5 1.5 0 01.021 3l-.087.001z"/>
  <path fill="none" d="M117.444 59.471c0-32.018-25.957-57.972-57.973-57.972-.598 0-1.186.027-1.778.045-8.337 5.347-15.201 30.893-14.865 58.15.336 27.179 7.713 52.494 16.133 57.735.172.002.34.013.512.013 32.014.001 57.971-25.953 57.971-57.971z"/>
</svg>
