<svg id="Warstwa_1" data-name="Warstwa 1" xmlns="http://www.w3.org/2000/svg" viewBox="0 0 660.52 262.96"><defs><style>.cls-1{fill:#6e757b;}.cls-2{fill:#8a8e91;opacity:0.7;}.cls-3{fill:#0099f9;}</style></defs><path class="cls-1" d="M280.21,143H258.13l-4.26,12.76H240.31l22.34-59.14h15.7l20.92,59.14H284.56Zm-3.55-10.56-7.53-22.34-7.45,22.34Z"/><path class="cls-1" d="M345.3,115q5.93,5.63,5.94,18.75,0,10.56-5.32,16.94t-14.55,6.38a23.85,23.85,0,0,1-11.26-2.39v17.11H307.17V120.4q0-5.4,6-8.15t15.39-2.84Q339.36,109.41,345.3,115Zm-9.85,28.42q2.58-3,2.57-10.11c0-4.26-.75-7.46-2.26-9.62s-4.09-3.24-7.76-3.24q-7.89,0-7.89,3v21.1a12,12,0,0,0,3.55,1.42,16.89,16.89,0,0,0,3.81.44Q332.89,146.47,335.45,143.46Z"/><path class="cls-1" d="M397.7,115q5.94,5.63,5.94,18.75,0,10.56-5.32,16.94t-14.54,6.38a23.82,23.82,0,0,1-11.26-2.39v17.11H359.57V120.4q0-5.4,6-8.15t15.38-2.84Q391.76,109.41,397.7,115Zm-9.84,28.42q2.56-3,2.57-10.11c0-4.26-.75-7.46-2.26-9.62s-4.09-3.24-7.76-3.24q-7.89,0-7.89,3v21.1a11.74,11.74,0,0,0,3.55,1.42,16.89,16.89,0,0,0,3.81.44Q385.28,146.47,387.86,143.46Z"/><path class="cls-1" d="M419.6,156.27a57.32,57.32,0,0,1-7.09-2.44V142.22a24.73,24.73,0,0,0,15.07,5.41,7.44,7.44,0,0,0,4.39-1,3.29,3.29,0,0,0,1.38-2.8,3.19,3.19,0,0,0-2.22-3,45,45,0,0,0-7.09-2.13,16.85,16.85,0,0,1-8.47-4.26q-3.33-3.18-3.33-9.31a13.5,13.5,0,0,1,2.66-8.6,15.5,15.5,0,0,1,6.7-4.92A23.23,23.23,0,0,1,430,110a32.93,32.93,0,0,1,8.64.93,25.83,25.83,0,0,1,6.52,2.88v10.38c-3-1.66-5.35-2.84-7-3.55a14.56,14.56,0,0,0-5.77-1.06,9.29,9.29,0,0,0-4.87,1,3.24,3.24,0,0,0-1.6,2.89,3.45,3.45,0,0,0,1.77,3.23,25.58,25.58,0,0,0,5.68,2.09,50.49,50.49,0,0,1,7,2.26A11.56,11.56,0,0,1,445,134.9q2,2.7,2,7.58-.18,7.64-5.76,11.13t-14.19,3.5A29.46,29.46,0,0,1,419.6,156.27Z"/><path class="cls-1" d="M457.38,94.6H471v10.2H457.38Zm.27,16.94h13.21l.09,44.24h-13.3Z"/><path class="cls-1" d="M483.62,155.78V94h13.13v61.8Z"/><path class="cls-1" d="M512.53,151.08q-5.67-6-5.67-17.91,0-12.4,5.63-18.09t17.07-5.67q11.43,0,17.2,5.81t5.76,17.95q0,11.72-5.94,17.82t-17,6.12Q518.21,157.11,512.53,151.08Zm24.39-7.93q2.48-3.42,2.48-10,0-7.18-2.44-10.24t-7.4-3.06q-5.14,0-7.41,3.06t-2.26,10.24q0,6.84,2.35,10.11t7.32,3.28A8.54,8.54,0,0,0,536.92,143.15Z"/><path class="cls-1" d="M571.32,111.27a58.76,58.76,0,0,1,12.68-1.6q9.5,0,14.28,3.73t4.79,12.23v30.15H589.85V128.3q0-7.73-8.69-7.72a19.12,19.12,0,0,0-4,.44,12.81,12.81,0,0,0-3.19,1.07v33.69H560.77v-41A43.42,43.42,0,0,1,571.32,111.27Z"/><path class="cls-2" d="M66.91,60.37V202.84L190.3,131.6Zm38.5,71.23L71.46,190.42V72.78Zm2.63,0Zm1.31,2.27h67.92L75.4,192.69Zm0-4.55L75.4,70.51l101.87,58.82Z"/><path class="cls-3" d="M63.54,54.53a11.81,11.81,0,1,0,16.13,4.32,11.82,11.82,0,0,0-16.13-4.32"/><path class="cls-3" d="M102.13,121.37a11.81,11.81,0,1,0,16.13,4.32,11.82,11.82,0,0,0-16.13-4.32"/><path class="cls-3" d="M63.35,188a11.81,11.81,0,1,0,16.14,4.33A11.82,11.82,0,0,0,63.35,188"/><path class="cls-3" d="M179.2,121.09a11.81,11.81,0,1,0,16.14,4.33,11.82,11.82,0,0,0-16.14-4.33"/></svg>