<svg xmlns="http://www.w3.org/2000/svg" viewBox="0 0 660.521 262.957"><path fill="#FFF" d="M280.21 143.016h-22.079l-4.257 12.77h-13.566l22.345-59.144h15.695l20.926 59.144h-14.719l-4.345-12.77zm-3.546-10.553l-7.537-22.346-7.449 22.346h14.986zM345.295 115.039c3.959 3.754 5.94 10.006 5.94 18.755 0 7.036-1.772 12.679-5.319 16.937-3.547 4.256-8.396 6.383-14.542 6.383-4.493 0-8.247-.795-11.261-2.393v17.113h-12.947v-51.43c0-3.606 1.995-6.325 5.985-8.158 3.99-1.832 9.118-2.779 15.385-2.838 7.212 0 12.797 1.878 16.759 5.631m-9.842 28.42c1.713-2.009 2.569-5.379 2.569-10.107 0-4.257-.754-7.462-2.26-9.623-1.509-2.157-4.096-3.237-7.76-3.237-5.262 0-7.891 1.007-7.891 3.016v21.104a11.716 11.716 0 003.546 1.418 17.02 17.02 0 003.813.443c3.608 0 6.267-1.002 7.983-3.014M397.701 115.039c3.961 3.754 5.94 10.006 5.94 18.755 0 7.036-1.772 12.679-5.319 16.937-3.548 4.256-8.396 6.383-14.544 6.383-4.491 0-8.244-.795-11.262-2.393v17.113h-12.944v-51.43c0-3.606 1.993-6.325 5.983-8.158 3.99-1.832 9.118-2.779 15.385-2.838 7.213 0 12.801 1.878 16.761 5.631m-9.843 28.42c1.715-2.009 2.572-5.379 2.572-10.107 0-4.257-.755-7.462-2.262-9.623-1.508-2.157-4.094-3.237-7.76-3.237-5.262 0-7.893 1.007-7.893 3.016v21.104a11.722 11.722 0 003.547 1.418c1.302.298 2.572.443 3.813.443 3.608 0 6.269-1.002 7.983-3.014M419.603 156.271c-2.127-.561-4.492-1.375-7.094-2.438v-11.617c4.789 3.605 9.813 5.409 15.074 5.409 2.01 0 3.474-.34 4.39-1.021.916-.678 1.375-1.61 1.375-2.793 0-1.359-.739-2.363-2.217-3.016-1.479-.65-3.844-1.359-7.094-2.129-3.431-.708-6.251-2.128-8.468-4.255-2.219-2.129-3.324-5.232-3.324-9.312 0-3.486.885-6.354 2.656-8.601 1.774-2.246 4.008-3.888 6.694-4.921a23.151 23.151 0 018.383-1.553c3.546 0 6.429.311 8.645.931 2.217.622 4.39 1.583 6.518 2.881v10.376c-3.014-1.655-5.352-2.837-7.005-3.548-1.657-.708-3.577-1.062-5.765-1.062s-3.813.339-4.875 1.019c-1.066.68-1.597 1.641-1.597 2.883 0 1.477.59 2.557 1.771 3.235 1.184.681 3.074 1.374 5.677 2.085 2.955.769 5.289 1.521 7.004 2.26 1.716.74 3.251 2.01 4.612 3.813 1.36 1.806 2.037 4.332 2.037 7.58-.117 5.086-2.037 8.797-5.761 11.131-3.726 2.334-8.454 3.502-14.189 3.502-2.837.003-5.32-.276-7.447-.839M457.379 94.6h13.655v10.197h-13.655V94.6zm.267 16.937h13.209l.091 44.247h-13.3v-44.247zM483.624 93.98h13.123v61.805h-13.123zM512.532 151.086c-3.785-4.021-5.677-9.988-5.677-17.912 0-8.277 1.877-14.306 5.632-18.091 3.755-3.782 9.442-5.674 17.068-5.674s13.359 1.936 17.203 5.807c3.843 3.873 5.763 9.86 5.763 17.958 0 7.803-1.98 13.743-5.94 17.821-3.96 4.08-9.635 6.118-17.024 6.118-7.569 0-13.243-2.008-17.025-6.027m24.384-7.938c1.655-2.275 2.483-5.601 2.483-9.976 0-4.789-.813-8.203-2.438-10.242-1.627-2.039-4.094-3.06-7.405-3.06-3.43 0-5.896 1.021-7.403 3.06-1.51 2.039-2.262 5.453-2.262 10.242 0 4.554.782 7.923 2.351 10.106 1.563 2.188 4.005 3.281 7.314 3.281 3.251.004 5.704-1.135 7.36-3.411M571.32 111.271c4.729-1.064 8.955-1.596 12.68-1.596 6.325 0 11.086 1.242 14.276 3.725s4.789 6.561 4.789 12.235v30.149h-13.212v-27.487c0-5.145-2.898-7.715-8.69-7.715-1.3 0-2.631.148-3.99.443-1.359.296-2.425.652-3.191 1.065v33.694H560.77v-41.056c2.304-1.241 5.82-2.394 10.55-3.457"/><path fill="#FFF" d="M66.912 60.367V202.84l123.387-71.237L66.912 60.367zm38.503 71.23l-33.957 58.82V72.782l33.957 58.815zm2.623 0zm1.313 2.27l67.923.008-101.878 58.816 33.955-58.824zm-.002-4.546L75.397 70.515l101.87 58.813-67.918-.007z" opacity=".7"/><path fill="#FFF" d="M63.536 54.527c-5.637 3.256-7.571 10.493-4.314 16.133 3.256 5.638 10.49 7.582 16.127 4.325 5.641-3.256 7.58-10.493 4.326-16.133-3.26-5.64-10.499-7.584-16.139-4.325M102.127 121.366c-5.638 3.251-7.571 10.491-4.314 16.131 3.253 5.638 10.487 7.579 16.125 4.328 5.64-3.257 7.581-10.499 4.325-16.136-3.257-5.643-10.496-7.579-16.136-4.323M63.354 187.975c-5.64 3.256-7.573 10.496-4.314 16.139 3.256 5.634 10.487 7.576 16.125 4.32 5.643-3.254 7.582-10.494 4.325-16.131-3.257-5.645-10.496-7.586-16.136-4.328M179.2 121.093c-5.637 3.253-7.571 10.493-4.314 16.133 3.256 5.641 10.49 7.582 16.125 4.324 5.643-3.256 7.582-10.493 4.325-16.133s-10.496-7.583-16.136-4.324"/><path fill="none" d="M0 0h660.521v262.957H0z"/><path fill="none" d="M0 0h660.521v262.957H0z"/></svg>