<svg xmlns="http://www.w3.org/2000/svg" viewBox="0 0 97.322 142.635">
  <path fill="#E0E0E0" d="M95.822 66.601L54.229 42.698v74.422l41.593 24.015z"/>
  <path fill="#0099F9" d="M95.822 142.635c-.258 0-.518-.067-.75-.201L.75 87.975A1.5 1.5 0 010 86.676V1.5A1.5 1.5 0 012.246.2l94.323 54.205c.466.269.753.765.753 1.302v85.429a1.5 1.5 0 01-1.5 1.499zM3 85.81l91.322 52.728V56.573L3 4.092V85.81z"/>
  <g fill="#0099F9">
    <path d="M1.5 1.5v11.134l94.322 54.458v74.043-85.429z"/>
    <path d="M95.822 142.135a1 1 0 01-1-1V67.669L1 13.5a1 1 0 01-.5-.866V1.5A1 1 0 011.998.633L96.32 54.838a1 1 0 01.502.867v85.429a1 1 0 01-1 1.001zM2.5 12.057L94.822 65.36v-9.075L2.5 3.228v8.829z"/>
  </g>
  <path fill="#0099F9" d="M48.954 83.99L7.242 59.502V36.701l.906 1.548.785-5.92 1.45 5.819.625-1.601.793 2.437.74-.82.603 3.021.653-1.315.504 2.292 1.259-6.828.324 9.925.26-2.242.705 1.768.673-4.655.621 1.588.518-5.253.747.01.49 6.956.364-1.617.762 1.737.934-2.433.533 6.438.38-2.662.894 1.925.737-6.104.691 3.644 1.163-4.719.183 2.943.47-1.736.356 7.215 1.401-4.309.183 9.479.275-2.372.747.037.123 6.623 1.144-4.999.188 7.297 1.149-4.374.188 5.834.6-2.05.437 3.81.978-8.772.747.009.373 4.261.176-1.313.747.047.028 3.922 1.707-6.537.195 6.484.499-3.456.492 5.08.404-7.579.745-.033.228 1.594.609-6.368 1.254 6.129.164-3.205.646 2.741.815-5.508.53 4.894c.427-2.286.488-2.29.775-2.308.204.004.305 0 .5.508l.603-4.479.702 4.213 1.235-5.322.002 35.95zM7.993 59.073l40.211 23.608V54.59l-.604 2.607-.504-3.014-.394 2.927-.499-1.673c-.058-.193-.12-.398-.182-.597-.189.962-.438 2.299-.612 3.259l-.463 2.552-.455-4.217-.533 3.589-.333-1.418-.195 3.828-1.434-6.998-.73 7.656-.575-4.035-.466 8.737-.746.016-.375-3.862-.227 1.562-.747-.042-.168-5.577-1.823 6.986-.031-4.267-.365 2.734-.637-7.25-1.293 11.624L33.041 63l-.877 2.995-.172-5.376-1.178 4.484-.172-6.617-1.186 5.175-.133-7.167-.272 2.345-.746-.036-.201-10.583-1.287 3.951-.323-6.549-.421 1.555-.162-2.592-.81 3.296-.434-2.278-.475 3.921-.938-2.02-.964 6.748-.812-9.798-.409 1.069-.578-1.317-.983 4.366-.536-7.614-.387 3.942-.727-1.854-.667 4.619-.644-1.61-.5 4.329-.747-.031-.263-8.046-.672 3.645-.844-3.843-.687 1.377-.737-3.71-.607.675-.547-1.678-.719 1.842-1.068-4.282-.555 4.183-.61-1.045.002 19.602zM88.648 106.41a.49.49 0 01-.252-.069l-4.454-2.614a.5.5 0 01-.247-.431V73.115a.5.5 0 01.752-.431l4.454 2.614a.5.5 0 01.247.431v30.182a.502.502 0 01-.5.499zm-3.953-3.4l3.453 2.027V76.016l-3.453-2.027v29.021zM65.543 92.861a.495.495 0 01-.253-.068l-4.752-2.79a.5.5 0 01-.247-.432v-7.504c0-.179.097-.345.252-.434a.497.497 0 01.5.003l4.752 2.789a.5.5 0 01.248.431v7.505a.5.5 0 01-.5.5zm-4.252-3.576l3.752 2.202v-6.345l-3.752-2.202v6.345zM73.244 97.332a.496.496 0 01-.253-.069l-4.453-2.615a.5.5 0 01-.247-.431V77.772c0-.179.097-.345.252-.434a.497.497 0 01.5.003l4.454 2.615a.5.5 0 01.247.431v16.444a.5.5 0 01-.5.501zm-3.953-3.401l3.453 2.028V80.674l-3.453-2.028v15.285zM80.945 101.934a.49.49 0 01-.253-.069l-4.453-2.612a.5.5 0 01-.247-.432V73.959a.5.5 0 01.753-.432l4.452 2.614a.5.5 0 01.248.431v24.86a.503.503 0 01-.5.502zm-3.953-3.4l3.453 2.025v-23.7l-3.453-2.026v23.701z"/>
  <path fill="none" d="M9.245 68.895l35.908 20.454"/>
  <path fill="#0099F9" d="M45.152 90.349a.994.994 0 01-.494-.131L8.75 69.764a1.002 1.002 0 01-.374-1.364 1.002 1.002 0 011.364-.374L45.648 88.48a1 1 0 01-.496 1.869z"/>
  <path fill="none" d="M9.245 74.394l35.807 20.394"/>
  <path fill="#0099F9" d="M45.051 95.788a.978.978 0 01-.493-.132L8.75 75.263a1 1 0 01.99-1.738L45.547 93.92c.479.272.646.884.374 1.364a1.002 1.002 0 01-.87.504z"/>
  <path fill="none" d="M9.245 79.892l23.496 13.445"/>
  <path fill="#0099F9" d="M32.74 94.337a.994.994 0 01-.496-.132L8.748 80.76a1 1 0 01.994-1.737l23.496 13.445a1 1 0 01-.498 1.869z"/>
  <g>
    <path fill="none" d="M59.893 96.9l9.951 5.77"/>
    <path fill="#0099F9" d="M69.843 103.67a.993.993 0 01-.501-.135l-9.95-5.771a.997.997 0 01-.363-1.367.998.998 0 011.367-.363l9.951 5.77a1.002 1.002 0 01-.504 1.866z"/>
  </g>
  <g>
    <path fill="none" d="M59.893 102.398l9.847 5.712"/>
    <path fill="#0099F9" d="M69.739 109.11a.993.993 0 01-.501-.135l-9.848-5.712a.997.997 0 01-.363-1.367.997.997 0 011.367-.362l9.848 5.712a.997.997 0 01.363 1.366.998.998 0 01-.866.498z"/>
  </g>
  <g fill="#0099F9">
    <path d="M86.996 125.425c-.016 0-.029 0-.043-.002a.496.496 0 01-.362-.206l-6.146-8.524a.496.496 0 01-.094-.292v-8.94c0-.173.089-.333.235-.425s.331-.102.484-.023c2.271 1.119 4.368 3.188 5.904 5.823 2.757 4.732 2.912 9.969.366 12.449a.488.488 0 01-.344.14zm-5.644-9.186l5.685 7.888c1.756-2.305 1.405-6.79-.923-10.789-1.253-2.148-2.957-3.942-4.762-5.034v7.935z"/>
    <path d="M83.93 126.644h-.002c-3.181 0-6.88-2.683-9.203-6.677-3.078-5.289-2.835-11.192.543-13.159 1.59-.924 3.67-.85 5.805.202.17.084.279.258.279.449v8.779l6.05 8.395a.498.498 0 01-.058.651 4.639 4.639 0 01-.906.708c-.745.433-1.588.652-2.508.652zm-6.171-19.483c-.735 0-1.402.172-1.986.512-2.902 1.689-2.984 6.979-.185 11.792 2.152 3.696 5.505 6.18 8.341 6.18h.002c.74 0 1.414-.174 2.004-.517.131-.076.26-.166.395-.275l-5.883-8.16a.496.496 0 01-.094-.292v-8.625c-.908-.408-1.778-.615-2.594-.615z"/>
  </g>
  <g>
    <path fill="#0099F9" d="M78.501 88.791a.518.518 0 01-.207-.045l-7.54-3.428-7.183 2.736a.5.5 0 01-.358-.935l7.378-2.812a.5.5 0 01.387.012l7.406 3.368 7.402-7.649a.501.501 0 01.706-.013c.199.192.203.51.013.707l-7.646 7.903a.484.484 0 01-.358.156z"/>
  </g>
</svg>
