<svg xmlns="http://www.w3.org/2000/svg" viewBox="0 0 286.162 191.221">
  <path fill="#E0E0E0" d="M286.162 132.312L101.895 26.076 0 84.982 184.269 191.22z"/>
  <path fill="#0099F9" d="M106.333 131.955a1 1 0 01-.5-.134L25.994 85.726a1 1 0 01-.5-.866V56.221c0-.357.189-.688.5-.866.308-.178.69-.178 1 0l79.839 46.098a1 1 0 01.5.866v28.637a.998.998 0 01-1 .999zM27.494 84.282l77.839 44.94v-26.327L27.494 57.953v26.329zM198.597 77.736a.994.994 0 01-.5-.134l-79.843-46.097a.997.997 0 01-.5-.865V2.004a.998.998 0 011.5-.865l79.843 46.096c.309.179.5.509.5.866v28.637a1 1 0 01-1 .998zm-78.843-47.673l77.843 44.939V48.677l-77.843-44.94v26.326z"/>
  <path fill="#FFF" d="M118.754 30.641V2.004l-92.26 54.217v28.638z"/>
  <path fill="#0099F9" d="M26.494 85.859a1.004 1.004 0 01-1-1V56.221c0-.354.186-.684.492-.862l92.26-54.217a1.003 1.003 0 011.508.861v28.638a.998.998 0 01-.493.861L27 85.722a1.007 1.007 0 01-.506.137zm1-29.066v26.318l90.26-53.043V3.751l-90.26 53.042z"/>
  <path fill="#FFF" d="M26.494 56.247s28.829-11.882 79.839 46.097L26.494 56.247z"/>
  <path fill="#0099F9" d="M106.332 103.344a1 1 0 01-.499-.135L25.994 57.113a.996.996 0 01-.498-.933.996.996 0 01.615-.858c.107-.044 2.677-1.079 7.528-1.079 11.83 0 37.08 6.151 73.339 47.319a.998.998 0 01-.626 1.779c.001.003-.013.003-.02.003zM29.119 56.608l72.26 41.72C67.854 61.845 44.688 56.243 33.64 56.243c-1.898 0-3.411.17-4.521.365z"/>
  <path fill="#FFF" d="M106.333 102.344c-51.01-57.979-79.839-46.097-79.839-46.097l92.262-54.243s28.83-11.882 79.841 46.097l-92.264 54.243z"/>
  <path fill="#0099F9" d="M106.333 103.344a.995.995 0 01-.751-.341c-35.795-40.686-60.439-46.76-71.942-46.76-4.414 0-6.746.921-6.769.93a1 1 0 01-.884-1.787L118.25 1.142c.04-.023.081-.044.126-.063.105-.044 2.675-1.079 7.526-1.079 11.842 0 37.129 6.163 73.443 47.439a.997.997 0 01-.242 1.521l-92.264 54.243a.975.975 0 01-.506.141zM33.64 54.243c11.782 0 36.874 6.099 72.897 46.819l90.506-53.21C161.683 7.986 137.319 2 125.902 2c-4.033 0-6.33.771-6.712.908L31.787 54.295a32.3 32.3 0 011.853-.052z"/>
  <path fill="#0099F9" d="M129.869 89.064a.247.247 0 01-.188-.085C103.401 59.11 83.16 48.188 70.807 44.283 57.446 40.06 50.195 42.92 50.121 42.95a.252.252 0 01-.326-.137.252.252 0 01.135-.326c.299-.122 7.447-2.956 20.964 1.299 12.425 3.911 32.774 14.87 59.163 44.863a.25.25 0 01-.021.353.257.257 0 01-.167.062zM154.802 74.438a.247.247 0 01-.188-.085c-26.313-29.906-46.573-40.824-58.938-44.718-13.347-4.201-20.552-1.345-20.621-1.313a.253.253 0 01-.327-.136.251.251 0 01.135-.327c.299-.123 7.447-2.956 20.963 1.3 12.425 3.912 32.774 14.871 59.163 44.864a.25.25 0 01-.022.353.259.259 0 01-.165.062zM179.465 59.744a.247.247 0 01-.188-.085c-26.278-29.869-46.521-40.793-58.873-44.697-13.36-4.223-20.611-1.362-20.686-1.334a.25.25 0 01-.326-.137.252.252 0 01.135-.326c.299-.123 7.447-2.955 20.964 1.3 12.424 3.912 32.773 14.871 59.16 44.864a.25.25 0 01-.186.415z"/>
  <path fill="#0099F9" d="M131.227 87.705a.243.243 0 01-.187-.085c-26.28-29.869-46.521-40.792-58.875-44.696-13.361-4.222-20.613-1.362-20.687-1.333a.25.25 0 01-.325-.137.251.251 0 01.136-.326c.299-.122 7.448-2.957 20.963 1.3 12.425 3.91 32.774 14.869 59.163 44.862a.251.251 0 01-.022.354.253.253 0 01-.166.061zM156.16 73.078a.246.246 0 01-.188-.085c-26.313-29.906-46.574-40.824-58.938-44.718-13.347-4.2-20.55-1.344-20.621-1.313a.251.251 0 01-.327-.136.252.252 0 01.136-.327c.299-.123 7.448-2.955 20.962 1.3 12.425 3.912 32.774 14.871 59.163 44.864a.252.252 0 01-.021.354.258.258 0 01-.166.061zM180.823 58.385a.245.245 0 01-.188-.086c-26.278-29.868-46.521-40.793-58.874-44.696-13.358-4.224-20.61-1.364-20.684-1.334a.25.25 0 01-.191-.463c.298-.123 7.446-2.955 20.963 1.3 12.424 3.912 32.773 14.871 59.16 44.864a.248.248 0 01-.186.415z"/>
  <g fill="#0099F9">
    <path d="M50.996 70.37l-24.502 14.4v.089l79.839 46.096v-28.637z"/>
    <path d="M106.333 131.955a1 1 0 01-.5-.134L25.994 85.726a1 1 0 01-.5-.866c0-.354.186-.772.492-.952l24.503-14.399a1.002 1.002 0 011.007-.004l55.337 31.948a1 1 0 01.5.866v28.637a.998.998 0 01-1 .999zM28.402 84.808l76.931 44.415v-26.327L51.001 71.527 28.402 84.808z"/>
  </g>
  <path fill="#FFF" d="M106.333 102.318l-11.427 10.258-79.843-46.097 11.431-10.258z"/>
  <path fill="#0099F9" d="M94.906 113.576a.998.998 0 01-.5-.134L14.563 67.345a1.003 1.003 0 01-.168-1.612l11.431-10.258a1.002 1.002 0 011.169-.122l79.839 46.098c.277.16.46.443.495.763.033.318-.089.635-.327.849L95.574 113.32a1 1 0 01-.668.256zM16.758 66.302l78.021 45.046 9.861-8.854-78.019-45.045-9.863 8.853z"/>
  <g>
    <path fill="#FFF" d="M198.597 76.736V48.1l-92.264 54.218v28.637z"/>
    <path fill="#0099F9" d="M106.333 131.955a1.002 1.002 0 01-1-1v-28.637a1 1 0 01.493-.862l92.263-54.219a1 1 0 011.508.862v28.637a1 1 0 01-.494.862l-92.263 54.219a1 1 0 01-.507.138zm1-29.064v26.316l90.264-53.044V49.847l-90.264 53.044z"/>
  </g>
  <g>
    <path fill="#FFF" d="M231.268 127.17h.009l.027-.021a.483.483 0 01.32-.041.93.93 0 01.307.115c.5.291.911.996.911 1.575a.998.998 0 01-.05.314.524.524 0 01-.272.301c-.157.064-.364.041-.592-.09-.506-.293-.913-.996-.913-1.578.003-.28.097-.48.253-.575z"/>
    <path fill="#0099F9" d="M231.68 129.758c-.664-.383-1.163-1.247-1.163-2.012 0-.445.178-.812.487-1.002.021-.015.047-.025.07-.035l-.002-.004c.202-.105.489-.121.63-.09.161.026.32.084.479.176.661.386 1.16 1.25 1.16 2.01 0 .167-.023.328-.081.49a.972.972 0 01-.317.447.934.934 0 01-.23.141.97.97 0 01-.373.07c-.218 0-.44-.064-.66-.191zm-.14-2.165a.424.424 0 00-.022.153c0 .405.311.942.661 1.146.071.039.12.054.143.058a.49.49 0 00.021-.148c0-.396-.315-.943-.663-1.145-.063-.039-.111-.052-.119-.076l-.021.012z"/>
    <path fill="#FFF" d="M229.85 127.074c0 1.326.931 2.937 2.078 3.6.516.3.988.355 1.351.203a.878.878 0 00.22-.125c.174-.125.31-.319.396-.559a2.254 2.254 0 00.114-.719c0-1.324-.931-2.938-2.076-3.6a2.055 2.055 0 00-.672-.258c-.007-.004-.011-.004-.021-.004a1.132 1.132 0 00-.735.094l-.067.039-.012.008c-.358.223-.574.68-.576 1.321z"/>
    <path fill="#0099F9" d="M231.68 131.107c-1.307-.756-2.328-2.525-2.328-4.031 0-.795.285-1.414.769-1.719.024-.021.122-.076.15-.092a1.56 1.56 0 01.728-.173c.104 0 .214.009.239.021.034 0 .071.004.11.014.271.047.544.15.832.316 1.306.752 2.326 2.521 2.326 4.031 0 .238-.024.459-.072.645-.019.082-.04.158-.067.244a1.652 1.652 0 01-.562.783c-.1.076-.207.139-.334.191a1.598 1.598 0 01-.613.119c-.379.001-.775-.118-1.178-.349zm-.531-5.002a.642.642 0 00-.46.068c-.216.137-.338.465-.338.898 0 1.143.837 2.592 1.828 3.166.35.202.684.266.907.176a.575.575 0 00.117-.068.672.672 0 00.216-.313 1.755 1.755 0 00.086-.558c0-1.146-.837-2.596-1.825-3.166a1.593 1.593 0 00-.512-.199c-.003-.002-.019-.004-.019-.004z"/>
    <path fill="#FFF" d="M228.676 126.492c-.022 1.074.471 2.213.982 3.137.53.947 1.321 1.834 2.271 2.384 1.025.596 2.388.627 3.003-.574.545-1.06.137-2.56-.276-3.588-.53-1.321-1.473-2.591-2.727-3.313-.725-.416-1.805-.644-2.493-.063a1.852 1.852 0 00-.52.729c-.167.405-.231.87-.24 1.288zm1.179.58c0-.639.216-1.096.568-1.32l.011-.008.068-.037a1.132 1.132 0 01.756-.092c.212.037.435.121.672.258 1.146.662 2.076 2.277 2.076 3.601 0 .194-.021.375-.06.534-.017.064-.032.123-.055.185-.086.24-.222.433-.396.56a.924.924 0 01-.22.125c-.362.149-.835.095-1.351-.203-1.143-.667-2.072-2.277-2.069-3.603z"/>
    <path fill="#0099F9" d="M231.682 132.445c-.973-.561-1.844-1.473-2.46-2.572-.724-1.307-1.066-2.416-1.046-3.393.013-.557.106-1.052.281-1.471.157-.383.382-.693.657-.922.737-.62 2.018-.588 3.065.014 1.25.721 2.321 2.02 2.939 3.563.463 1.152.884 2.783.26 4.002-.414.806-1.144 1.248-2.053 1.25a3.361 3.361 0 01-1.643-.471zm2.825-2.971c0 .236-.024.457-.072.645a3.19 3.19 0 01-.066.244 1.665 1.665 0 01-.563.783c-.1.076-.207.137-.334.189-.519.218-1.155.137-1.791-.23a4.127 4.127 0 01-.873-.691c.409.479.877.881 1.373 1.166.372.217.779.336 1.146.336.53 0 .922-.237 1.161-.707.3-.582.271-1.479-.075-2.563.061.278.094.559.094.828zm-3.358-3.369a.642.642 0 00-.46.068c-.216.137-.338.465-.338.898 0 1.143.837 2.592 1.828 3.166.35.202.684.266.907.176a.575.575 0 00.117-.068.672.672 0 00.216-.313 1.755 1.755 0 00.086-.558c0-1.146-.837-2.596-1.825-3.166a1.593 1.593 0 00-.512-.199c-.003-.002-.019-.004-.019-.004zm.087-.992c.034 0 .071.004.11.012.271.049.544.152.832.316.311.18.604.416.873.693a5.312 5.312 0 00-1.373-1.166c-.687-.395-1.503-.469-1.926-.111-.153.127-.28.307-.375.535-.124.299-.195.684-.205 1.109-.01.486.1 1.029.33 1.639a4.041 4.041 0 01-.152-1.066c0-.797.285-1.414.769-1.719.023-.021.122-.076.15-.092.221-.115.466-.174.728-.174.105.001.214.01.239.024z"/>
    <g fill="#0099F9">
      <path d="M237.068 128.107v-.015c-.307-1.705-1.42-3.519-2.798-4.487l-.928-.5c-.574-.213-1.091-.223-1.516-.052h-.002c-.136.056-.263.13-.375.22l-1.396.803.211.033c.188-.02.384-.012.589.023.337.055.698.188 1.075.404 1.639.942 2.984 3.127 3.201 5.071.021.185.033.358.033.533 0 .103-.004.194-.013.289 0 0-.102.653-.165.825-.136.377-.347.675-.613.875l1.623-.938.164-.09.083-.054c.459-.282.771-.815.874-1.547.013-.108.022-.227.024-.344.006-.059.006-.117.006-.18a4.886 4.886 0 00-.082-.873h.004v.004z"/>
      <path d="M233.955 132.41a.5.5 0 01.116-.676c.192-.145.343-.361.445-.646.03-.086.097-.444.137-.694.008-.08.011-.16.011-.246 0-.155-.011-.312-.031-.479-.201-1.821-1.471-3.84-2.953-4.693a2.743 2.743 0 00-.91-.346 1.74 1.74 0 00-.451-.021.406.406 0 01-.13-.002l-.212-.032a.495.495 0 01-.411-.404.497.497 0 01.239-.523l1.335-.764c.149-.117.317-.215.501-.289.549-.219 1.146-.229 1.939.074l.976.531c1.466 1.028 2.673 2.961 3.001 4.814.039.188.059.378.078.572.01.134.015.267.015.396 0 .071 0 .143-.005.188a4.419 4.419 0 01-.03.402c-.122.862-.515 1.539-1.099 1.896-.011.007-.104.064-.114.072l-1.776 1.021a.498.498 0 01-.25.066.497.497 0 01-.421-.217zm-1.938-8.895a1.35 1.35 0 00-.316.189l-.163.094c.212.078.429.18.646.305 1.76 1.014 3.21 3.307 3.446 5.445.024.205.038.4.038.594 0 .115-.005.223-.019.365-.013.08-.033.207-.058.344l.299-.168.094-.061c.339-.209.562-.621.641-1.185.011-.09.021-.19.022-.313l.004-.146a3.93 3.93 0 00-.013-.313 5.377 5.377 0 00-.063-.486c-.287-1.605-1.329-3.279-2.543-4.135l-.863-.473a1.991 1.991 0 00-.697-.14c-.167.002-.324.03-.455.084z"/>
    </g>
    <path fill="#FFF" d="M242.873 133.832l.026-.019a.478.478 0 01.321-.043.866.866 0 01.304.115c.506.29.912.995.912 1.577a.955.955 0 01-.048.314.498.498 0 01-.174.243c-.029.026-.065.043-.096.058-.157.067-.367.043-.597-.09-.501-.291-.912-.996-.912-1.576 0-.285.1-.482.254-.58h.01z"/>
    <path fill="#0099F9" d="M243.273 136.422c-.662-.385-1.161-1.248-1.161-2.01 0-.441.178-.81.487-1.002.021-.015.042-.024.064-.035.196-.105.472-.129.631-.096.163.023.326.084.479.176.663.381 1.163 1.246 1.163 2.012 0 .176-.024.337-.077.482-.073.2-.196.366-.305.438a.875.875 0 01-.237.15.968.968 0 01-.384.076 1.31 1.31 0 01-.66-.191zm-.161-2.012c0 .398.315.943.664 1.146a.39.39 0 00.157.06l-.017-.002a.437.437 0 00.02-.146c0-.406-.31-.941-.669-1.148-.058-.035-.096-.045-.133-.057a.377.377 0 00-.022.147z"/>
    <path fill="#FFF" d="M241.448 133.736c0 1.326.93 2.938 2.074 3.602.52.298.991.354 1.354.203a.917.917 0 00.219-.127c.174-.125.31-.315.396-.559.021-.061.038-.119.054-.182.038-.162.061-.34.061-.535 0-1.326-.931-2.939-2.081-3.598a1.883 1.883 0 00-.67-.262c-.008-.002-.01-.002-.021-.002a1.123 1.123 0 00-.732.092l-.069.039-.012.008c-.354.223-.572.682-.573 1.321z"/>
    <path fill="#0099F9" d="M243.272 137.771c-1.303-.754-2.323-2.525-2.323-4.033 0-.795.284-1.414.804-1.744a1.579 1.579 0 011.08-.215c.028 0 .08.004.107.01.278.049.563.158.831.32 1.31.746 2.333 2.518 2.333 4.031a2.75 2.75 0 01-.14.881c-.12.336-.316.61-.563.787a1.408 1.408 0 01-.33.19c-.188.08-.396.119-.614.119-.376.004-.774-.115-1.185-.346zm-.985-4.933c-.215.135-.338.463-.338.898 0 1.145.837 2.596 1.822 3.166.25.143.486.219.685.219a.623.623 0 00.229-.043.619.619 0 00.119-.07.66.66 0 00.215-.313c.017-.046.027-.091.039-.138.03-.131.047-.272.047-.421 0-1.146-.838-2.598-1.838-3.169a1.415 1.415 0 00-.673-.216.652.652 0 00-.307.087z"/>
    <path fill="#FFF" d="M240.271 133.154c-.021 1.074.47 2.215.982 3.137.528.947 1.322 1.834 2.27 2.383 1.029.599 2.392.632 3.008-.573.541-1.058.134-2.556-.276-3.586-.53-1.324-1.473-2.589-2.729-3.313-.722-.416-1.801-.644-2.492-.065-.231.194-.398.45-.517.731-.17.403-.236.868-.246 1.286zm1.181.58c0-.637.216-1.096.567-1.318l.012-.01.069-.037c.209-.107.457-.145.732-.094a1.968 1.968 0 01.691.266c1.15.658 2.081 2.271 2.081 3.599a2.277 2.277 0 01-.114.717 1.162 1.162 0 01-.396.558.898.898 0 01-.219.127c-.363.151-.835.095-1.354-.203-1.141-.667-2.072-2.279-2.069-3.605z"/>
    <path fill="#0099F9" d="M243.273 139.107c-.974-.563-1.846-1.477-2.454-2.572-.724-1.301-1.066-2.41-1.047-3.391.013-.559.108-1.055.281-1.471.159-.379.378-.689.657-.924.74-.617 2.023-.586 3.063.018 1.256.723 2.328 2.021 2.944 3.563.461 1.154.878 2.787.259 3.998-.414.808-1.144 1.252-2.052 1.252-.538 0-1.124-.17-1.651-.473zm2.832-2.967a2.75 2.75 0 01-.14.881c-.12.336-.316.61-.563.787a1.444 1.444 0 01-.33.19c-.517.217-1.15.14-1.798-.231a3.925 3.925 0 01-.854-.677c.403.472.866.865 1.356 1.148.374.217.782.338 1.15.338.529 0 .92-.238 1.16-.709.295-.574.269-1.463-.07-2.539.057.275.089.547.089.812zm-3.818-3.302c-.215.135-.338.463-.338.898 0 1.145.837 2.596 1.822 3.166.358.204.696.266.912.176a.595.595 0 00.12-.07.652.652 0 00.214-.313c.018-.046.028-.091.04-.138.03-.131.047-.272.047-.421 0-1.146-.838-2.598-1.838-3.169a1.415 1.415 0 00-.673-.216.651.651 0 00-.306.087zm.546-1.061c.028 0 .08.004.107.01.278.049.563.158.831.32.313.176.608.414.878.691a5.379 5.379 0 00-1.376-1.168c-.678-.389-1.511-.457-1.92-.115-.151.129-.28.313-.378.543-.124.297-.194.68-.204 1.105-.011.479.101 1.021.327 1.625a4.022 4.022 0 01-.149-1.056c0-.795.284-1.413.804-1.743a1.566 1.566 0 01.84-.236c.105.001.217.01.24.024z"/>
    <path fill="#FFF" d="M248.669 134.773v-.018c-.31-1.705-1.424-3.518-2.799-4.486l-.928-.498c-.573-.215-1.092-.223-1.518-.055h-.005a1.617 1.617 0 00-.372.221l-1.396.805.213.031c.187-.018.382-.011.588.023.337.057.698.188 1.07.404 1.64.944 2.989 3.129 3.205 5.076a4.527 4.527 0 01.02.819s-.101.651-.164.823c-.136.377-.347.677-.614.873l1.621-.936.165-.092.084-.053c.455-.283.771-.814.873-1.551.012-.107.024-.222.027-.342.004-.061.004-.119.004-.181 0-.115-.004-.235-.015-.36a5.902 5.902 0 00-.065-.509h.004v.006z"/>
    <path fill="#0099F9" d="M245.554 139.07a.499.499 0 01.12-.676c.187-.139.339-.361.442-.646.03-.084.097-.443.135-.686.006-.084.01-.166.01-.256 0-.156-.009-.311-.027-.477-.202-1.82-1.475-3.84-2.962-4.697a2.648 2.648 0 00-.899-.344 1.697 1.697 0 00-.463-.021.563.563 0 01-.116-.004l-.211-.031a.499.499 0 01-.179-.926l1.331-.76a2.101 2.101 0 01.544-.311c.545-.201 1.13-.203 1.898.092l.979.53c1.463 1.031 2.669 2.964 3.003 4.826a5.83 5.83 0 01.089.959c0 .071 0 .142-.004.188a3.856 3.856 0 01-.033.399c-.118.858-.508 1.537-1.103 1.906l-.108.067-1.776 1.021a.482.482 0 01-.25.067.495.495 0 01-.42-.22zm-1.948-8.892c-.007.003-.015.005-.021.009a1.43 1.43 0 00-.288.18l-.162.096c.213.078.429.181.64.304 1.764 1.017 3.216 3.312 3.45 5.45.023.201.036.395.036.588 0 .115-.004.223-.017.367-.013.082-.032.207-.058.343l.306-.171.085-.053c.342-.215.563-.627.641-1.188.013-.091.021-.187.025-.312l.003-.147c0-.103-.004-.211-.013-.317a6.839 6.839 0 00-.062-.481c-.29-1.603-1.333-3.278-2.543-4.136l-.865-.471a1.988 1.988 0 00-.698-.14 1.251 1.251 0 00-.459.079z"/>
    <path fill="#FFF" d="M222.935 122.219l.027-.017a.498.498 0 01.322-.043c.1.014.199.053.305.117.503.288.912.995.912 1.575a.91.91 0 01-.049.313.494.494 0 01-.178.244.296.296 0 01-.094.057c-.156.066-.366.043-.594-.09-.506-.291-.914-.996-.914-1.576 0-.282.1-.483.254-.582l.009.002z"/>
    <path fill="#0099F9" d="M223.341 124.812c-.664-.381-1.165-1.244-1.165-2.01 0-.441.178-.809.485-1.004.025-.018.054-.029.082-.043.202-.102.488-.12.614-.088.166.024.331.086.479.178.663.381 1.163 1.244 1.163 2.01 0 .178-.028.348-.079.482-.074.203-.198.369-.308.441a.743.743 0 01-.234.147.966.966 0 01-.383.075 1.243 1.243 0 01-.654-.188zm-.166-2.01c0 .399.315.944.667 1.146a.352.352 0 00.155.059l-.013-.014a.497.497 0 00.017-.137c0-.398-.315-.943-.673-1.148a.31.31 0 00-.133-.051.436.436 0 00-.02.145z"/>
    <path fill="#FFF" d="M221.51 122.127c0 1.324.93 2.938 2.076 3.602.519.295.988.352 1.354.203.075-.031.148-.074.22-.128.17-.124.307-.317.395-.56a2.233 2.233 0 00.115-.717c0-1.324-.93-2.939-2.079-3.6a2.062 2.062 0 00-.671-.258c-.007-.006-.01-.006-.021-.006a1.13 1.13 0 00-.732.097l-.069.036-.012.009c-.355.224-.573.683-.576 1.322z"/>
    <path fill="#0099F9" d="M223.338 126.16c-1.306-.756-2.326-2.524-2.326-4.031 0-.795.285-1.416.78-1.729.021-.015.113-.065.138-.077a1.557 1.557 0 01.966-.154c.037 0 .078.006.12.017.275.052.554.157.821.313 1.308.748 2.33 2.519 2.33 4.031a2.743 2.743 0 01-.141.886 1.664 1.664 0 01-.563.787 1.35 1.35 0 01-.329.188 1.613 1.613 0 01-.611.117c-.381.002-.778-.116-1.185-.348zm-.989-4.932c-.213.135-.336.463-.336.898 0 1.145.837 2.594 1.824 3.166.248.143.484.217.684.217a.627.627 0 00.232-.043.486.486 0 00.113-.068.68.68 0 00.217-.32c.018-.043.027-.086.039-.131.029-.127.046-.27.046-.42 0-1.146-.837-2.596-1.831-3.166a1.559 1.559 0 00-.51-.197l-.024-.006a.618.618 0 00-.454.07z"/>
    <path fill="#FFF" d="M220.335 121.543c-.023 1.076.47 2.213.983 3.136.527.95 1.32 1.835 2.271 2.386 1.029.596 2.389.629 3.006-.574.541-1.059.134-2.559-.276-3.586-.53-1.322-1.474-2.592-2.729-3.314-.721-.418-1.804-.645-2.492-.065-.232.195-.4.451-.518.731-.171.405-.237.87-.245 1.286zm1.181.582c0-.639.219-1.096.568-1.318l.012-.01.069-.036a1.137 1.137 0 01.753-.091c.212.039.438.121.671.258 1.149.66 2.079 2.275 2.079 3.6a2.216 2.216 0 01-.115.717 1.181 1.181 0 01-.395.56 1.025 1.025 0 01-.22.127c-.365.149-.836.094-1.354-.203-1.144-.667-2.071-2.278-2.068-3.604z"/>
    <path fill="#0099F9" d="M223.339 127.498c-.978-.566-1.851-1.48-2.454-2.574-.729-1.303-1.069-2.41-1.049-3.389.007-.381.063-.945.283-1.474.155-.375.376-.687.655-.922.736-.621 2.022-.587 3.063.017 1.252.721 2.324 2.02 2.942 3.563.46 1.154.88 2.785.258 4-.413.807-1.143 1.249-2.052 1.249-.538 0-1.124-.167-1.646-.47zm2.828-2.969a2.743 2.743 0 01-.141.886 1.664 1.664 0 01-.563.787 1.35 1.35 0 01-.329.188c-.521.211-1.152.133-1.793-.231a4.075 4.075 0 01-.863-.685c.406.474.869.869 1.363 1.155.375.218.782.336 1.148.336h.001c.528 0 .921-.237 1.16-.705.295-.577.269-1.467-.069-2.542.056.276.087.545.086.811zm-3.818-3.301c-.213.135-.336.463-.336.898 0 1.145.837 2.594 1.824 3.166.355.201.689.268.916.174a.486.486 0 00.113-.068.696.696 0 00.219-.32c.016-.043.025-.086.037-.131.029-.127.046-.27.046-.42 0-1.146-.837-2.596-1.831-3.166a1.559 1.559 0 00-.51-.197l-.024-.006a.618.618 0 00-.454.07zm.546-1.064c.037 0 .078.006.12.016.275.051.554.158.821.314.307.176.599.41.866.683a5.294 5.294 0 00-1.365-1.155c-.674-.391-1.511-.461-1.92-.119a1.427 1.427 0 00-.379.545c-.158.383-.199.813-.205 1.107-.012.488.099 1.033.333 1.645a3.986 3.986 0 01-.155-1.072c0-.795.285-1.414.78-1.729a1.553 1.553 0 01.867-.252c.104-.001.211.007.237.017z"/>
    <g fill="#0099F9">
      <path d="M228.731 123.164v-.016c-.31-1.707-1.424-3.52-2.8-4.488l-.927-.5c-.572-.213-1.091-.219-1.518-.053h-.004a1.698 1.698 0 00-.373.221l-1.396.806.212.03c.188-.018.38-.012.589.025.337.053.697.186 1.072.402 1.637.943 2.986 3.128 3.204 5.074.021.182.031.358.031.531 0 .102-.004.196-.012.291 0 0-.102.653-.164.823-.136.375-.347.677-.614.873l1.622-.937.163-.092.083-.053c.459-.283.772-.814.874-1.549.013-.107.025-.225.027-.344.002-.062.002-.115.002-.176 0-.119-.002-.242-.01-.363a6.527 6.527 0 00-.067-.512h.004v.007z"/>
      <path d="M225.612 127.459a.497.497 0 01.124-.676c.187-.138.338-.359.441-.642.028-.084.096-.444.136-.694a4.363 4.363 0 00-.018-.726c-.204-1.824-1.476-3.845-2.958-4.697a2.648 2.648 0 00-.907-.344 1.712 1.712 0 00-.459-.021.546.546 0 01-.113-.004l-.212-.029a.5.5 0 01-.181-.927l1.335-.764a2.132 2.132 0 01.537-.307c.544-.202 1.131-.205 1.902.09l.979.531c1.462 1.029 2.669 2.961 3.003 4.824.033.186.056.371.074.563.01.133.012.269.012.399l-.002.185c-.002.14-.016.272-.032.401-.119.863-.512 1.541-1.102 1.902-.008.004-.1.063-.107.066l-1.78 1.023a.495.495 0 01-.248.065.491.491 0 01-.424-.218zm-1.941-8.889a1.692 1.692 0 00-.311.188l-.164.097c.215.078.429.181.644.304 1.76 1.014 3.211 3.307 3.451 5.453.022.198.034.395.034.588 0 .114-.005.225-.019.366-.013.08-.033.207-.057.343l.301-.17.09-.059c.342-.21.563-.622.642-1.188.011-.09.021-.188.022-.295l.002-.16c0-.106-.002-.217-.008-.316a6.865 6.865 0 00-.063-.484c-.289-1.605-1.333-3.281-2.544-4.138l-.863-.472a1.953 1.953 0 00-.696-.139c-.166 0-.322.027-.461.082z"/>
    </g>
    <path fill="#FFF" d="M205.59 112.385h.013l.024-.021a.477.477 0 01.321-.041.862.862 0 01.305.114c.503.293.913.996.913 1.576a.959.959 0 01-.05.315.507.507 0 01-.176.242.487.487 0 01-.095.059c-.157.064-.369.039-.595-.092-.505-.291-.912-.996-.912-1.576.002-.28.099-.477.252-.576z"/>
    <path fill="#0099F9" d="M206.002 114.974c-.662-.385-1.161-1.246-1.161-2.01 0-.445.169-.801.479-1 .019-.01.036-.02.056-.029.012-.008.022-.016.031-.02.204-.101.491-.115.616-.086a1.3 1.3 0 01.479.178c.662.385 1.162 1.248 1.162 2.01 0 .17-.027.336-.08.488a1.002 1.002 0 01-.545.588.972.972 0 01-.378.074 1.312 1.312 0 01-.659-.193zm-.139-2.166a.418.418 0 00-.023.156c0 .404.31.939.663 1.145a.457.457 0 00.143.057.45.45 0 00.021-.147c0-.397-.316-.942-.666-1.146-.049-.029-.094-.049-.103-.086a.203.203 0 01-.035.021z"/>
    <path fill="#FFF" d="M204.174 112.291c0 1.324.929 2.934 2.075 3.598.518.299.988.354 1.351.203.079-.031.152-.072.224-.124a1.21 1.21 0 00.395-.56 2.294 2.294 0 00.115-.72c0-1.323-.93-2.938-2.079-3.601a2.126 2.126 0 00-.671-.258c-.008-.004-.01-.004-.021-.004a1.123 1.123 0 00-.732.096l-.069.037-.013.009c-.356.226-.572.683-.575 1.324z"/>
    <path fill="#0099F9" d="M206.001 116.32c-1.305-.754-2.325-2.523-2.325-4.029 0-.793.283-1.412.818-1.756l.1-.055a1.561 1.561 0 01.965-.153c.035 0 .073.004.11.012.271.051.552.156.831.316 1.307.752 2.33 2.521 2.33 4.032a2.767 2.767 0 01-.14.89 1.704 1.704 0 01-.569.793 1.588 1.588 0 01-.94.301c-.379.001-.776-.118-1.18-.351zm-.527-5a.648.648 0 00-.458.07c-.215.137-.338.465-.338.9 0 1.143.836 2.592 1.825 3.164.354.205.663.276.917.172a.532.532 0 00.104-.06.713.713 0 00.228-.336c.014-.039.022-.077.034-.125.029-.127.046-.269.046-.418 0-1.146-.837-2.596-1.827-3.166a1.63 1.63 0 00-.531-.201z"/>
    <g>
      <path fill="#FFF" d="M202.998 111.709c-.024 1.074.47 2.213.983 3.137.527.947 1.32 1.834 2.27 2.383 1.027.596 2.388.629 3.006-.574.542-1.057.135-2.557-.275-3.588-.531-1.324-1.475-2.59-2.729-3.313-.723-.418-1.805-.646-2.494-.066a1.902 1.902 0 00-.517.73c-.17.408-.235.871-.244 1.291zm1.182.58c0-.642.217-1.097.567-1.321l.013-.009.069-.037a1.143 1.143 0 01.753-.092c.212.039.436.123.671.258 1.149.662 2.079 2.277 2.079 3.602 0 .197-.022.375-.061.533-.016.064-.031.125-.054.186a1.213 1.213 0 01-.394.56.94.94 0 01-.225.124c-.362.15-.833.097-1.351-.203-1.143-.666-2.07-2.275-2.067-3.601z"/>
      <path fill="#0099F9" d="M206.003 117.66c-.976-.563-1.848-1.477-2.454-2.572-.729-1.307-1.069-2.414-1.049-3.391.007-.379.062-.941.28-1.473a2.4 2.4 0 01.654-.922c.738-.619 2.025-.586 3.065.016 1.252.721 2.325 2.02 2.944 3.563.46 1.154.879 2.787.257 4-.413.808-1.144 1.25-2.052 1.25a3.368 3.368 0 01-1.645-.471zm2.827-2.971a2.753 2.753 0 01-.14.889 1.699 1.699 0 01-.569.793c-.108.078-.218.14-.324.182-.519.218-1.153.138-1.793-.23a4.015 4.015 0 01-.872-.693c.407.479.875.881 1.372 1.168.374.217.781.336 1.148.336.529 0 .921-.236 1.162-.706.297-.577.269-1.474-.075-2.556.061.274.092.55.091.817zm-3.356-3.369a.647.647 0 00-.458.07c-.215.137-.338.465-.338.9 0 1.143.836 2.592 1.825 3.164.354.205.663.276.917.172a.532.532 0 00.104-.06.713.713 0 00.228-.336c.014-.039.022-.077.034-.125.029-.127.046-.269.046-.418 0-1.146-.837-2.596-1.827-3.166a1.63 1.63 0 00-.531-.201zm.085-.992c.035 0 .073.004.11.014v-.002a2.7 2.7 0 01.831.316c.309.178.601.412.869.688a5.284 5.284 0 00-1.369-1.158c-.677-.392-1.507-.466-1.923-.114a1.4 1.4 0 00-.374.539c-.159.385-.199.814-.205 1.108-.012.489.099 1.032.332 1.646a4.05 4.05 0 01-.154-1.074c0-.793.283-1.412.818-1.756l.1-.055a1.561 1.561 0 01.965-.152z"/>
    </g>
    <g fill="#0099F9">
      <path d="M211.395 113.324v-.014c-.311-1.705-1.425-3.52-2.8-4.488l-.927-.498c-.574-.215-1.091-.223-1.517-.053h-.006a1.542 1.542 0 00-.371.219l-1.396.805.211.031c.188-.018.381-.012.588.023a3.2 3.2 0 011.073.406c1.638.943 2.986 3.129 3.204 5.072a4.608 4.608 0 01.019.819s-.103.654-.163.828c-.138.377-.348.672-.617.873l1.625-.937.161-.096.084-.049c.459-.285.772-.818.874-1.551.014-.109.022-.225.027-.342.003-.06.003-.119.003-.18a4.874 4.874 0 00-.079-.873h.005v.005z"/>
      <path d="M208.276 117.623a.497.497 0 01.119-.674c.192-.146.342-.363.443-.644.03-.086.098-.449.139-.701a3.957 3.957 0 00-.02-.724c-.202-1.821-1.474-3.842-2.956-4.694a2.74 2.74 0 00-.909-.349 1.658 1.658 0 00-.453-.018.68.68 0 01-.127-.004l-.211-.033a.497.497 0 01-.17-.926l1.33-.758a1.971 1.971 0 01.544-.312c.542-.203 1.126-.203 1.897.092l.979.529c1.462 1.029 2.67 2.963 3.003 4.824.034.189.059.379.071.561.012.135.016.271.016.402 0 .068 0 .137-.003.199a4.177 4.177 0 01-.033.391c-.117.859-.51 1.535-1.113 1.91-.001.002-.086.053-.088.055l-1.787 1.029a.5.5 0 01-.25.066.5.5 0 01-.421-.221zm-1.94-8.889c-.008.004-.019.006-.028.01a1.577 1.577 0 00-.283.18l-.164.095c.213.078.429.181.644.306 1.761 1.014 3.212 3.305 3.451 5.446.022.203.033.397.033.593 0 .114-.002.223-.017.364-.014.082-.033.209-.057.347l.388-.229c.344-.213.565-.625.643-1.188.012-.095.021-.197.024-.306l.002-.151c0-.105-.002-.218-.012-.326a5.519 5.519 0 00-.06-.478c-.291-1.604-1.334-3.278-2.545-4.136l-.864-.471a1.972 1.972 0 00-.698-.141 1.215 1.215 0 00-.457.085z"/>
    </g>
    <g>
      <path fill="#FFF" d="M197.26 107.437l.028-.018a.462.462 0 01.318-.043.86.86 0 01.308.117c.502.287.911.994.911 1.576a.977.977 0 01-.051.313.532.532 0 01-.175.246.387.387 0 01-.096.057c-.155.064-.366.041-.592-.093-.504-.288-.912-.995-.912-1.575 0-.281.098-.482.25-.58h.011z"/>
      <path fill="#0099F9" d="M197.666 110.027c-.664-.379-1.164-1.244-1.164-2.01 0-.441.174-.807.479-1.002a1.063 1.063 0 01.698-.133c.16.023.324.085.481.178.662.383 1.162 1.246 1.162 2.01 0 .17-.026.338-.08.483a.97.97 0 01-.313.448.806.806 0 01-.229.143.957.957 0 01-.382.075c-.213 0-.442-.067-.652-.192zm-.164-2.01c0 .4.313.943.667 1.146.07.041.128.057.152.057l-.018-.008a.422.422 0 00.021-.143c0-.398-.315-.943-.667-1.146a.4.4 0 00-.137-.055.51.51 0 00-.018.149z"/>
      <path fill="#FFF" d="M195.833 107.344c0 1.323.932 2.935 2.078 3.599.516.297.988.354 1.352.203.076-.031.151-.074.22-.125.172-.125.309-.32.396-.561a2.271 2.271 0 00.115-.717c0-1.324-.934-2.94-2.079-3.599a2 2 0 00-.673-.259c-.006-.006-.011-.006-.021-.006a1.123 1.123 0 00-.731.097l-.071.039-.01.006c-.356.225-.574.684-.576 1.323z"/>
      <path fill="#0099F9" d="M197.661 111.373c-1.306-.756-2.327-2.525-2.327-4.03 0-.798.285-1.416.803-1.743l.114-.063c.219-.117.464-.176.729-.176.104 0 .21.008.236.02.043 0 .088.007.133.02.271.051.543.158.812.313 1.307.75 2.33 2.521 2.33 4.031a2.792 2.792 0 01-.142.886c-.123.337-.32.611-.563.787a1.574 1.574 0 01-.945.309c-.377-.001-.775-.12-1.18-.354zm-.987-4.926c-.216.135-.339.463-.339.897 0 1.142.838 2.593 1.827 3.165.245.143.479.217.678.217a.631.631 0 00.241-.047.388.388 0 00.108-.064.658.658 0 00.214-.307c.016-.049.029-.096.042-.145.03-.133.048-.273.048-.42 0-1.146-.839-2.597-1.832-3.166a1.56 1.56 0 00-.509-.197c-.014-.002-.025-.006-.039-.01a.627.627 0 00-.439.077z"/>
      <g>
        <path fill="#FFF" d="M194.656 106.76c-.021 1.075.475 2.214.985 3.136.529.949 1.319 1.834 2.271 2.385 1.026.596 2.388.629 3.006-.574.543-1.059.135-2.559-.278-3.586-.531-1.324-1.476-2.592-2.728-3.315-.722-.417-1.805-.646-2.494-.065-.234.194-.397.45-.517.733-.17.405-.234.869-.245 1.286zm1.181.583c0-.64.217-1.097.57-1.321l.01-.006.071-.037a1.123 1.123 0 01.752-.092c.214.037.438.121.673.258 1.146.659 2.08 2.275 2.08 3.598a2.212 2.212 0 01-.116.719c-.087.24-.224.435-.396.56a.808.808 0 01-.22.125c-.363.151-.836.097-1.352-.2-1.142-.668-2.074-2.281-2.072-3.604z"/>
        <path fill="#0099F9" d="M197.664 112.715c-.976-.564-1.848-1.479-2.456-2.574-.726-1.305-1.068-2.412-1.049-3.391.014-.562.107-1.058.284-1.473.16-.384.381-.693.654-.925.739-.616 2.025-.586 3.065.019 1.252.725 2.322 2.022 2.94 3.563.463 1.154.884 2.785.26 4.002-.413.805-1.144 1.248-2.054 1.248-.537-.001-1.123-.167-1.644-.469zm2.828-2.971a2.792 2.792 0 01-.143.886c-.123.337-.32.611-.563.787a1.363 1.363 0 01-.329.188c-.517.219-1.154.141-1.794-.229a4.084 4.084 0 01-.861-.684c.405.475.869.871 1.362 1.156.373.217.78.334 1.147.334.53 0 .922-.236 1.162-.705.297-.578.271-1.465-.069-2.537.058.271.089.542.088.804zm-3.818-3.297c-.216.135-.339.463-.339.897 0 1.142.838 2.593 1.827 3.165.353.203.663.275.919.17a.388.388 0 00.108-.064.658.658 0 00.214-.307c.016-.049.029-.096.042-.145.03-.133.048-.273.048-.42 0-1.146-.839-2.597-1.832-3.166a1.56 1.56 0 00-.509-.197c-.014-.002-.025-.006-.039-.01a.627.627 0 00-.439.077zm.545-1.066c.043 0 .088.006.134.018.271.053.545.158.811.313.303.176.592.404.854.674a5.287 5.287 0 00-1.354-1.146c-.678-.389-1.512-.463-1.924-.115a1.42 1.42 0 00-.376.545c-.126.295-.196.679-.207 1.104-.01.482.1 1.021.328 1.627a3.98 3.98 0 01-.149-1.055c0-.797.285-1.416.803-1.742.014-.009.1-.057.114-.063a1.53 1.53 0 01.729-.178c.104-.002.209.008.237.018z"/>
      </g>
      <g fill="#0099F9">
        <path d="M203.054 108.379v-.016c-.305-1.707-1.422-3.52-2.799-4.488l-.925-.498c-.576-.213-1.092-.221-1.521-.053h-.002a1.651 1.651 0 00-.374.219l-1.396.805.215.031c.185-.016.38-.01.585.025.337.055.7.188 1.075.403 1.637.942 2.987 3.129 3.202 5.073.021.183.033.357.033.533 0 .101-.007.195-.012.289 0 0-.102.652-.164.824-.137.379-.347.676-.615.871l1.621-.936.163-.092.084-.054c.459-.28.774-.813.874-1.547a3.97 3.97 0 00.03-.344l.001-.177a3.14 3.14 0 00-.015-.362 4.312 4.312 0 00-.066-.513h.004v.007z"/>
        <path d="M199.937 112.676a.5.5 0 01.123-.678c.189-.14.339-.354.44-.635.028-.084.097-.449.136-.687.004-.084.011-.171.011-.263 0-.154-.01-.313-.03-.479-.201-1.822-1.472-3.842-2.953-4.695a2.721 2.721 0 00-.912-.346 1.564 1.564 0 00-.455-.021.473.473 0 01-.119-.004l-.215-.031a.495.495 0 01-.416-.4.496.496 0 01.24-.525l1.336-.764c.148-.117.314-.215.504-.293.553-.217 1.146-.227 1.938.078l.976.529c1.467 1.031 2.674 2.964 3.003 4.82.038.192.061.381.071.555.016.139.019.277.019.414l-.001.197c-.008.135-.018.27-.035.389-.117.863-.511 1.541-1.104 1.904-.007.004-.099.063-.106.065l-1.776 1.021a.48.48 0 01-.25.066.497.497 0 01-.425-.217zm-1.934-8.895a1.443 1.443 0 00-.318.193l-.165.096c.213.078.427.18.646.305 1.761 1.015 3.211 3.31 3.448 5.445.024.203.037.399.037.594 0 .109-.006.215-.018.365-.013.082-.033.207-.057.342l.302-.172c.002 0 .087-.055.088-.055.337-.207.564-.627.642-1.189.013-.092.021-.191.024-.291l.001-.16a4.49 4.49 0 00-.076-.805c-.286-1.602-1.329-3.277-2.543-4.135l-.861-.472a2.006 2.006 0 00-.699-.14c-.166.003-.322.03-.451.079z"/>
      </g>
    </g>
    <g>
      <path fill="#FFF" d="M241.14 129.418l12.834-7.43-48.718-28.123-12.821 7.398z"/>
      <path fill="#0099F9" d="M240.89 129.851l-48.705-28.154c-.153-.09-.25-.254-.25-.434s.097-.344.25-.434l12.821-7.398a.497.497 0 01.5 0l48.718 28.125a.499.499 0 01.001.866l-12.834 7.431a.492.492 0 01-.501-.002zm-35.634-35.408l-11.821 6.822 47.705 27.576 11.835-6.852-47.719-27.546z"/>
    </g>
    <g>
      <path fill="#FFF" d="M241.14 115.933l12.834-7.429-48.718-28.125-12.821 7.4z"/>
      <path fill="#0099F9" d="M240.765 116.582L192.06 88.427a.748.748 0 010-1.296l12.822-7.399a.74.74 0 01.75 0l48.717 28.125a.75.75 0 01.001 1.297l-12.833 7.43a.763.763 0 01-.377.101.753.753 0 01-.375-.103zm-35.509-35.336l-11.322 6.533 47.206 27.289 11.335-6.563-47.219-27.259z"/>
    </g>
    <g>
      <path fill="#FFF" d="M241.14 115.933v13.485l12.834-7.43v-13.484z"/>
      <path fill="#0099F9" d="M240.765 131.068c-.229-.133-.375-1.381-.375-1.648v-13.485c0-.267.144-.515.375-.647l12.833-7.431a.75.75 0 011.126.649v14.482a.75.75 0 01-.374.649l-12.833 7.431a.754.754 0 01-.377.102.777.777 0 01-.375-.102zm12.459-21.262l-11.334 6.561v11.75l11.334-6.561v-11.75z"/>
      <g>
        <path fill="#FFF" d="M192.435 87.779v13.484l48.705 28.155v-13.485z"/>
        <path fill="#0099F9" d="M240.89 129.851l-49.205-28.154V87.779c0-.178.347-.344.5-.432a.487.487 0 01.5 0L241.39 115.5a.5.5 0 01.25.434v13.484a.501.501 0 01-.75.433zm-47.955-41.205v12.33l47.705 27.575v-12.329l-47.705-27.576z"/>
      </g>
    </g>
    <g>
      <path fill="#FFF" d="M242.722 120.349v10.045s.542.021.747.055c.337.059.7.189 1.075.406 1.638.943 2.986 3.129 3.204 5.074.021.182.024.725.021.82 0 0-.009.271-.024.258a2.806 2.806 0 01-.14.566c-.04.112-.09.219-.141.313 0 0 2.76 1.586 3.925 2.265l12.813-7.431v-9.929l-.966-5.405-7.683-4.468-12.831 7.431z"/>
      <path fill="#0099F9" d="M251.138 140.584c-1.165-.678-3.924-2.262-3.924-2.262a.502.502 0 01-.188-.675 1.36 1.36 0 00.108-.248 2.23 2.23 0 00.115-.467.637.637 0 01.012-.06c.006-.059.009-.141.009-.146a8.074 8.074 0 00-.021-.744c-.201-1.823-1.475-3.844-2.956-4.698a2.771 2.771 0 00-.905-.345c-.188-.03-.688-.049-.688-.049a.5.5 0 01-.479-.5v-10.043c0-.181.096-.345.249-.435l12.833-7.43a.5.5 0 01.502 0l7.683 4.469a.49.49 0 01.241.346l.974 5.494v9.927c0 .18-.096.344-.249.435l-12.813 7.43c-.077.045-.164.065-.251.065s-.174-.019-.252-.064zm12.57-17.701l-.924-5.18-7.231-4.205-12.332 7.14v9.284c.128.01.252.02.331.033.412.069.83.229 1.241.465 1.761 1.016 3.212 3.309 3.45 5.449.024.221.028.793.023.897-.003.073-.007.19-.034.312l.004.002a3.306 3.306 0 01-.141.597c.733.421 2.336 1.343 3.291 1.896l12.313-7.139.009-9.551z"/>
    </g>
    <g>
      <path fill="#FFF" d="M264.199 132.72v-9.925l-.965-5.408-12.81 7.427.965 5.408v9.928z"/>
      <path fill="#0099F9" d="M251.139 140.586a.51.51 0 01-.25-.435l.01-9.84-.966-5.407a.5.5 0 01.24-.521l12.813-7.428a.498.498 0 01.742.343l.974 5.494v9.927c0 .18-.096.344-.249.435l-12.813 7.43a.495.495 0 01-.251.065.505.505 0 01-.25-.063zm12.569-17.705l-.84-4.702-11.893 6.894.911 5.15v9.061l11.813-6.85.009-9.553z"/>
    </g>
    <g>
      <path fill="#FFF" d="M255.554 112.92l7.68 4.467-12.81 7.427-7.703-4.465z"/>
      <path fill="#0099F9" d="M250.173 125.248l-7.703-4.467a.504.504 0 010-.868l12.833-7.43a.5.5 0 01.502 0l7.683 4.469c.153.09.249.256.249.435a.506.506 0 01-.249.433l-12.813 7.428c-.078.045-.164.065-.251.065s-.173-.02-.251-.065zm5.38-11.75l-11.835 6.852 6.706 3.887 11.814-6.85-6.685-3.889z"/>
    </g>
    <g>
      <path fill="none" d="M264.199 122.726l-12.81 7.43"/>
      <path fill="#0099F9" d="M250.956 130.408a.5.5 0 01.182-.684l12.813-7.432a.5.5 0 01.501.868l-12.813 7.43a.499.499 0 01-.683-.182z"/>
    </g>
    <g>
      <path fill="none" d="M261.276 131.041l-6.371 3.693"/>
      <path fill="#0099F9" d="M254.798 134.797a.128.128 0 01.046-.172l6.372-3.693a.123.123 0 01.17.047.123.123 0 01-.046.17l-6.371 3.694a.132.132 0 01-.063.017.128.128 0 01-.108-.063z"/>
      <path fill="none" d="M261.276 130.478l-6.371 3.694"/>
      <path fill="#0099F9" d="M254.798 134.234a.125.125 0 01.046-.17l6.372-3.695a.127.127 0 01.17.047.126.126 0 01-.046.172l-6.371 3.693a.123.123 0 01-.063.018.128.128 0 01-.108-.065z"/>
      <path fill="none" d="M261.276 129.918l-6.371 3.693"/>
      <path fill="#0099F9" d="M254.798 133.674a.128.128 0 01.046-.172l6.372-3.693a.123.123 0 01.17.047.123.123 0 01-.046.17l-6.371 3.694a.132.132 0 01-.063.017.128.128 0 01-.108-.063z"/>
      <path fill="none" d="M261.276 129.357l-6.371 3.692"/>
      <path fill="#0099F9" d="M254.798 133.111a.125.125 0 01.046-.17l6.372-3.693c.06-.031.135-.016.17.047a.123.123 0 01-.046.17l-6.371 3.693a.123.123 0 01-.063.018.128.128 0 01-.108-.065z"/>
      <path fill="none" d="M261.276 128.795l-6.371 3.695"/>
      <path fill="#0099F9" d="M254.798 132.552a.127.127 0 01.046-.171l6.372-3.693a.124.124 0 01.17.045.126.126 0 01-.046.172l-6.371 3.693a.123.123 0 01-.063.018.127.127 0 01-.108-.064z"/>
      <g>
        <path fill="none" d="M261.276 128.234l-6.371 3.693"/>
        <path fill="#0099F9" d="M254.798 131.99a.128.128 0 01.046-.172l6.372-3.693a.124.124 0 01.17.047.125.125 0 01-.046.171l-6.371 3.692a.125.125 0 01-.063.019.127.127 0 01-.108-.064z"/>
      </g>
      <g>
        <path fill="none" d="M261.276 127.672l-6.371 3.695"/>
        <path fill="#0099F9" d="M254.798 131.428a.127.127 0 01.046-.171l6.372-3.693a.124.124 0 01.17.045.126.126 0 01-.046.172l-6.371 3.693a.123.123 0 01-.171-.046z"/>
      </g>
      <g>
        <path fill="none" d="M261.276 127.115l-6.371 3.691"/>
        <path fill="#0099F9" d="M254.798 130.867a.126.126 0 01.046-.17l6.372-3.691a.124.124 0 01.17.047.125.125 0 01-.046.171l-6.371 3.69a.125.125 0 01-.063.019.129.129 0 01-.108-.066z"/>
      </g>
      <g>
        <path fill="none" d="M261.276 126.552l-6.371 3.694"/>
        <path fill="#0099F9" d="M254.798 130.306a.126.126 0 01.046-.171l6.372-3.69c.06-.031.135-.016.17.045a.126.126 0 01-.046.172l-6.371 3.691a.146.146 0 01-.063.018.124.124 0 01-.108-.065z"/>
      </g>
    </g>
    <g>
      <path fill="#FFF" d="M263.609 129.246v1.603l.59-.343v-1.602z"/>
      <path fill="#0099F9" d="M263.359 131.283a.507.507 0 01-.25-.434v-1.604c0-.181.096-.344.249-.435l.591-.342a.504.504 0 01.5-.001c.154.091.25.255.25.436v1.602c0 .18-.095.344-.248.434l-.591.342a.498.498 0 01-.501.002z"/>
    </g>
    <g>
      <path fill="#FFF" d="M262.216 130.056v1.602l1.393-.809v-1.603z"/>
      <path fill="#0099F9" d="M261.968 132.093a.505.505 0 01-.252-.435v-1.603c0-.179.096-.345.249-.435l1.396-.811a.503.503 0 01.751.434v1.604a.502.502 0 01-.249.433l-1.395.811a.504.504 0 01-.5.002zm1.141-1.978l-.396.229v.446l.396-.229v-.446z"/>
    </g>
    <g>
      <path fill="#FFF" d="M242.722 120.349v10.043s.542.023.747.057c.337.057.7.188 1.075.404 1.638.943 2.986 3.129 3.204 5.075.021.181.024.726.021.821 0 0-.009.271-.024.258a2.84 2.84 0 01-.14.566c-.04.11-.09.219-.141.313 0 0 2.76 1.586 3.925 2.262v-9.928l-.965-5.408-7.702-4.463z"/>
      <path fill="#0099F9" d="M251.138 140.584c-1.165-.678-3.924-2.262-3.924-2.262a.502.502 0 01-.188-.675 1.36 1.36 0 00.108-.248 2.23 2.23 0 00.115-.467.637.637 0 01.012-.06c.006-.059.009-.141.009-.146a8.074 8.074 0 00-.021-.744c-.201-1.823-1.475-3.844-2.956-4.698a2.771 2.771 0 00-.905-.345c-.188-.03-.688-.049-.688-.049a.5.5 0 01-.479-.5v-10.043a.499.499 0 01.751-.435l7.703 4.467a.492.492 0 01.24.345l.974 5.496v9.928a.501.501 0 01-.751.436zm-7.916-19.366v8.704c.128.01.252.02.331.033.412.069.83.229 1.241.465 1.761 1.016 3.212 3.309 3.45 5.449.024.221.028.793.023.897-.003.073-.007.19-.034.312l.004.002a3.306 3.306 0 01-.141.597c.616.353 1.849 1.062 2.792 1.606l.009-8.974-.926-5.181-6.749-3.91z"/>
    </g>
    <path fill="#0099F9" d="M251.471 138.502l-3.498-2.045a.127.127 0 01-.045-.172c.036-.06.11-.076.173-.045l3.436 2.01 12.747-7.392c.061-.032.137-.016.172.046a.126.126 0 01-.047.172l-12.812 7.426a.123.123 0 01-.063.018.139.139 0 01-.063-.018z"/>
    <g>
      <path fill="#FFF" d="M246.267 122.406v4.777l5.122 2.973"/>
      <path fill="#0099F9" d="M251.138 130.59l-5.121-2.975a.503.503 0 01-.25-.433v-4.776a.5.5 0 011 0v4.487l4.873 2.83a.5.5 0 11-.502.867z"/>
    </g>
    <g>
      <path fill="#FFF" d="M252.569 137.244v-1.604l-.588.342v1.604z"/>
      <path fill="#0099F9" d="M251.731 138.019a.502.502 0 01-.25-.434v-1.604c0-.179.095-.342.248-.433l.59-.342a.503.503 0 01.501-.002c.153.09.25.256.25.435v1.604a.506.506 0 01-.249.433l-.59.343a.498.498 0 01-.5 0z"/>
    </g>
    <g>
      <path fill="#FFF" d="M253.966 136.433v-1.601l-1.397.808v1.604z"/>
      <path fill="#0099F9" d="M252.32 137.677a.505.505 0 01-.25-.434v-1.604c0-.179.096-.343.249-.433l1.396-.811a.502.502 0 01.5-.002c.154.09.25.256.25.436v1.603a.502.502 0 01-.249.435l-1.396.81a.487.487 0 01-.251.067.52.52 0 01-.249-.067zm1.146-1.978l-.396.229v.446l.396-.229v-.446z"/>
    </g>
    <g>
      <path fill="none" d="M246.062 128.941l1 .58"/>
      <path fill="#0099F9" d="M246.81 129.955l-1-.58a.502.502 0 01.504-.868l1 .58a.503.503 0 01.182.684.504.504 0 01-.686.184z"/>
    </g>
    <path fill="#0099F9" d="M231.018 123.568l-2.21 1.246-.133-2.601zM205.085 108.867l-2.21 1.248-.133-2.602z"/>
  </g>
  <g>
    <path fill="#FFF" d="M197.682 146.837h.009l.027-.021a.483.483 0 01.32-.041.93.93 0 01.307.115c.5.291.911.996.911 1.575a.998.998 0 01-.05.314.524.524 0 01-.272.301c-.157.064-.364.041-.592-.09-.506-.293-.913-.996-.913-1.578.003-.28.097-.48.253-.575z"/>
    <path fill="#0099F9" d="M198.094 149.425c-.664-.383-1.163-1.247-1.163-2.012 0-.445.178-.812.487-1.002.021-.015.047-.025.07-.035l-.002-.004c.202-.105.489-.121.63-.09.161.026.32.084.479.176.661.386 1.16 1.25 1.16 2.01 0 .167-.023.328-.081.49a.972.972 0 01-.317.447.934.934 0 01-.23.141.97.97 0 01-.373.07c-.218 0-.44-.064-.66-.191zm-.14-2.165a.424.424 0 00-.022.153c0 .405.311.942.661 1.146.071.039.12.054.143.058a.49.49 0 00.021-.148c0-.396-.315-.943-.663-1.145-.063-.039-.111-.052-.119-.076l-.021.012z"/>
    <path fill="#FFF" d="M196.264 146.741c0 1.326.931 2.937 2.078 3.6.516.3.988.355 1.351.203a.878.878 0 00.22-.125c.174-.125.31-.319.396-.559a2.254 2.254 0 00.114-.719c0-1.324-.931-2.938-2.076-3.6a2.055 2.055 0 00-.672-.258c-.007-.004-.011-.004-.021-.004a1.132 1.132 0 00-.735.094l-.067.039-.012.008c-.358.223-.574.68-.576 1.321z"/>
    <path fill="#0099F9" d="M198.094 150.774c-1.307-.756-2.328-2.525-2.328-4.031 0-.795.285-1.414.769-1.719.024-.021.122-.076.15-.092a1.56 1.56 0 01.728-.173c.104 0 .214.009.239.021.034 0 .071.004.11.014.271.047.544.15.832.316 1.306.752 2.326 2.521 2.326 4.031 0 .238-.024.459-.072.645-.019.082-.04.158-.067.244a1.652 1.652 0 01-.562.783c-.1.076-.207.139-.334.191a1.598 1.598 0 01-.613.119c-.379.001-.775-.118-1.178-.349zm-.531-5.002a.642.642 0 00-.46.068c-.216.137-.338.465-.338.898 0 1.143.837 2.592 1.828 3.166.35.202.684.266.907.176a.575.575 0 00.117-.068.672.672 0 00.216-.313 1.755 1.755 0 00.086-.558c0-1.146-.837-2.596-1.825-3.166a1.593 1.593 0 00-.512-.199c-.003-.002-.019-.004-.019-.004z"/>
    <path fill="#FFF" d="M195.09 146.159c-.022 1.074.471 2.213.982 3.137.53.947 1.321 1.834 2.271 2.384 1.025.596 2.388.627 3.003-.574.545-1.06.137-2.56-.276-3.588-.53-1.321-1.473-2.591-2.727-3.313-.725-.416-1.805-.644-2.493-.063a1.852 1.852 0 00-.52.729c-.167.405-.231.87-.24 1.288zm1.18.58c0-.639.216-1.096.568-1.32l.011-.008.068-.037a1.132 1.132 0 01.756-.092c.212.037.435.121.672.258 1.146.662 2.076 2.277 2.076 3.601 0 .194-.021.375-.06.534-.017.064-.032.123-.055.185-.086.24-.222.433-.396.56a.924.924 0 01-.22.125c-.362.149-.835.095-1.351-.203-1.144-.667-2.073-2.277-2.069-3.603z"/>
    <path fill="#0099F9" d="M198.096 152.112c-.973-.561-1.844-1.473-2.46-2.572-.724-1.307-1.066-2.416-1.046-3.393.013-.557.106-1.052.281-1.471.157-.383.382-.693.657-.922.737-.62 2.018-.588 3.065.014 1.25.721 2.321 2.02 2.939 3.563.463 1.152.884 2.783.26 4.002-.414.806-1.144 1.248-2.053 1.25a3.361 3.361 0 01-1.643-.471zm2.825-2.971c0 .236-.024.457-.072.645a3.19 3.19 0 01-.066.244 1.665 1.665 0 01-.563.783c-.1.076-.207.137-.334.189-.519.218-1.155.137-1.791-.23a4.127 4.127 0 01-.873-.691c.409.479.877.881 1.373 1.166.372.217.779.336 1.146.336.53 0 .922-.237 1.161-.707.3-.582.271-1.479-.075-2.563.061.278.094.559.094.828zm-3.358-3.369a.642.642 0 00-.46.068c-.216.137-.338.465-.338.898 0 1.143.837 2.592 1.828 3.166.35.202.684.266.907.176a.575.575 0 00.117-.068.672.672 0 00.216-.313 1.755 1.755 0 00.086-.558c0-1.146-.837-2.596-1.825-3.166a1.593 1.593 0 00-.512-.199c-.003-.002-.019-.004-.019-.004zm.087-.992c.034 0 .071.004.11.012.271.049.544.152.832.316.311.18.604.416.873.693a5.312 5.312 0 00-1.373-1.166c-.687-.395-1.503-.469-1.926-.111-.153.127-.28.307-.375.535-.124.299-.195.684-.205 1.109-.01.486.1 1.029.33 1.639a4.041 4.041 0 01-.152-1.066c0-.797.285-1.414.769-1.719.023-.021.122-.076.15-.092.221-.115.466-.174.728-.174.105.001.214.01.239.024z"/>
    <g fill="#0099F9">
      <path d="M203.482 147.774v-.015c-.307-1.705-1.42-3.519-2.798-4.487l-.928-.5c-.574-.213-1.091-.223-1.516-.052h-.002c-.136.056-.263.13-.375.22l-1.396.803.211.033c.188-.02.384-.012.589.023.337.055.698.188 1.075.404 1.639.942 2.984 3.127 3.201 5.071.021.185.033.358.033.533 0 .103-.004.194-.013.289 0 0-.102.653-.165.825-.136.377-.347.675-.613.875l1.623-.938.164-.09.083-.054c.459-.282.771-.815.874-1.547.013-.108.022-.227.024-.344.006-.059.006-.117.006-.18a4.886 4.886 0 00-.082-.873h.004v.004z"/>
      <path d="M200.369 152.077a.5.5 0 01.116-.676c.192-.145.343-.361.445-.646.03-.086.097-.444.137-.694.008-.08.011-.16.011-.246 0-.155-.011-.312-.031-.479-.201-1.821-1.471-3.84-2.953-4.693a2.743 2.743 0 00-.91-.346 1.74 1.74 0 00-.451-.021.406.406 0 01-.13-.002l-.212-.032a.495.495 0 01-.411-.404.497.497 0 01.239-.523l1.335-.764c.149-.117.317-.215.501-.289.549-.219 1.146-.229 1.939.074l.976.531c1.466 1.028 2.673 2.961 3.001 4.814.039.188.059.378.078.572.01.134.015.267.015.396 0 .071 0 .143-.005.188a4.419 4.419 0 01-.03.402c-.122.862-.515 1.539-1.099 1.896-.011.007-.104.064-.114.072l-1.776 1.021a.498.498 0 01-.25.066.497.497 0 01-.421-.217zm-1.938-8.895a1.35 1.35 0 00-.316.189l-.163.094c.212.078.429.18.646.305 1.76 1.014 3.21 3.307 3.446 5.445.024.205.038.4.038.594 0 .115-.005.223-.019.365-.013.08-.033.207-.058.344l.299-.168.094-.061c.339-.209.562-.621.641-1.185.011-.09.021-.19.022-.313l.004-.146a3.93 3.93 0 00-.013-.313 5.377 5.377 0 00-.063-.486c-.287-1.605-1.329-3.279-2.543-4.135l-.863-.473a1.991 1.991 0 00-.697-.14 1.25 1.25 0 00-.455.084z"/>
    </g>
    <path fill="#FFF" d="M209.287 153.499l.026-.019a.478.478 0 01.321-.043.866.866 0 01.304.115c.506.29.912.995.912 1.577a.955.955 0 01-.048.314.498.498 0 01-.174.243c-.029.026-.065.043-.096.058-.157.067-.367.043-.597-.09-.501-.291-.912-.996-.912-1.576 0-.285.1-.482.254-.58h.01z"/>
    <path fill="#0099F9" d="M209.688 156.089c-.662-.385-1.161-1.248-1.161-2.01 0-.441.178-.81.487-1.002.021-.015.042-.024.064-.035.196-.105.472-.129.631-.096.163.023.326.084.479.176.663.381 1.163 1.246 1.163 2.012 0 .176-.024.337-.077.482-.073.2-.196.366-.305.438a.875.875 0 01-.237.15.968.968 0 01-.384.076 1.305 1.305 0 01-.66-.191zm-.162-2.012c0 .398.315.943.664 1.146a.39.39 0 00.157.06l-.017-.002a.437.437 0 00.02-.146c0-.406-.31-.941-.669-1.148-.058-.035-.096-.045-.133-.057a.377.377 0 00-.022.147z"/>
    <path fill="#FFF" d="M207.862 153.403c0 1.326.93 2.938 2.074 3.602.52.298.991.354 1.354.203a.917.917 0 00.219-.127c.174-.125.31-.315.396-.559.021-.061.038-.119.054-.182.038-.162.061-.34.061-.535 0-1.326-.931-2.939-2.081-3.598a1.883 1.883 0 00-.67-.262c-.008-.002-.01-.002-.021-.002a1.123 1.123 0 00-.732.092l-.069.039-.012.008c-.354.223-.572.682-.573 1.321z"/>
    <path fill="#0099F9" d="M209.687 157.438c-1.303-.754-2.323-2.525-2.323-4.033 0-.795.284-1.414.804-1.744a1.579 1.579 0 011.08-.215c.028 0 .08.004.107.01.278.049.563.158.831.32 1.31.746 2.333 2.518 2.333 4.031a2.75 2.75 0 01-.14.881c-.12.336-.316.61-.563.787a1.408 1.408 0 01-.33.19c-.188.08-.396.119-.614.119-.377.004-.775-.115-1.185-.346zm-.986-4.933c-.215.135-.338.463-.338.898 0 1.145.837 2.596 1.822 3.166.25.143.486.219.685.219a.623.623 0 00.229-.043.619.619 0 00.119-.07.66.66 0 00.215-.313c.017-.046.027-.091.039-.138.03-.131.047-.272.047-.421 0-1.146-.838-2.598-1.838-3.169a1.415 1.415 0 00-.673-.216.652.652 0 00-.307.087z"/>
    <path fill="#FFF" d="M206.686 152.821c-.021 1.074.47 2.215.982 3.137.528.947 1.322 1.834 2.27 2.383 1.029.599 2.392.632 3.008-.573.541-1.058.134-2.556-.276-3.586-.53-1.324-1.473-2.589-2.729-3.313-.722-.416-1.801-.644-2.492-.065-.231.194-.398.45-.517.731-.171.403-.237.868-.246 1.286zm1.18.58c0-.637.216-1.096.567-1.318l.012-.01.069-.037c.209-.107.457-.145.732-.094a1.968 1.968 0 01.691.266c1.15.658 2.081 2.271 2.081 3.599a2.277 2.277 0 01-.114.717 1.162 1.162 0 01-.396.558.898.898 0 01-.219.127c-.363.151-.835.095-1.354-.203-1.141-.667-2.072-2.279-2.069-3.605z"/>
    <path fill="#0099F9" d="M209.688 158.774c-.974-.563-1.846-1.477-2.454-2.572-.724-1.301-1.066-2.41-1.047-3.391.013-.559.108-1.055.281-1.471.159-.379.378-.689.657-.924.74-.617 2.023-.586 3.063.018 1.256.723 2.328 2.021 2.944 3.563.461 1.154.878 2.787.259 3.998-.414.808-1.144 1.252-2.052 1.252-.539 0-1.125-.17-1.651-.473zm2.832-2.967a2.75 2.75 0 01-.14.881c-.12.336-.316.61-.563.787a1.444 1.444 0 01-.33.19c-.517.217-1.15.14-1.798-.231a3.925 3.925 0 01-.854-.677c.403.472.866.865 1.356 1.148.374.217.782.338 1.15.338.529 0 .92-.238 1.16-.709.295-.574.269-1.463-.07-2.539.056.275.089.547.089.812zm-3.819-3.302c-.215.135-.338.463-.338.898 0 1.145.837 2.596 1.822 3.166.358.204.696.266.912.176a.595.595 0 00.12-.07.652.652 0 00.214-.313c.018-.046.028-.091.04-.138.03-.131.047-.272.047-.421 0-1.146-.838-2.598-1.838-3.169a1.415 1.415 0 00-.673-.216.651.651 0 00-.306.087zm.546-1.061c.028 0 .08.004.107.01.278.049.563.158.831.32.313.176.608.414.878.691a5.379 5.379 0 00-1.376-1.168c-.678-.389-1.511-.457-1.92-.115-.151.129-.28.313-.378.543-.124.297-.194.68-.204 1.105-.011.479.101 1.021.327 1.625a4.022 4.022 0 01-.149-1.056c0-.795.284-1.413.804-1.743a1.566 1.566 0 01.84-.236c.105.001.217.01.24.024z"/>
    <path fill="#FFF" d="M215.083 154.44v-.018c-.31-1.705-1.424-3.518-2.799-4.486l-.928-.498c-.573-.215-1.092-.223-1.518-.055h-.005a1.617 1.617 0 00-.372.221l-1.396.805.213.031c.187-.018.382-.011.588.023.337.057.698.188 1.07.404 1.64.944 2.989 3.129 3.205 5.076a4.527 4.527 0 01.02.819s-.101.651-.164.823c-.136.377-.347.677-.614.873l1.621-.936.165-.092.084-.053c.455-.283.771-.814.873-1.551.012-.107.024-.222.027-.342.004-.061.004-.119.004-.181 0-.115-.004-.235-.015-.36a5.902 5.902 0 00-.065-.509h.004v.006z"/>
    <path fill="#0099F9" d="M211.968 158.737a.499.499 0 01.12-.676c.187-.139.339-.361.442-.646.03-.084.097-.443.135-.686.006-.084.01-.166.01-.256 0-.156-.009-.311-.027-.477-.202-1.82-1.475-3.84-2.962-4.697a2.648 2.648 0 00-.899-.344 1.697 1.697 0 00-.463-.021.563.563 0 01-.116-.004l-.211-.031a.499.499 0 01-.179-.926l1.331-.76a2.101 2.101 0 01.544-.311c.545-.201 1.13-.203 1.898.092l.979.53c1.463 1.031 2.669 2.964 3.003 4.826a5.83 5.83 0 01.089.959c0 .071 0 .142-.004.188a3.856 3.856 0 01-.033.399c-.118.858-.508 1.537-1.103 1.906l-.108.067-1.776 1.021a.482.482 0 01-.25.067.495.495 0 01-.42-.22zm-1.947-8.892c-.007.003-.015.005-.021.009a1.43 1.43 0 00-.288.18l-.162.096c.213.078.429.181.64.304 1.764 1.017 3.216 3.312 3.45 5.45.023.201.036.395.036.588 0 .115-.004.223-.017.367-.013.082-.032.207-.058.343l.306-.171.085-.053c.342-.215.563-.627.641-1.188.013-.091.021-.187.025-.312l.003-.147c0-.103-.004-.211-.013-.317a6.839 6.839 0 00-.062-.481c-.29-1.603-1.333-3.278-2.543-4.136l-.865-.471a1.988 1.988 0 00-.698-.14 1.244 1.244 0 00-.459.079z"/>
    <path fill="#FFF" d="M189.349 141.886l.027-.017a.498.498 0 01.322-.043c.1.014.199.053.305.117.503.288.912.995.912 1.575a.91.91 0 01-.049.313.494.494 0 01-.178.244.296.296 0 01-.094.057c-.156.066-.366.043-.594-.09-.506-.291-.914-.996-.914-1.576 0-.282.1-.483.254-.582l.009.002z"/>
    <path fill="#0099F9" d="M189.755 144.479c-.664-.381-1.165-1.244-1.165-2.01 0-.441.178-.809.485-1.004.025-.018.054-.029.082-.043.202-.102.488-.12.614-.088.166.024.331.086.479.178.663.381 1.163 1.244 1.163 2.01 0 .178-.028.348-.079.482-.074.203-.198.369-.308.441a.743.743 0 01-.234.147.966.966 0 01-.383.075 1.243 1.243 0 01-.654-.188zm-.166-2.01c0 .399.315.944.667 1.146a.352.352 0 00.155.059l-.013-.014a.497.497 0 00.017-.137c0-.398-.315-.943-.673-1.148a.31.31 0 00-.133-.051.436.436 0 00-.02.145z"/>
    <path fill="#FFF" d="M187.924 141.794c0 1.324.93 2.938 2.076 3.602.519.295.988.352 1.354.203.075-.031.148-.074.22-.128.17-.124.307-.317.395-.56a2.233 2.233 0 00.115-.717c0-1.324-.93-2.939-2.079-3.6a2.062 2.062 0 00-.671-.258c-.007-.006-.01-.006-.021-.006a1.13 1.13 0 00-.732.097l-.069.036-.012.009c-.354.224-.573.683-.576 1.322z"/>
    <path fill="#0099F9" d="M189.752 145.827c-1.306-.756-2.326-2.524-2.326-4.031 0-.795.285-1.416.78-1.729.021-.015.113-.065.138-.077a1.557 1.557 0 01.966-.154c.037 0 .078.006.12.017.275.052.554.157.821.313 1.308.748 2.33 2.519 2.33 4.031a2.743 2.743 0 01-.141.886 1.664 1.664 0 01-.563.787 1.35 1.35 0 01-.329.188 1.613 1.613 0 01-.611.117c-.381.002-.778-.116-1.185-.348zm-.989-4.932c-.213.135-.336.463-.336.898 0 1.145.837 2.594 1.824 3.166.248.143.484.217.684.217a.627.627 0 00.232-.043.486.486 0 00.113-.068.68.68 0 00.217-.32c.018-.043.027-.086.039-.131.029-.127.046-.27.046-.42 0-1.146-.837-2.596-1.831-3.166a1.559 1.559 0 00-.51-.197l-.024-.006a.618.618 0 00-.454.07z"/>
    <path fill="#FFF" d="M186.749 141.21c-.023 1.076.47 2.213.983 3.136.527.95 1.32 1.835 2.271 2.386 1.029.596 2.389.629 3.006-.574.541-1.059.134-2.559-.276-3.586-.53-1.322-1.474-2.592-2.729-3.314-.721-.418-1.804-.645-2.492-.065-.232.195-.4.451-.518.731-.171.405-.237.87-.245 1.286zm1.181.582c0-.639.219-1.096.568-1.318l.012-.01.069-.036a1.137 1.137 0 01.753-.091c.212.039.438.121.671.258 1.149.66 2.079 2.275 2.079 3.6a2.216 2.216 0 01-.115.717 1.181 1.181 0 01-.395.56 1.025 1.025 0 01-.22.127c-.365.149-.836.094-1.354-.203-1.144-.667-2.071-2.278-2.068-3.604z"/>
    <path fill="#0099F9" d="M189.753 147.165c-.978-.566-1.851-1.48-2.454-2.574-.729-1.303-1.069-2.41-1.049-3.389.007-.381.063-.945.283-1.474.155-.375.376-.687.655-.922.736-.621 2.022-.587 3.063.017 1.252.721 2.324 2.02 2.942 3.563.46 1.154.88 2.785.258 4-.413.807-1.143 1.249-2.052 1.249-.538 0-1.124-.167-1.646-.47zm2.828-2.969a2.743 2.743 0 01-.141.886 1.664 1.664 0 01-.563.787 1.35 1.35 0 01-.329.188c-.521.211-1.152.133-1.793-.231a4.075 4.075 0 01-.863-.685c.406.474.869.869 1.363 1.155.375.218.782.336 1.148.336h.001c.528 0 .921-.237 1.16-.705.295-.577.269-1.467-.069-2.542.056.276.087.545.086.811zm-3.818-3.301c-.213.135-.336.463-.336.898 0 1.145.837 2.594 1.824 3.166.355.201.689.268.916.174a.486.486 0 00.113-.068.696.696 0 00.219-.32c.016-.043.025-.086.037-.131.029-.127.046-.27.046-.42 0-1.146-.837-2.596-1.831-3.166a1.559 1.559 0 00-.51-.197l-.024-.006a.618.618 0 00-.454.07zm.546-1.064c.037 0 .078.006.12.016.275.051.554.158.821.314.307.176.599.41.866.683a5.294 5.294 0 00-1.365-1.155c-.674-.391-1.511-.461-1.92-.119a1.427 1.427 0 00-.379.545c-.158.383-.199.813-.205 1.107-.012.488.099 1.033.333 1.645a3.986 3.986 0 01-.155-1.072c0-.795.285-1.414.78-1.729a1.553 1.553 0 01.867-.252c.104-.001.211.007.237.017z"/>
    <g fill="#0099F9">
      <path d="M195.146 142.831v-.016c-.31-1.707-1.424-3.52-2.8-4.488l-.927-.5c-.572-.213-1.091-.219-1.518-.053h-.004a1.698 1.698 0 00-.373.221l-1.396.806.212.03c.188-.018.38-.012.589.025.337.053.697.186 1.072.402 1.637.943 2.986 3.128 3.204 5.074.021.182.031.358.031.531 0 .102-.004.196-.012.291 0 0-.102.653-.164.823-.136.375-.347.677-.614.873l1.622-.937.163-.092.083-.053c.459-.283.772-.814.874-1.549.013-.107.025-.225.027-.344.002-.062.002-.115.002-.176 0-.119-.002-.242-.01-.363a6.527 6.527 0 00-.067-.512h.004v.007z"/>
      <path d="M192.026 147.126a.497.497 0 01.124-.676c.187-.138.338-.359.441-.642.028-.084.096-.444.136-.694a4.363 4.363 0 00-.018-.726c-.204-1.824-1.476-3.845-2.958-4.697a2.648 2.648 0 00-.907-.344 1.712 1.712 0 00-.459-.021.546.546 0 01-.113-.004l-.212-.029a.5.5 0 01-.181-.927l1.335-.764a2.132 2.132 0 01.537-.307c.544-.202 1.131-.205 1.902.09l.979.531c1.462 1.029 2.669 2.961 3.003 4.824.033.186.056.371.074.563.01.133.012.269.012.399l-.002.185c-.002.14-.016.272-.032.401-.119.863-.512 1.541-1.102 1.902-.008.004-.1.063-.107.066l-1.78 1.023a.495.495 0 01-.248.065.491.491 0 01-.424-.218zm-1.941-8.889a1.692 1.692 0 00-.311.188l-.164.097c.215.078.429.181.644.304 1.76 1.014 3.211 3.307 3.451 5.453.022.198.034.395.034.588 0 .114-.005.225-.019.366-.013.08-.033.207-.057.343l.301-.17.09-.059c.342-.21.563-.622.642-1.188.011-.09.021-.188.022-.295l.002-.16c0-.106-.002-.217-.008-.316a6.865 6.865 0 00-.063-.484c-.289-1.605-1.333-3.281-2.544-4.138l-.863-.472a1.953 1.953 0 00-.696-.139c-.166 0-.322.027-.461.082z"/>
    </g>
    <path fill="#FFF" d="M172.004 132.052h.013l.024-.021a.477.477 0 01.321-.041.862.862 0 01.305.114c.503.293.913.996.913 1.576a.959.959 0 01-.05.315.507.507 0 01-.176.242.487.487 0 01-.095.059c-.157.064-.369.039-.595-.092-.505-.291-.912-.996-.912-1.576.002-.28.099-.477.252-.576z"/>
    <path fill="#0099F9" d="M172.416 134.641c-.662-.385-1.161-1.246-1.161-2.01 0-.445.169-.801.479-1 .019-.01.036-.02.056-.029.012-.008.022-.016.031-.02.204-.101.491-.115.616-.086a1.3 1.3 0 01.479.178c.662.385 1.162 1.248 1.162 2.01 0 .17-.027.336-.08.488a1.002 1.002 0 01-.545.588.972.972 0 01-.378.074 1.312 1.312 0 01-.659-.193zm-.139-2.166a.418.418 0 00-.023.156c0 .404.31.939.663 1.145a.457.457 0 00.143.057.45.45 0 00.021-.147c0-.397-.316-.942-.666-1.146-.049-.029-.094-.049-.103-.086a.203.203 0 01-.035.021z"/>
    <path fill="#FFF" d="M170.588 131.958c0 1.324.929 2.934 2.075 3.598.518.299.988.354 1.351.203.079-.031.152-.072.224-.124a1.21 1.21 0 00.395-.56 2.294 2.294 0 00.115-.72c0-1.323-.93-2.938-2.079-3.601a2.126 2.126 0 00-.671-.258c-.008-.004-.01-.004-.021-.004a1.123 1.123 0 00-.732.096l-.069.037-.013.009c-.356.226-.572.683-.575 1.324z"/>
    <path fill="#0099F9" d="M172.415 135.987c-1.305-.754-2.325-2.523-2.325-4.029 0-.793.283-1.412.818-1.756l.1-.055a1.561 1.561 0 01.965-.153c.035 0 .073.004.11.012.271.051.552.156.831.316 1.307.752 2.33 2.521 2.33 4.032a2.767 2.767 0 01-.14.89 1.704 1.704 0 01-.569.793 1.588 1.588 0 01-.94.301c-.379.001-.776-.118-1.18-.351zm-.527-5a.648.648 0 00-.458.07c-.215.137-.338.465-.338.9 0 1.143.836 2.592 1.825 3.164.354.205.663.276.917.172a.532.532 0 00.104-.06.713.713 0 00.228-.336c.014-.039.022-.077.034-.125.029-.127.046-.269.046-.418 0-1.146-.837-2.596-1.827-3.166a1.63 1.63 0 00-.515-.198c-.005.001-.01-.001-.016-.003z"/>
    <g>
      <path fill="#FFF" d="M169.412 131.376c-.024 1.074.47 2.213.983 3.137.527.947 1.32 1.834 2.27 2.383 1.027.596 2.388.629 3.006-.574.542-1.057.135-2.557-.275-3.588-.531-1.324-1.475-2.59-2.729-3.313-.723-.418-1.805-.646-2.494-.066a1.902 1.902 0 00-.517.73c-.17.408-.235.871-.244 1.291zm1.182.58c0-.642.217-1.097.567-1.321l.013-.009.069-.037a1.143 1.143 0 01.753-.092c.212.039.436.123.671.258 1.149.662 2.079 2.277 2.079 3.602 0 .197-.022.375-.061.533-.016.064-.031.125-.054.186a1.213 1.213 0 01-.394.56.94.94 0 01-.225.124c-.362.15-.833.097-1.351-.203-1.142-.666-2.07-2.275-2.067-3.601z"/>
      <path fill="#0099F9" d="M172.417 137.327c-.976-.563-1.848-1.477-2.454-2.572-.729-1.307-1.069-2.414-1.049-3.391.007-.379.062-.941.28-1.473a2.4 2.4 0 01.654-.922c.738-.619 2.025-.586 3.065.016 1.252.721 2.325 2.02 2.944 3.563.46 1.154.879 2.787.257 4-.413.808-1.144 1.25-2.052 1.25a3.368 3.368 0 01-1.645-.471zm2.827-2.971a2.753 2.753 0 01-.14.889 1.699 1.699 0 01-.569.793c-.108.078-.218.14-.324.182-.519.218-1.153.138-1.793-.23a4.015 4.015 0 01-.872-.693c.407.479.875.881 1.372 1.168.374.217.781.336 1.148.336.529 0 .921-.236 1.162-.706.297-.577.269-1.474-.075-2.556.061.274.092.55.091.817zm-3.356-3.369a.647.647 0 00-.458.07c-.215.137-.338.465-.338.9 0 1.143.836 2.592 1.825 3.164.354.205.663.276.917.172a.532.532 0 00.104-.06.713.713 0 00.228-.336c.014-.039.022-.077.034-.125.029-.127.046-.269.046-.418 0-1.146-.837-2.596-1.827-3.166a1.63 1.63 0 00-.515-.198c-.005.001-.01-.001-.016-.003zm.085-.992c.035 0 .073.004.11.014v-.002a2.7 2.7 0 01.831.316c.309.178.601.412.869.688a5.284 5.284 0 00-1.369-1.158c-.677-.392-1.507-.466-1.923-.114a1.4 1.4 0 00-.374.539c-.159.385-.199.814-.205 1.108-.012.489.099 1.032.332 1.646a4.05 4.05 0 01-.154-1.074c0-.793.283-1.412.818-1.756l.1-.055a1.561 1.561 0 01.965-.152z"/>
    </g>
    <g fill="#0099F9">
      <path d="M177.809 132.991v-.014c-.311-1.705-1.425-3.52-2.8-4.488l-.927-.498c-.574-.215-1.091-.223-1.517-.053h-.006a1.542 1.542 0 00-.371.219l-1.396.805.211.031c.188-.018.381-.012.588.023a3.2 3.2 0 011.073.406c1.638.943 2.986 3.129 3.204 5.072a4.608 4.608 0 01.019.819s-.103.654-.163.828c-.138.377-.348.672-.617.873l1.625-.937.161-.096.084-.049c.459-.285.772-.818.874-1.551.014-.109.022-.225.027-.342.003-.06.003-.119.003-.18a4.874 4.874 0 00-.079-.873h.005v.005z"/>
      <path d="M174.69 137.29a.497.497 0 01.119-.674c.192-.146.342-.363.443-.644.03-.086.098-.449.139-.701a3.957 3.957 0 00-.02-.724c-.202-1.821-1.474-3.842-2.956-4.694a2.74 2.74 0 00-.909-.349 1.658 1.658 0 00-.453-.018.68.68 0 01-.127-.004l-.211-.033a.497.497 0 01-.17-.926l1.33-.758a1.971 1.971 0 01.544-.312c.542-.203 1.126-.203 1.897.092l.979.529c1.462 1.029 2.67 2.963 3.003 4.824.034.189.059.379.071.561.012.135.016.271.016.402 0 .068 0 .137-.003.199a4.177 4.177 0 01-.033.391c-.117.859-.51 1.535-1.113 1.91-.001.002-.086.053-.088.055l-1.787 1.029a.5.5 0 01-.25.066.5.5 0 01-.421-.221zm-1.94-8.889c-.008.004-.019.006-.028.01a1.577 1.577 0 00-.283.18l-.164.095c.213.078.429.181.644.306 1.761 1.014 3.212 3.305 3.451 5.446.022.203.033.397.033.593 0 .114-.002.223-.017.364-.014.082-.033.209-.057.347l.388-.229c.344-.213.565-.625.643-1.188.012-.095.021-.197.024-.306l.002-.151c0-.105-.002-.218-.012-.326a5.519 5.519 0 00-.06-.478c-.291-1.604-1.334-3.278-2.545-4.136l-.864-.471a1.972 1.972 0 00-.698-.141 1.215 1.215 0 00-.457.085z"/>
    </g>
    <g>
      <path fill="#FFF" d="M163.674 127.104l.028-.018a.462.462 0 01.318-.043.86.86 0 01.308.117c.502.287.911.994.911 1.576a.977.977 0 01-.051.313.532.532 0 01-.175.246.387.387 0 01-.096.057c-.155.064-.366.041-.592-.093-.504-.288-.912-.995-.912-1.575 0-.281.098-.482.25-.58h.011z"/>
      <path fill="#0099F9" d="M164.08 129.694c-.664-.379-1.164-1.244-1.164-2.01 0-.441.174-.807.479-1.002a1.063 1.063 0 01.698-.133c.16.023.324.085.481.178.662.383 1.162 1.246 1.162 2.01 0 .17-.026.338-.08.483a.97.97 0 01-.313.448.806.806 0 01-.229.143.957.957 0 01-.382.075 1.3 1.3 0 01-.652-.192zm-.164-2.01c0 .4.313.943.667 1.146.07.041.128.057.152.057l-.018-.008a.422.422 0 00.021-.143c0-.398-.315-.943-.667-1.146a.4.4 0 00-.137-.055.51.51 0 00-.018.149z"/>
      <path fill="#FFF" d="M162.247 127.011c0 1.323.932 2.935 2.078 3.599.516.297.988.354 1.352.203.076-.031.151-.074.22-.125.172-.125.309-.32.396-.561a2.271 2.271 0 00.115-.717c0-1.324-.934-2.94-2.079-3.599a2 2 0 00-.673-.259c-.006-.006-.011-.006-.021-.006a1.123 1.123 0 00-.731.097l-.071.039-.01.006c-.356.225-.574.684-.576 1.323z"/>
      <path fill="#0099F9" d="M164.075 131.04c-1.306-.756-2.327-2.525-2.327-4.03 0-.798.285-1.416.803-1.743l.114-.063c.219-.117.464-.176.729-.176.104 0 .21.008.236.02.043 0 .088.007.133.02.271.051.543.158.812.313 1.307.75 2.33 2.521 2.33 4.031a2.792 2.792 0 01-.142.886c-.123.337-.32.611-.563.787a1.574 1.574 0 01-.945.309c-.377-.001-.775-.12-1.18-.354zm-.987-4.926c-.216.135-.339.463-.339.897 0 1.142.838 2.593 1.827 3.165.245.143.479.217.678.217a.631.631 0 00.241-.047.388.388 0 00.108-.064.658.658 0 00.214-.307c.016-.049.029-.096.042-.145.03-.133.048-.273.048-.42 0-1.146-.839-2.597-1.832-3.166a1.56 1.56 0 00-.509-.197c-.014-.002-.025-.006-.039-.01a.627.627 0 00-.439.077z"/>
      <g>
        <path fill="#FFF" d="M161.07 126.427c-.021 1.075.475 2.214.985 3.136.529.949 1.319 1.834 2.271 2.385 1.026.596 2.388.629 3.006-.574.543-1.059.135-2.559-.278-3.586-.531-1.324-1.476-2.592-2.728-3.315-.722-.417-1.805-.646-2.494-.065-.234.194-.397.45-.517.733-.169.405-.234.869-.245 1.286zm1.181.583c0-.64.217-1.097.57-1.321l.01-.006.071-.037a1.123 1.123 0 01.752-.092c.214.037.438.121.673.258 1.146.659 2.08 2.275 2.08 3.598a2.212 2.212 0 01-.116.719c-.087.24-.224.435-.396.56a.808.808 0 01-.22.125c-.363.151-.836.097-1.352-.2-1.142-.668-2.074-2.281-2.072-3.604z"/>
        <path fill="#0099F9" d="M164.078 132.382c-.976-.564-1.848-1.479-2.456-2.574-.726-1.305-1.068-2.412-1.049-3.391.014-.562.107-1.058.284-1.473.16-.384.381-.693.654-.925.739-.616 2.025-.586 3.065.019 1.252.725 2.322 2.022 2.94 3.563.463 1.154.884 2.785.26 4.002-.413.805-1.144 1.248-2.054 1.248-.536-.001-1.123-.167-1.644-.469zm2.828-2.971a2.792 2.792 0 01-.143.886c-.123.337-.32.611-.563.787a1.363 1.363 0 01-.329.188c-.517.219-1.154.141-1.794-.229a4.084 4.084 0 01-.861-.684c.405.475.869.871 1.362 1.156.373.217.78.334 1.147.334.53 0 .922-.236 1.162-.705.297-.578.271-1.465-.069-2.537.058.271.089.542.088.804zm-3.818-3.297c-.216.135-.339.463-.339.897 0 1.142.838 2.593 1.827 3.165.353.203.663.275.919.17a.388.388 0 00.108-.064.658.658 0 00.214-.307c.016-.049.029-.096.042-.145.03-.133.048-.273.048-.42 0-1.146-.839-2.597-1.832-3.166a1.56 1.56 0 00-.509-.197c-.014-.002-.025-.006-.039-.01a.627.627 0 00-.439.077zm.545-1.066c.043 0 .088.006.134.018.271.053.545.158.811.313.303.176.592.404.854.674a5.287 5.287 0 00-1.354-1.146c-.678-.389-1.512-.463-1.924-.115a1.42 1.42 0 00-.376.545c-.126.295-.196.679-.207 1.104-.01.482.1 1.021.328 1.627a3.98 3.98 0 01-.149-1.055c0-.797.285-1.416.803-1.742.014-.009.1-.057.114-.063a1.53 1.53 0 01.729-.178c.104-.002.209.008.237.018z"/>
      </g>
      <g fill="#0099F9">
        <path d="M169.468 128.046v-.016c-.305-1.707-1.422-3.52-2.799-4.488l-.925-.498c-.576-.213-1.092-.221-1.521-.053h-.002a1.651 1.651 0 00-.374.219l-1.396.805.215.031c.185-.016.38-.01.585.025.337.055.7.188 1.075.403 1.637.942 2.987 3.129 3.202 5.073.021.183.033.357.033.533 0 .101-.007.195-.012.289 0 0-.102.652-.164.824-.137.379-.347.676-.615.871l1.621-.936.163-.092.084-.054c.459-.28.774-.813.874-1.547a3.97 3.97 0 00.03-.344l.001-.177a3.14 3.14 0 00-.015-.362 4.312 4.312 0 00-.066-.513h.004v.007z"/>
        <path d="M166.351 132.343a.5.5 0 01.123-.678c.189-.14.339-.354.44-.635.028-.084.097-.449.136-.687.004-.084.011-.171.011-.263 0-.154-.01-.313-.03-.479-.201-1.822-1.472-3.842-2.953-4.695a2.721 2.721 0 00-.912-.346 1.564 1.564 0 00-.455-.021.473.473 0 01-.119-.004l-.215-.031a.495.495 0 01-.416-.4.496.496 0 01.24-.525l1.336-.764c.148-.117.314-.215.504-.293.553-.217 1.146-.227 1.938.078l.976.529c1.467 1.031 2.674 2.964 3.003 4.82.038.192.061.381.071.555.016.139.019.277.019.414l-.001.197c-.008.135-.018.27-.035.389-.117.863-.511 1.541-1.104 1.904-.007.004-.099.063-.106.065l-1.776 1.021a.48.48 0 01-.25.066.497.497 0 01-.425-.217zm-1.934-8.895a1.443 1.443 0 00-.318.193l-.165.096c.213.078.427.18.646.305 1.761 1.015 3.211 3.31 3.448 5.445.024.203.037.399.037.594 0 .109-.006.215-.018.365-.013.082-.033.207-.057.342l.302-.172c.002 0 .087-.055.088-.055.337-.207.564-.627.642-1.189.013-.092.021-.191.024-.291l.001-.16a4.49 4.49 0 00-.076-.805c-.286-1.602-1.329-3.277-2.543-4.135l-.861-.472a2.006 2.006 0 00-.699-.14c-.166.003-.322.03-.451.079z"/>
      </g>
    </g>
    <g>
      <path fill="#FFF" d="M207.554 149.085l12.834-7.43-48.718-28.123-12.821 7.398z"/>
      <path fill="#0099F9" d="M207.304 149.518l-48.705-28.154c-.153-.09-.25-.254-.25-.434s.097-.344.25-.434l12.821-7.398a.497.497 0 01.5 0l48.718 28.125a.499.499 0 01.001.866l-12.834 7.431a.492.492 0 01-.501-.002zM171.67 114.11l-11.821 6.822 47.705 27.576 11.835-6.852-47.719-27.546z"/>
    </g>
    <g>
      <path fill="#FFF" d="M207.554 135.6l12.834-7.429-48.718-28.125-12.821 7.4z"/>
      <path fill="#0099F9" d="M207.179 136.249l-48.705-28.154a.748.748 0 010-1.296l12.822-7.399a.74.74 0 01.75 0l48.717 28.125a.75.75 0 01.001 1.297l-12.833 7.43a.763.763 0 01-.377.101.765.765 0 01-.375-.104zm-35.509-35.336l-11.322 6.533 47.206 27.289 11.335-6.563-47.219-27.259z"/>
    </g>
    <g>
      <path fill="#FFF" d="M207.554 135.6v13.485l12.834-7.43v-13.484z"/>
      <path fill="#0099F9" d="M207.179 150.735c-.229-.133-.375-1.381-.375-1.648v-13.485c0-.267.144-.515.375-.647l12.833-7.431a.75.75 0 011.126.649v14.482a.75.75 0 01-.374.649l-12.833 7.431a.754.754 0 01-.377.102.777.777 0 01-.375-.102zm12.459-21.262l-11.334 6.561v11.75l11.334-6.561v-11.75z"/>
      <g>
        <path fill="#FFF" d="M158.849 107.446v13.484l48.705 28.155V135.6z"/>
        <path fill="#0099F9" d="M207.304 149.518l-49.205-28.154v-13.918c0-.178.347-.344.5-.432a.487.487 0 01.5 0l48.705 28.152a.5.5 0 01.25.434v13.484a.501.501 0 01-.75.434zm-47.955-41.205v12.33l47.705 27.575v-12.329l-47.705-27.576z"/>
      </g>
    </g>
    <g>
      <path fill="#FFF" d="M209.136 140.016v10.045s.542.021.747.055c.337.059.7.189 1.075.406 1.638.943 2.986 3.129 3.204 5.074.021.182.024.725.021.82 0 0-.009.271-.024.258a2.806 2.806 0 01-.14.566c-.04.112-.09.219-.141.313 0 0 2.76 1.586 3.925 2.265l12.813-7.431v-9.929l-.966-5.405-7.683-4.468-12.831 7.431z"/>
      <path fill="#0099F9" d="M217.552 160.251c-1.165-.678-3.924-2.262-3.924-2.262a.502.502 0 01-.188-.675 1.36 1.36 0 00.108-.248 2.23 2.23 0 00.115-.467.637.637 0 01.012-.06c.006-.059.009-.141.009-.146a8.074 8.074 0 00-.021-.744c-.201-1.823-1.475-3.844-2.956-4.698a2.771 2.771 0 00-.905-.345c-.188-.03-.688-.049-.688-.049a.5.5 0 01-.479-.5v-10.043c0-.181.096-.345.249-.435l12.833-7.43a.5.5 0 01.502 0l7.683 4.469a.49.49 0 01.241.346l.974 5.494v9.927c0 .18-.096.344-.249.435l-12.813 7.43c-.077.045-.164.065-.251.065s-.174-.019-.252-.064zm12.57-17.701l-.924-5.18-7.231-4.205-12.332 7.14v9.284c.128.01.252.02.331.033.412.069.83.229 1.241.465 1.761 1.016 3.212 3.309 3.45 5.449.024.221.028.793.023.897-.003.073-.007.19-.034.312l.004.002a3.306 3.306 0 01-.141.597c.733.421 2.336 1.343 3.291 1.896l12.313-7.139.009-9.551z"/>
    </g>
    <g>
      <path fill="#FFF" d="M230.613 152.387v-9.925l-.965-5.408-12.81 7.427.965 5.408v9.928z"/>
      <path fill="#0099F9" d="M217.553 160.253a.51.51 0 01-.25-.435l.01-9.84-.966-5.407a.5.5 0 01.24-.521l12.813-7.428a.498.498 0 01.742.343l.974 5.494v9.927c0 .18-.096.344-.249.435l-12.813 7.43a.495.495 0 01-.251.065.505.505 0 01-.25-.063zm12.569-17.705l-.84-4.702-11.893 6.894.911 5.15v9.061l11.813-6.85.009-9.553z"/>
    </g>
    <g>
      <path fill="#FFF" d="M221.968 132.587l7.68 4.467-12.81 7.427-7.703-4.465z"/>
      <path fill="#0099F9" d="M216.587 144.915l-7.703-4.467a.504.504 0 010-.868l12.833-7.43a.5.5 0 01.502 0l7.683 4.469c.153.09.249.256.249.435a.506.506 0 01-.249.433l-12.813 7.428c-.078.045-.164.065-.251.065s-.173-.02-.251-.065zm5.38-11.75l-11.835 6.852 6.706 3.887 11.814-6.85-6.685-3.889z"/>
    </g>
    <g>
      <path fill="none" d="M230.613 142.393l-12.81 7.43"/>
      <path fill="#0099F9" d="M217.37 150.075a.5.5 0 01.182-.684l12.813-7.432a.5.5 0 01.501.868l-12.813 7.43a.499.499 0 01-.683-.182z"/>
    </g>
    <g>
      <path fill="none" d="M227.69 150.708l-6.371 3.693"/>
      <path fill="#0099F9" d="M221.212 154.464a.128.128 0 01.046-.172l6.372-3.693a.123.123 0 01.17.047.123.123 0 01-.046.17l-6.371 3.694a.132.132 0 01-.063.017.128.128 0 01-.108-.063z"/>
      <path fill="none" d="M227.69 150.145l-6.371 3.694"/>
      <path fill="#0099F9" d="M221.212 153.901a.125.125 0 01.046-.17l6.372-3.695a.127.127 0 01.17.047.126.126 0 01-.046.172l-6.371 3.693a.123.123 0 01-.063.018.128.128 0 01-.108-.065z"/>
      <path fill="none" d="M227.69 149.585l-6.371 3.693"/>
      <path fill="#0099F9" d="M221.212 153.341a.128.128 0 01.046-.172l6.372-3.693a.123.123 0 01.17.047.123.123 0 01-.046.17l-6.371 3.694a.132.132 0 01-.063.017.128.128 0 01-.108-.063z"/>
      <path fill="none" d="M227.69 149.024l-6.371 3.692"/>
      <path fill="#0099F9" d="M221.212 152.778a.125.125 0 01.046-.17l6.372-3.693c.06-.031.135-.016.17.047a.123.123 0 01-.046.17l-6.371 3.693a.123.123 0 01-.063.018.128.128 0 01-.108-.065z"/>
      <path fill="none" d="M227.69 148.462l-6.371 3.695"/>
      <path fill="#0099F9" d="M221.212 152.219a.127.127 0 01.046-.171l6.372-3.693a.124.124 0 01.17.045.126.126 0 01-.046.172l-6.371 3.693a.123.123 0 01-.063.018.127.127 0 01-.108-.064z"/>
      <g>
        <path fill="none" d="M227.69 147.901l-6.371 3.693"/>
        <path fill="#0099F9" d="M221.212 151.657a.128.128 0 01.046-.172l6.372-3.693a.124.124 0 01.17.047.125.125 0 01-.046.171l-6.371 3.692a.125.125 0 01-.063.019.127.127 0 01-.108-.064z"/>
      </g>
      <g>
        <path fill="none" d="M227.69 147.339l-6.371 3.695"/>
        <path fill="#0099F9" d="M221.212 151.095a.127.127 0 01.046-.171l6.372-3.693a.124.124 0 01.17.045.126.126 0 01-.046.172l-6.371 3.693a.123.123 0 01-.063.018.125.125 0 01-.108-.064z"/>
      </g>
      <g>
        <path fill="none" d="M227.69 146.782l-6.371 3.691"/>
        <path fill="#0099F9" d="M221.212 150.534a.126.126 0 01.046-.17l6.372-3.691a.124.124 0 01.17.047.125.125 0 01-.046.171l-6.371 3.69a.125.125 0 01-.063.019.129.129 0 01-.108-.066z"/>
      </g>
      <g>
        <path fill="none" d="M227.69 146.219l-6.371 3.694"/>
        <path fill="#0099F9" d="M221.212 149.973a.126.126 0 01.046-.171l6.372-3.69c.06-.031.135-.016.17.045a.126.126 0 01-.046.172l-6.371 3.691a.146.146 0 01-.063.018.124.124 0 01-.108-.065z"/>
      </g>
    </g>
    <g>
      <path fill="#FFF" d="M230.023 148.913v1.603l.59-.343v-1.602z"/>
      <path fill="#0099F9" d="M229.773 150.95a.507.507 0 01-.25-.434v-1.604c0-.181.096-.344.249-.435l.591-.342a.504.504 0 01.5-.001c.154.091.25.255.25.436v1.602c0 .18-.095.344-.248.434l-.591.342a.498.498 0 01-.501.002z"/>
    </g>
    <g>
      <path fill="#FFF" d="M228.63 149.723v1.602l1.393-.809v-1.603z"/>
      <path fill="#0099F9" d="M228.382 151.76a.505.505 0 01-.252-.435v-1.603c0-.179.096-.345.249-.435l1.396-.811a.503.503 0 01.751.434v1.604a.502.502 0 01-.249.433l-1.395.811a.504.504 0 01-.5.002zm1.141-1.978l-.396.229v.446l.396-.229v-.446z"/>
    </g>
    <g>
      <path fill="#FFF" d="M209.136 140.016v10.043s.542.023.747.057c.337.057.7.188 1.075.404 1.638.943 2.986 3.129 3.204 5.075.021.181.024.726.021.821 0 0-.009.271-.024.258a2.84 2.84 0 01-.14.566c-.04.11-.09.219-.141.313 0 0 2.76 1.586 3.925 2.262v-9.928l-.965-5.408-7.702-4.463z"/>
      <path fill="#0099F9" d="M217.552 160.251c-1.165-.678-3.924-2.262-3.924-2.262a.502.502 0 01-.188-.675 1.36 1.36 0 00.108-.248 2.23 2.23 0 00.115-.467.637.637 0 01.012-.06c.006-.059.009-.141.009-.146a8.074 8.074 0 00-.021-.744c-.201-1.823-1.475-3.844-2.956-4.698a2.771 2.771 0 00-.905-.345c-.188-.03-.688-.049-.688-.049a.5.5 0 01-.479-.5v-10.043a.499.499 0 01.751-.435l7.703 4.467a.492.492 0 01.24.345l.974 5.496v9.928a.501.501 0 01-.751.436zm-7.916-19.366v8.704c.128.01.252.02.331.033.412.069.83.229 1.241.465 1.761 1.016 3.212 3.309 3.45 5.449.024.221.028.793.023.897-.003.073-.007.19-.034.312l.004.002a3.306 3.306 0 01-.141.597c.616.353 1.849 1.062 2.792 1.606l.009-8.974-.926-5.181-6.749-3.91z"/>
    </g>
    <path fill="#0099F9" d="M217.885 158.169l-3.498-2.045a.127.127 0 01-.045-.172c.036-.06.11-.076.173-.045l3.436 2.01 12.747-7.392c.061-.032.137-.016.172.046a.126.126 0 01-.047.172l-12.812 7.426a.123.123 0 01-.063.018.139.139 0 01-.063-.018z"/>
    <g>
      <path fill="#FFF" d="M212.681 142.073v4.777l5.122 2.973"/>
      <path fill="#0099F9" d="M217.552 150.257l-5.121-2.975a.503.503 0 01-.25-.433v-4.776a.5.5 0 011 0v4.487l4.873 2.83a.5.5 0 11-.502.867z"/>
    </g>
    <g>
      <path fill="#FFF" d="M218.983 156.911v-1.604l-.587.342v1.604z"/>
      <path fill="#0099F9" d="M218.146 157.686a.502.502 0 01-.25-.434v-1.604c0-.179.095-.342.248-.433l.59-.342a.503.503 0 01.501-.002c.153.09.25.256.25.435v1.604a.506.506 0 01-.249.433l-.59.343a.498.498 0 01-.5 0z"/>
    </g>
    <g>
      <path fill="#FFF" d="M220.38 156.1v-1.601l-1.397.808v1.604z"/>
      <path fill="#0099F9" d="M218.734 157.344a.505.505 0 01-.25-.434v-1.604c0-.179.096-.343.249-.433l1.396-.811a.502.502 0 01.5-.002c.154.09.25.256.25.436v1.603a.502.502 0 01-.249.435l-1.396.81a.487.487 0 01-.251.067.522.522 0 01-.249-.067zm1.146-1.978l-.396.229v.446l.396-.229v-.446z"/>
    </g>
    <g>
      <path fill="none" d="M212.476 148.608l1 .58"/>
      <path fill="#0099F9" d="M213.224 149.622l-1-.58a.502.502 0 01.504-.868l1 .58a.503.503 0 01.182.684.504.504 0 01-.686.184z"/>
    </g>
    <path fill="#0099F9" d="M197.432 143.235l-2.21 1.246-.133-2.601zM171.499 128.534l-2.21 1.248-.133-2.602z"/>
  </g>
</svg>
