<svg xmlns="http://www.w3.org/2000/svg" viewBox="0 0 152.818 102.02">
  <path fill="#E0E0E0" d="M110.64 12.896l16.431 9.488 17.084-9.824-16.58-9.524z"/>
  <path fill="#E0E0E0" d="M127.008 34.2V22.384l17.147-9.802v11.815-.026l-17.084 9.823z"/>
  <path fill="#FFF" d="M126.688 10.481l-16.638 9.521-83.707 48.444C15.085 75.537 8.495 81.808 4.763 86.205c-6.929 8.808-2.166 10.713-2.166 10.713 20.026 1.73 46.597-12.988 46.597-12.988l102.624-58.786-25.13-14.663z"/>
  <path fill="#0099F9" d="M5.989 98.059c-.001 0 .001 0 0 0-1.193 0-2.363-.049-3.479-.146a.99.99 0 01-.284-.068c-.159-.063-1.567-.674-2.063-2.52-.646-2.422.636-5.698 3.814-9.739C7.516 81.418 14.151 74.943 25.81 67.6l83.74-48.463 16.642-9.523a.998.998 0 011.001.005l25.13 14.662c.308.181.497.512.496.868a.998.998 0 01-.503.864L49.692 84.798c-.989.548-24.166 13.261-43.703 13.261zm-3.107-2.121c.998.08 2.042.121 3.107.121 19.026 0 42.486-12.874 42.723-13.004L149.82 25.137l-23.137-13.5-16.136 9.234-83.703 48.44C15.432 76.5 8.949 82.819 5.526 86.852c-3.564 4.533-3.689 6.899-3.444 7.903.174.712.6 1.057.8 1.183z"/>
  <g fill="#0099F9">
    <path d="M151.818 25.145v4.131l-4.076 10.457L45.119 98.518s-26.752 6.578-42.521-1.601C22.624 98.649 49.194 83.93 49.194 83.93l102.624-58.785"/>
    <path d="M23.449 102.02c-8.75 0-15.921-1.418-21.313-4.214a.995.995 0 01-.5-1.167.995.995 0 011.046-.717c1.059.091 2.171.138 3.307.138 19.026 0 42.486-12.874 42.723-13.004l102.609-58.778a.999.999 0 011.497.867v4.131a.979.979 0 01-.068.363l-4.076 10.457a.989.989 0 01-.435.504L45.616 99.386a1.04 1.04 0 01-.259.104c-.102.025-10.422 2.53-21.908 2.53zM7.981 98.017c4.327 1.331 9.506 2.003 15.468 2.003 10.533 0 20.066-2.151 21.298-2.44l102.191-58.54 3.88-9.953V26.87L49.692 84.798c-.956.53-22.624 12.415-41.711 13.219z"/>
  </g>
  <path fill="#FFF" d="M144.155 12.582v11.815-.026l-17.084 9.823-16.431-9.487v.006-11.817"/>
  <path fill="#0099F9" d="M127.071 35.194a.99.99 0 01-.5-.134l-16.336-9.433a1 1 0 01-.596-.915V12.896a1 1 0 112 0v11.233l15.433 8.911 16.083-9.248v-11.21a1 1 0 112 0v11.814a1 1 0 01-.698.954l-16.888 9.71a.985.985 0 01-.498.134z"/>
  <path fill="#FFF" d="M110.64 12.896l16.431 9.488 17.084-9.824-16.58-9.524z"/>
  <path fill="#0099F9" d="M127.071 23.384a.99.99 0 01-.5-.134l-16.432-9.488a1 1 0 01-.003-1.73l16.936-9.859a1 1 0 011.001-.003l16.58 9.522a1 1 0 010 1.734l-17.084 9.825a.994.994 0 01-.498.133zm-14.438-10.491l14.439 8.337 15.076-8.67-14.57-8.369-14.945 8.702z"/>
  <g fill="#0099F9">
    <path d="M138.009 2.247V10.563c.035 1.061-1.018 2.458-2.671 3.413-2.001 1.154-4.121 1.224-4.738.153l-.187-.429V5.755"/>
    <path d="M132.335 15.891c-1.166 0-2.118-.423-2.603-1.261a.868.868 0 01-.054-.105l-.185-.429a.995.995 0 01-.082-.395V5.755a1 1 0 012 0v7.739l.072.165c.274.35 1.688.408 3.353-.55 1.526-.882 2.188-2.001 2.171-2.514v-8.35a1 1 0 112 0v8.316c.05 1.445-1.195 3.139-3.171 4.279-1.214.704-2.444 1.051-3.501 1.051z"/>
  </g>
  <ellipse cx="134.219" cy="3.853" fill="#FFF" rx="2.236" ry="4.181" transform="rotate(-120.013 134.22 3.853)"/>
  <path fill="#0099F9" d="M132.321 7.7c-1.2 0-2.119-.447-2.589-1.259-.923-1.6.312-3.918 2.867-5.394C133.77.372 135.019 0 136.116 0c1.202 0 2.121.446 2.589 1.259.485.839.382 1.937-.284 3.01-.559.898-1.476 1.744-2.583 2.383-1.169.676-2.419 1.048-3.517 1.048zm3.795-5.7c-.741 0-1.658.284-2.517.779-1.708.986-2.354 2.284-2.137 2.663.075.127.369.259.857.259.74 0 1.658-.284 2.517-.78.815-.471 1.502-1.092 1.884-1.707.287-.463.334-.813.252-.955-.074-.13-.367-.259-.856-.259z"/>
  <path fill="#FFF" d="M125.03 28.536v-3.098l-12.371-7.142v3.097z"/>
  <path fill="#0099F9" d="M125.53 29.402l-13.371-7.72V17.43l13.371 7.72v4.252zm-12.371-8.298l11.371 6.565v-1.942l-11.371-6.564v1.941z"/>
  <path fill="#FFF" d="M141.916 21.183v-3.097l-12.812 7.357v3.096z"/>
  <path fill="#0099F9" d="M128.604 29.403v-4.25l13.813-7.931v4.25l-13.813 7.931zm1-3.671v1.943l11.813-6.782V18.95l-11.813 6.782z"/>
  <path fill="none" d="M127.008 22.384V34.2"/>
  <path fill="#0099F9" d="M127.008 35.2a1 1 0 01-1-1V22.384a1 1 0 112 0V34.2a1 1 0 01-1 1z"/>
  <g>
    <path fill="none" d="M45.072 86.517L23.71 74.053"/>
    <path fill="#0099F9" d="M44.826 86.945L23.467 74.48l.504-.864 21.36 12.464z"/>
  </g>
  <g>
    <path fill="#E0E0E0" d="M115.878 32.764l-10.889-6.287-6.806 3.929v7.827l10.849 6.263v.027l.04-.003 6.806-3.929v-7.814l-.02-.002z"/>
    <path fill="#0099F9" d="M109.07 45.02a.54.54 0 01-.356-.129l-10.78-6.224a.501.501 0 01-.25-.434v-7.827a.5.5 0 01.25-.433l6.807-3.93a.502.502 0 01.5 0l10.889 6.287a.5.5 0 01.25.434v7.826a.5.5 0 01-.25.433l-6.806 3.93a.49.49 0 01-.254.067zm-10.387-7.076l10.39 5.998 6.306-3.64v-7.25l-10.389-5.999-6.307 3.641v7.25z"/>
    <path fill="#0099F9" d="M109.072 37.191a.495.495 0 01-.25-.066l-10.89-6.285a.501.501 0 010-.867l6.807-3.93a.502.502 0 01.5 0l10.889 6.287a.5.5 0 010 .866l-6.806 3.929a.505.505 0 01-.25.066zm-9.889-6.785l9.89 5.708 5.806-3.351-9.889-5.71-5.807 3.353z"/>
    <path fill="none" d="M109.032 44.523v-7.832l6.846-3.914v7.831-.017l-6.806 3.929zM109.032 36.691v7.832"/>
    <path fill="#0099F9" d="M109.032 45.023a.5.5 0 01-.5-.5v-7.832a.5.5 0 011 0v7.832a.5.5 0 01-.5.5z"/>
    <path fill="#0099F9" d="M109.07 45.02a.54.54 0 01-.356-.129l-10.78-6.224a.501.501 0 01-.25-.434v-7.827a.5.5 0 01.25-.433l6.807-3.93a.502.502 0 01.5 0l10.889 6.287a.5.5 0 01.25.434v7.826a.5.5 0 01-.25.433l-6.806 3.93a.49.49 0 01-.254.067zm-10.387-7.076l10.39 5.998 6.306-3.64v-7.25l-10.389-5.999-6.307 3.641v7.25z"/>
  </g>
  <g>
    <path fill="#E0E0E0" d="M106.796 37.989l-10.889-6.287-6.804 3.929v7.827l10.847 6.263v.027l.041-.002 6.805-3.93v-7.814l-.02-.002z"/>
    <path fill="#0099F9" d="M99.991 50.246a.543.543 0 01-.357-.129l-10.78-6.226a.5.5 0 01-.25-.433v-7.827c0-.179.096-.344.25-.434l6.805-3.93a.502.502 0 01.5 0l10.889 6.288a.5.5 0 01.25.438V45.813c0 .18-.096.345-.25.434l-6.804 3.93a.494.494 0 01-.253.069zm-10.388-7.077l10.389 5.999 6.305-3.642v-7.25l-10.389-5.999-6.305 3.642v7.25z"/>
    <path fill="#0099F9" d="M99.991 42.418a.495.495 0 01-.249-.067l-10.89-6.287a.5.5 0 010-.867l6.805-3.93a.502.502 0 01.5 0l10.889 6.288a.5.5 0 010 .867l-6.804 3.929a.497.497 0 01-.251.067zm-9.888-6.787l9.889 5.709 5.805-3.353-9.889-5.71-5.805 3.354z"/>
    <path fill="none" d="M99.95 49.748v-7.83l6.846-3.916v7.831-.017l-6.805 3.93zM99.95 41.918v7.83"/>
    <path fill="#0099F9" d="M99.95 50.248a.5.5 0 01-.5-.5v-7.83a.5.5 0 011 0v7.83a.5.5 0 01-.5.5z"/>
    <path fill="#0099F9" d="M99.991 50.246a.543.543 0 01-.357-.129l-10.78-6.226a.5.5 0 01-.25-.433v-7.827c0-.179.096-.344.25-.434l6.805-3.93a.502.502 0 01.5 0l10.889 6.288a.5.5 0 01.25.438V45.813c0 .18-.096.345-.25.434l-6.804 3.93a.494.494 0 01-.253.069zm-10.388-7.077l10.389 5.999 6.305-3.642v-7.25l-10.389-5.999-6.305 3.642v7.25z"/>
  </g>
  <g>
    <path fill="#E0E0E0" d="M97.717 43.214l-10.89-6.287-6.806 3.929v7.828l10.847 6.262v.028l.042-.004 6.807-3.929v-7.813l-.021-.002z"/>
    <path fill="#0099F9" d="M90.908 55.47a.531.531 0 01-.354-.128l-.004-.002-10.778-6.223a.503.503 0 01-.25-.434v-7.827a.5.5 0 01.25-.433l6.807-3.93a.497.497 0 01.5 0l10.89 6.287a.501.501 0 01.25.439V51.039a.5.5 0 01-.25.433l-6.808 3.929a.49.49 0 01-.203.065c-.018.004-.033.004-.05.004zm-10.387-7.075l10.39 5.998 6.307-3.64v-7.25l-10.39-5.999-6.307 3.641v7.25z"/>
    <path fill="#0099F9" d="M90.91 47.644a.501.501 0 01-.251-.066L79.771 41.29a.501.501 0 010-.867l6.807-3.93a.497.497 0 01.5 0l10.89 6.287a.5.5 0 010 .867l-6.808 3.931a.508.508 0 01-.25.066zm-9.889-6.788l9.89 5.71 5.807-3.353-9.89-5.71-5.807 3.353z"/>
    <path fill="none" d="M90.868 54.974v-7.83l6.849-3.916v7.831-.018L90.91 54.97zM90.868 47.144v7.83"/>
    <path fill="#0099F9" d="M90.868 55.474a.5.5 0 01-.5-.5v-7.83a.5.5 0 011 0v7.83a.5.5 0 01-.5.5z"/>
    <path fill="#0099F9" d="M90.908 55.47a.531.531 0 01-.354-.128l-.004-.002-10.778-6.223a.503.503 0 01-.25-.434v-7.827a.5.5 0 01.25-.433l6.807-3.93a.497.497 0 01.5 0l10.89 6.287a.501.501 0 01.25.439V51.039a.5.5 0 01-.25.433l-6.808 3.929a.49.49 0 01-.203.065c-.018.004-.033.004-.05.004zm-10.387-7.075l10.39 5.998 6.307-3.64v-7.25l-10.39-5.999-6.307 3.641v7.25z"/>
  </g>
  <g>
    <path fill="#E0E0E0" d="M88.635 48.439l-10.89-6.287-6.807 3.93v7.827l10.848 6.262v.03l.041-.005 6.808-3.93v-7.811l-.021-.004z"/>
    <path fill="#0099F9" d="M81.825 60.696a.538.538 0 01-.361-.132l-10.776-6.222a.5.5 0 01-.25-.433v-7.827c0-.18.096-.345.25-.434l6.807-3.93a.502.502 0 01.5 0l10.89 6.288c.156.09.253.258.25.438v7.821a.5.5 0 01-.25.433l-6.807 3.931a.495.495 0 01-.253.067zM71.438 53.62l10.389 5.998 6.308-3.642v-7.25l-10.39-5.999-6.307 3.643v7.25z"/>
    <path fill="#0099F9" d="M81.827 52.869a.495.495 0 01-.249-.067l-10.89-6.287a.5.5 0 010-.867l6.807-3.93a.502.502 0 01.5 0l10.89 6.288a.5.5 0 010 .867l-6.807 3.929a.51.51 0 01-.251.067zm-9.889-6.787l9.889 5.709 5.808-3.353-9.89-5.71-5.807 3.354z"/>
    <path fill="none" d="M81.786 60.201v-7.832l6.849-3.914v7.829-.018l-6.808 3.93zM81.786 52.369v7.832"/>
    <path fill="#0099F9" d="M81.786 60.701a.5.5 0 01-.5-.5v-7.832a.5.5 0 111 0v7.832a.5.5 0 01-.5.5z"/>
    <path fill="#0099F9" d="M81.825 60.696a.538.538 0 01-.361-.132l-10.776-6.222a.5.5 0 01-.25-.433v-7.827c0-.18.096-.345.25-.434l6.807-3.93a.502.502 0 01.5 0l10.89 6.288c.156.09.253.258.25.438v7.821a.5.5 0 01-.25.433l-6.807 3.931a.495.495 0 01-.253.067zM71.438 53.62l10.389 5.998 6.308-3.642v-7.25l-10.39-5.999-6.307 3.643v7.25z"/>
  </g>
  <g>
    <path fill="#E0E0E0" d="M79.553 53.665l-10.89-6.286-6.807 3.928v7.826l10.848 6.264v.028l.041-.004 6.808-3.929V53.68l-.021-.004z"/>
    <path fill="#0099F9" d="M72.743 65.921a.533.533 0 01-.354-.128l-.003-.002-10.779-6.225a.5.5 0 01-.25-.433v-7.826a.5.5 0 01.25-.433l6.807-3.929a.502.502 0 01.5 0l10.891 6.285c.154.089.25.255.25.435V61.493a.503.503 0 01-.25.433l-6.809 3.93a.485.485 0 01-.203.065h-.05zm-10.387-7.076l10.389 5.999 6.309-3.641v-7.25l-10.391-5.997-6.307 3.639v7.25z"/>
    <path fill="#0099F9" d="M72.745 58.094a.499.499 0 01-.25-.067L61.606 51.74a.5.5 0 010-.866l6.807-3.929a.502.502 0 01.5 0l10.891 6.285a.503.503 0 010 .867l-6.809 3.93a.49.49 0 01-.25.067zm-9.889-6.787l9.889 5.71 5.809-3.353-9.891-5.708-5.807 3.351z"/>
    <path fill="none" d="M72.704 65.425v-7.831l6.849-3.914v7.828-.016l-6.808 3.929zM72.704 57.594v7.831"/>
    <path fill="#0099F9" d="M72.704 65.925a.5.5 0 01-.5-.5v-7.831a.5.5 0 011 0v7.831a.5.5 0 01-.5.5z"/>
    <path fill="#0099F9" d="M72.743 66.171a.804.804 0 01-.504-.177l-10.758-6.213a.749.749 0 01-.375-.648v-7.826c0-.268.143-.516.375-.648l6.807-3.929a.75.75 0 01.75 0l10.891 6.285c.23.134.376.382.375.651v7.827a.75.75 0 01-.375.648l-6.808 3.93a.744.744 0 01-.378.1zM62.606 58.7l10.139 5.854 6.059-3.497v-6.961l-10.141-5.853-6.057 3.494V58.7z"/>
  </g>
  <g>
    <path fill="#E0E0E0" d="M70.471 58.892l-10.89-6.288-6.807 3.931v7.826l10.85 6.263v.027l.039-.004 6.808-3.929v-7.813l-.02-.002z"/>
    <path fill="#0099F9" d="M63.662 71.147a.537.537 0 01-.354-.128l-.003-.002-10.781-6.223a.501.501 0 01-.25-.434v-7.825c0-.18.096-.345.25-.434l6.807-3.931a.502.502 0 01.5 0l10.891 6.288a.5.5 0 01.25.438V66.716a.503.503 0 01-.25.433l-6.809 3.93a.474.474 0 01-.201.063.207.207 0 01-.05.005zm-10.388-7.075l10.389 5.997 6.309-3.64V59.18l-10.391-6-6.307 3.642v7.25z"/>
    <path fill="#0099F9" d="M63.663 63.32a.5.5 0 01-.25-.066l-10.889-6.285a.5.5 0 010-.867l6.807-3.931a.502.502 0 01.5 0l10.891 6.288a.503.503 0 010 .867l-6.809 3.928a.51.51 0 01-.25.066zm-9.889-6.785l9.889 5.708 5.809-3.352-9.891-5.711-5.807 3.355z"/>
    <path fill="none" d="M63.624 70.651V62.82l6.847-3.915v7.831-.018l-6.808 3.929zM63.624 62.82v7.831"/>
    <path fill="#0099F9" d="M63.624 71.151a.5.5 0 01-.5-.5V62.82a.5.5 0 011 0v7.831a.5.5 0 01-.5.5z"/>
    <path fill="#0099F9" d="M63.662 71.397a.8.8 0 01-.503-.175l-10.76-6.211a.75.75 0 01-.375-.649v-7.825c0-.269.143-.517.375-.649l6.807-3.931a.745.745 0 01.75 0l10.89 6.288a.754.754 0 01.376.655v7.819a.749.749 0 01-.376.649l-6.807 3.929a.745.745 0 01-.377.1zm-10.138-7.469l10.139 5.853 6.059-3.495v-6.96L59.581 53.47l-6.057 3.498v6.96z"/>
  </g>
  <g>
    <path fill="#E0E0E0" d="M61.392 64.117L50.501 57.83l-6.807 3.929v7.827l10.848 6.263v.026l.043-.001 6.807-3.93V64.13l-.021-.002z"/>
    <path fill="#0099F9" d="M54.584 76.374a.548.548 0 01-.355-.128L43.445 70.02a.502.502 0 01-.251-.433V61.76c0-.179.097-.344.251-.433l6.806-3.931a.502.502 0 01.5 0l10.892 6.287c.153.089.25.255.25.435v7.826c0 .18-.097.345-.25.434l-6.808 3.93a.484.484 0 01-.228.066h-.023zm-10.39-7.076l10.391 5.999 6.308-3.642v-7.25l-10.392-5.999-6.307 3.642v7.25z"/>
    <path fill="#0099F9" d="M54.585 68.545a.493.493 0 01-.25-.067l-10.89-6.286c-.154-.089-.251-.254-.251-.433s.097-.344.251-.433l6.806-3.931a.502.502 0 01.5 0l10.892 6.287a.503.503 0 010 .867l-6.808 3.929a.496.496 0 01-.25.067zm-9.891-6.786l9.891 5.709 5.808-3.352-9.892-5.711-5.807 3.354z"/>
    <path fill="none" d="M54.542 75.875v-7.83l6.85-3.915v7.831-.017l-6.807 3.93zM54.542 68.045v7.83"/>
    <path fill="#0099F9" d="M54.542 76.375a.501.501 0 01-.5-.5v-7.83a.5.5 0 011 0v7.83a.5.5 0 01-.5.5z"/>
    <path fill="#0099F9" d="M54.584 76.374a.548.548 0 01-.355-.128L43.445 70.02a.502.502 0 01-.251-.433V61.76c0-.179.097-.344.251-.433l6.806-3.931a.502.502 0 01.5 0l10.892 6.287c.153.089.25.255.25.435v7.826c0 .18-.097.345-.25.434l-6.808 3.93a.484.484 0 01-.228.066h-.023zm-10.39-7.076l10.391 5.999 6.308-3.642v-7.25l-10.392-5.999-6.307 3.642v7.25z"/>
  </g>
  <g>
    <path fill="#E0E0E0" d="M52.31 69.342l-10.891-6.288-6.807 3.931v7.826l10.848 6.264v.027l.043-.003 6.807-3.931v-7.813l-.021-.002z"/>
    <path fill="#0099F9" d="M45.503 81.599a.542.542 0 01-.357-.129l-10.782-6.226a.506.506 0 01-.25-.434v-7.826c0-.179.097-.344.25-.433l6.807-3.931a.497.497 0 01.5 0l10.892 6.288a.503.503 0 01.25.438v7.819a.503.503 0 01-.25.433l-6.808 3.931a.486.486 0 01-.216.066c-.014.004-.026.004-.036.004zm-10.391-7.077l10.391 6 6.308-3.642v-7.249l-10.392-6-6.307 3.642v7.249z"/>
    <path fill="#0099F9" d="M45.503 73.772a.492.492 0 01-.25-.066l-10.891-6.287a.503.503 0 010-.867l6.807-3.931a.497.497 0 01.5 0l10.892 6.288c.153.089.25.254.25.433s-.097.344-.25.433l-6.808 3.931a.505.505 0 01-.25.066zm-9.891-6.787l9.891 5.71 5.808-3.353-9.892-5.711-5.807 3.354z"/>
    <path fill="none" d="M45.46 81.102v-7.83l6.85-3.917v7.832-.019l-6.807 3.931zM45.46 73.272v7.83"/>
    <path fill="#0099F9" d="M45.46 81.602a.5.5 0 01-.5-.5v-7.83a.5.5 0 011 0v7.83a.5.5 0 01-.5.5z"/>
    <path fill="#0099F9" d="M45.503 81.849a.802.802 0 01-.504-.175L34.238 75.46a.75.75 0 01-.376-.649v-7.826c0-.268.144-.516.376-.648l6.806-3.932a.75.75 0 01.75 0l10.892 6.288a.755.755 0 01.375.656v7.819a.747.747 0 01-.375.648l-6.808 3.932a.756.756 0 01-.323.099c-.018.002-.035.002-.052.002zm-10.141-7.471l10.141 5.854 6.058-3.498v-6.96L41.419 63.92l-6.057 3.498v6.96z"/>
  </g>
  <g>
    <path fill="#FFF" d="M135.088 8.518c-1.771 1.021-4.091.597-4.552-.201a.502.502 0 00-.867.501c.457.791 1.702 1.297 3.105 1.297.93 0 1.928-.222 2.812-.731.115-.066 2.108-1.227 3.422-2.316V5.711c-.578.663-2.364 1.907-3.92 2.807z"/>
  </g>
</svg>
