<svg xmlns="http://www.w3.org/2000/svg" viewBox="0 0 132.949 187.035">
  <path fill="#DFE0DE" d="M122.352 84.416l-13.433-7.754-15.69 8.992 13.431 7.756z"/>
  <path fill="#0099F9" d="M106.66 94.16a.725.725 0 01-.375-.102l-13.434-7.755a.75.75 0 01.002-1.299l15.689-8.992a.746.746 0 01.748.001l13.434 7.754a.75.75 0 01-.002 1.299l-15.689 8.995a.76.76 0 01-.373.099zm-11.93-8.504l11.931 6.889 14.187-8.131-11.93-6.887-14.188 8.129z"/>
  <path fill="#DFE0DE" d="M122.352 80.438l-13.433-7.754-15.69 8.993 13.431 7.756z"/>
  <path fill="#0099F9" d="M106.66 90.183a.733.733 0 01-.375-.101l-13.434-7.756a.75.75 0 01.002-1.299l15.689-8.993a.746.746 0 01.748.001l13.434 7.754a.75.75 0 01-.002 1.299l-15.689 8.995a.74.74 0 01-.373.1zm-11.93-8.504l11.931 6.889 14.187-8.132-11.93-6.887-14.188 8.13z"/>
  <path fill="#DFE0DE" d="M122.352 80.438l-15.692 8.995-13.431-7.756v3.977l13.431 7.756 15.692-8.994z"/>
  <path fill="#0099F9" d="M106.66 94.16a.725.725 0 01-.375-.102l-13.434-7.755a.753.753 0 01-.375-.649v-3.977a.75.75 0 011.125-.649l13.06 7.54 15.315-8.78a.75.75 0 011.123.65v3.978a.752.752 0 01-.377.65l-15.689 8.995a.76.76 0 01-.373.099zm-12.681-8.939l12.686 7.323 14.938-8.563v-2.248l-14.565 8.351a.746.746 0 01-.748-.001l-12.31-7.106v2.244z"/>
  <path fill="#0099F9" d="M106.66 93.91a.5.5 0 01-.5-.5v-3.977a.5.5 0 011 0v3.977c0 .276-.222.5-.5.5z"/>
  <path fill="#DFE0DE" d="M122.352 80.438l-13.433-7.754-15.69 8.993 13.431 7.756z"/>
  <path fill="#0099F9" d="M106.66 90.183a.733.733 0 01-.375-.101l-13.434-7.756a.75.75 0 01.002-1.299l15.689-8.993a.746.746 0 01.748.001l13.434 7.754a.75.75 0 01-.002 1.299l-15.689 8.995a.74.74 0 01-.373.1zm-11.93-8.504l11.931 6.889 14.187-8.132-11.93-6.887-14.188 8.13z"/>
  <path fill="#DFE0DE" d="M122.352 76.461l-13.433-7.753-15.69 8.993 13.431 7.756z"/>
  <path fill="#0099F9" d="M106.66 86.207a.733.733 0 01-.375-.101L92.854 78.35a.75.75 0 01.002-1.299l15.69-8.992a.746.746 0 01.748.001l13.433 7.753a.75.75 0 01-.002 1.299l-15.688 8.995a.776.776 0 01-.377.1zm-11.93-8.504l11.931 6.889 14.187-8.132-11.93-6.886-14.188 8.129z"/>
  <path fill="#DFE0DE" d="M122.352 76.461l-15.692 8.996-13.431-7.756v3.976l13.431 7.756 15.692-8.995z"/>
  <path fill="#0099F9" d="M106.66 90.183a.733.733 0 01-.375-.101l-13.434-7.756a.753.753 0 01-.375-.649V77.7a.75.75 0 011.125-.649l13.06 7.54 15.315-8.78a.75.75 0 011.123.65v3.977a.752.752 0 01-.377.65l-15.689 8.995a.74.74 0 01-.373.1zm-12.681-8.938l12.686 7.323 14.938-8.564v-2.247l-14.565 8.351a.746.746 0 01-.748-.001L93.979 79v2.245z"/>
  <path fill="#0099F9" d="M106.66 90.183a.751.751 0 01-.751-.75v-3.977a.751.751 0 011.5 0v3.977a.75.75 0 01-.749.75zM114.503 89.335a.75.75 0 01-.75-.75v-7.192l-13.054-7.537a.75.75 0 01.75-1.298l13.429 7.754a.753.753 0 01.375.649v7.625a.75.75 0 01-.75.749z"/>
  <path fill="#0099F9" d="M107.789 77.583a.5.5 0 01-.5-.5V11.928a.5.5 0 011 0v65.154a.501.501 0 01-.5.501z"/>
  <path fill="#FFF" d="M62.442 171.333l-22.694-13.104-26.518 15.199 22.7 13.107z"/>
  <path fill="#0099F9" d="M35.93 187.035a.492.492 0 01-.25-.066l-22.7-13.107a.503.503 0 01.001-.868l26.518-15.199a.5.5 0 01.499.001L62.692 170.9a.501.501 0 01-.001.868l-26.513 15.201a.506.506 0 01-.248.066zM14.233 173.43l21.697 12.527 25.509-14.626-21.692-12.524-25.514 14.623z"/>
  <path fill="#FFF" d="M62.442 169.271l-22.694-13.106-26.518 15.198 22.7 13.106z"/>
  <path fill="#0099F9" d="M35.93 184.969a.495.495 0 01-.25-.068l-22.7-13.104a.501.501 0 01.001-.868l26.518-15.199a.5.5 0 01.499 0l22.694 13.105a.501.501 0 01-.001.87L36.178 184.9a.488.488 0 01-.248.069zm-21.697-13.604L35.93 183.89l25.509-14.621-21.692-12.527-25.514 14.623z"/>
  <path fill="#FFF" d="M62.442 169.271L35.93 184.469l-22.7-13.106v2.065l22.7 13.107 26.512-15.202z"/>
  <path fill="#0099F9" d="M35.93 187.035a.492.492 0 01-.25-.066l-22.7-13.107a.5.5 0 01-.25-.434v-2.064c0-.178.095-.344.25-.432a.492.492 0 01.5 0l22.45 12.959 26.262-15.054a.5.5 0 01.75.435v2.063a.5.5 0 01-.251.435l-26.513 15.201a.526.526 0 01-.248.064zm-22.2-13.896l22.2 12.818 26.012-14.914v-.908l-25.764 14.768a.493.493 0 01-.499-.002L13.73 172.23v.909z"/>
  <path fill="#0099F9" d="M35.93 187.035a.5.5 0 01-.5-.5v-2.066a.5.5 0 011 0v2.066a.5.5 0 01-.5.5zM31.901 171.848a.5.5 0 01-.5-.5V57.353a.5.5 0 011 0v113.995a.5.5 0 01-.5.5zM41.873 172.018a.5.5 0 01-.5-.5V57.523a.5.5 0 011 0v113.995a.5.5 0 01-.5.5zM36.866 174.955a.5.5 0 01-.5-.5V60.458a.5.5 0 011 0v113.996a.5.5 0 01-.5.501z"/>
  <path fill="#0099F9" d="M36.866 174.955a.492.492 0 01-.266-.076l-4.965-3.105a.5.5 0 11.531-.844l4.965 3.104a.5.5 0 01.158.689.5.5 0 01-.423.232z"/>
  <path fill="#0099F9" d="M36.907 174.955a.5.5 0 01-.266-.923l4.966-3.104a.5.5 0 01.531.845l-4.966 3.104a.486.486 0 01-.265.078zM31.901 171.848a.498.498 0 01-.266-.922l4.965-3.105a.5.5 0 01.531.846l-4.965 3.104a.485.485 0 01-.265.077z"/>
  <path fill="#0099F9" d="M41.873 171.848a.468.468 0 01-.265-.076l-4.965-3.104a.498.498 0 11.528-.846l4.966 3.104a.499.499 0 01-.264.922zM36.866 165.572a.5.5 0 01-.266-.076l-4.965-3.105a.5.5 0 11.531-.846l4.965 3.104a.5.5 0 01-.265.923z"/>
  <path fill="#0099F9" d="M36.907 165.572a.5.5 0 01-.264-.923l4.965-3.104a.5.5 0 01.529.847l-4.966 3.104a.496.496 0 01-.264.076zM31.901 162.466a.5.5 0 01-.266-.921l4.965-3.104a.5.5 0 01.531.846l-4.965 3.104a.51.51 0 01-.265.075z"/>
  <path fill="#0099F9" d="M41.873 162.466a.5.5 0 01-.265-.075l-4.965-3.104a.498.498 0 01-.16-.688.497.497 0 01.688-.16l4.966 3.104a.499.499 0 01-.264.923zM35.804 169.408a.5.5 0 01-.417-.225l-3.902-5.896a.498.498 0 01.141-.691.498.498 0 01.693.141l3.902 5.896a.5.5 0 01-.417.775z"/>
  <path fill="#0099F9" d="M37.972 169.408a.502.502 0 01-.417-.776l3.901-5.896a.5.5 0 01.834.549l-3.901 5.896a.495.495 0 01-.417.227zM36.866 156.202a.5.5 0 01-.266-.076l-4.965-3.104a.5.5 0 11.531-.846l4.965 3.104a.5.5 0 01-.265.922z"/>
  <path fill="#0099F9" d="M36.907 156.202a.498.498 0 01-.264-.923l4.965-3.105a.5.5 0 11.529.847l-4.966 3.104a.48.48 0 01-.264.077zM31.901 153.096a.498.498 0 01-.265-.922l4.965-3.104a.499.499 0 11.529.848l-4.965 3.104a.502.502 0 01-.264.074z"/>
  <path fill="#0099F9" d="M41.873 153.096a.484.484 0 01-.265-.076l-4.965-3.104a.498.498 0 01-.16-.688.497.497 0 01.688-.16l4.966 3.104a.499.499 0 01-.264.924zM35.804 160.039a.498.498 0 01-.417-.225l-3.902-5.9a.498.498 0 01.142-.691.497.497 0 01.692.141l3.902 5.9a.499.499 0 01-.417.775z"/>
  <path fill="#0099F9" d="M37.972 160.039a.5.5 0 01-.417-.775l3.901-5.9a.499.499 0 01.834.55l-3.901 5.9a.5.5 0 01-.417.225zM31.901 160.915a.498.498 0 01-.404-.794l3.902-5.376a.5.5 0 11.808.588l-3.902 5.376a.495.495 0 01-.404.206z"/>
  <path fill="#0099F9" d="M41.873 160.915a.496.496 0 01-.404-.206l-3.901-5.376a.5.5 0 01.808-.588l3.9 5.376a.498.498 0 01-.403.794zM31.901 170.521a.483.483 0 01-.294-.098.496.496 0 01-.11-.695l3.902-5.379a.499.499 0 01.808.588l-3.902 5.379a.494.494 0 01-.404.205zM41.873 170.521a.495.495 0 01-.404-.205l-3.901-5.379a.5.5 0 11.808-.588l3.9 5.379a.495.495 0 01-.109.695.486.486 0 01-.294.098zM36.866 146.523a.5.5 0 01-.266-.076l-4.965-3.105a.5.5 0 01-.158-.689.501.501 0 01.689-.155l4.965 3.104a.5.5 0 01-.265.921z"/>
  <path fill="#0099F9" d="M36.907 146.523a.5.5 0 01-.264-.923l4.965-3.104a.5.5 0 11.529.847l-4.966 3.104a.487.487 0 01-.264.076zM31.901 143.417a.5.5 0 01-.265-.923l4.965-3.104a.5.5 0 01.688.156.5.5 0 01-.159.688l-4.965 3.104a.466.466 0 01-.264.079z"/>
  <path fill="#0099F9" d="M41.873 143.417a.493.493 0 01-.265-.076l-4.965-3.104a.498.498 0 11.528-.846l4.966 3.104a.499.499 0 01-.264.922zM35.804 150.359a.498.498 0 01-.417-.227l-3.902-5.896a.499.499 0 11.834-.55l3.902 5.898a.498.498 0 01-.142.691.483.483 0 01-.275.084z"/>
  <path fill="#0099F9" d="M37.972 150.359a.499.499 0 01-.417-.775l3.901-5.898a.5.5 0 01.834.55l-3.901 5.898a.5.5 0 01-.417.225zM36.866 137.154a.5.5 0 01-.266-.076l-4.965-3.105a.5.5 0 11.531-.846l4.965 3.104a.5.5 0 01-.265.923z"/>
  <path fill="#0099F9" d="M36.907 137.154a.5.5 0 01-.264-.923l4.965-3.104a.498.498 0 11.529.847l-4.966 3.104a.496.496 0 01-.264.076zM31.901 134.048a.5.5 0 01-.266-.921l4.965-3.104a.5.5 0 01.531.846l-4.965 3.104a.51.51 0 01-.265.075z"/>
  <path fill="#0099F9" d="M41.873 134.048a.5.5 0 01-.265-.075l-4.965-3.104a.498.498 0 11.528-.848l4.966 3.104a.499.499 0 01-.264.923zM35.804 140.99a.498.498 0 01-.417-.225l-3.902-5.898a.499.499 0 11.834-.55l3.902 5.898a.498.498 0 01-.142.691.49.49 0 01-.275.084z"/>
  <path fill="#0099F9" d="M37.972 140.99a.499.499 0 01-.417-.775l3.901-5.898a.499.499 0 01.834.55l-3.901 5.898a.498.498 0 01-.417.225zM31.901 141.865a.5.5 0 01-.404-.795l3.902-5.377a.5.5 0 11.808.588l-3.902 5.378a.498.498 0 01-.404.206z"/>
  <path fill="#0099F9" d="M41.873 141.865a.496.496 0 01-.404-.206l-3.901-5.378a.5.5 0 01.808-.588l3.9 5.377a.5.5 0 01-.403.795zM31.901 151.473a.498.498 0 01-.404-.793l3.902-5.379a.498.498 0 01.698-.109.498.498 0 01.11.697l-3.902 5.379a.497.497 0 01-.404.205zM41.873 151.473a.495.495 0 01-.404-.205l-3.901-5.379a.5.5 0 01.808-.588l3.9 5.379a.498.498 0 01-.403.793zM36.866 127.475a.476.476 0 01-.266-.076l-4.965-3.104a.5.5 0 11.531-.846l4.965 3.105a.498.498 0 01-.265.921z"/>
  <path fill="#0099F9" d="M36.907 127.475a.497.497 0 01-.264-.922l4.965-3.105a.5.5 0 11.529.846l-4.966 3.104a.48.48 0 01-.264.077zM31.901 124.37a.5.5 0 01-.265-.923l4.965-3.104a.5.5 0 01.688.156.5.5 0 01-.159.688l-4.965 3.104a.466.466 0 01-.264.079z"/>
  <path fill="#0099F9" d="M41.873 124.37a.493.493 0 01-.265-.076l-4.965-3.104a.498.498 0 11.528-.846l4.966 3.104a.5.5 0 01-.264.922zM35.804 131.311a.496.496 0 01-.417-.225l-3.902-5.898a.496.496 0 01.142-.69.496.496 0 01.692.144l3.902 5.897a.496.496 0 01-.417.772z"/>
  <path fill="#0099F9" d="M37.972 131.311a.498.498 0 01-.417-.772l3.901-5.897a.499.499 0 11.834.546l-3.901 5.898a.498.498 0 01-.417.225zM36.866 118.104a.484.484 0 01-.266-.076l-4.965-3.104a.499.499 0 11.531-.845l4.965 3.104a.5.5 0 01-.265.921z"/>
  <path fill="#0099F9" d="M36.907 118.104a.5.5 0 01-.264-.921l4.965-3.104a.5.5 0 01.529.846l-4.966 3.104a.503.503 0 01-.264.075zM31.901 114.998a.499.499 0 01-.265-.922l4.965-3.104a.5.5 0 11.529.845l-4.965 3.104a.488.488 0 01-.264.077z"/>
  <path fill="#0099F9" d="M41.873 114.998a.484.484 0 01-.265-.076l-4.965-3.104a.498.498 0 11.528-.845l4.966 3.104a.498.498 0 01-.264.921zM35.804 121.939a.499.499 0 01-.417-.227l-3.902-5.896a.498.498 0 11.834-.548l3.902 5.896a.497.497 0 01-.141.69.482.482 0 01-.276.085z"/>
  <path fill="#0099F9" d="M37.972 121.939a.5.5 0 01-.417-.776l3.901-5.896a.498.498 0 11.834.546l-3.901 5.896a.494.494 0 01-.417.23zM31.901 122.816a.498.498 0 01-.404-.793l3.902-5.379a.497.497 0 01.698-.11.5.5 0 01.11.698l-3.902 5.379a.494.494 0 01-.404.205z"/>
  <path fill="#0099F9" d="M41.873 122.816a.495.495 0 01-.404-.205l-3.901-5.379a.5.5 0 11.808-.588l3.9 5.379a.498.498 0 01-.403.793zM31.901 132.425a.5.5 0 01-.404-.794l3.902-5.378a.5.5 0 11.808.588l-3.902 5.378a.495.495 0 01-.404.206zM41.873 132.425a.496.496 0 01-.404-.206l-3.901-5.378a.5.5 0 01.808-.588l3.9 5.378a.499.499 0 01-.403.794zM36.866 108.428a.51.51 0 01-.266-.076l-4.965-3.104a.5.5 0 11.531-.846l4.965 3.104a.5.5 0 01-.265.922z"/>
  <path fill="#0099F9" d="M36.907 108.428a.499.499 0 01-.264-.924l4.965-3.105a.499.499 0 11.529.848l-4.966 3.104a.497.497 0 01-.264.077zM31.901 105.322a.501.501 0 01-.266-.923l4.965-3.104a.5.5 0 01.531.846l-4.965 3.105a.501.501 0 01-.265.076z"/>
  <path fill="#0099F9" d="M41.873 105.322a.493.493 0 01-.265-.076l-4.965-3.105a.498.498 0 11.528-.847l4.966 3.104a.499.499 0 01-.264.924zM35.804 112.262a.496.496 0 01-.417-.225l-3.902-5.898a.5.5 0 01.142-.693.498.498 0 01.692.145l3.902 5.896a.5.5 0 01-.417.775zM37.972 112.262a.501.501 0 01-.417-.775l3.901-5.896a.502.502 0 01.692-.145c.23.152.294.466.142.693l-3.901 5.898a.496.496 0 01-.417.225zM36.866 99.055a.51.51 0 01-.266-.076l-4.965-3.104a.5.5 0 11.531-.846l4.965 3.104a.5.5 0 01-.265.922z"/>
  <path fill="#0099F9" d="M36.907 99.055a.499.499 0 01-.264-.924l4.965-3.105a.5.5 0 01.529.848l-4.966 3.104a.497.497 0 01-.264.077zM31.901 95.949a.5.5 0 01-.265-.923l4.965-3.104a.498.498 0 11.529.847l-4.965 3.104a.496.496 0 01-.264.076z"/>
  <path fill="#0099F9" d="M41.873 95.949a.493.493 0 01-.265-.076l-4.965-3.104a.498.498 0 11.528-.847l4.966 3.104a.499.499 0 01-.264.923zM35.804 102.891a.502.502 0 01-.417-.225l-3.902-5.896a.498.498 0 11.834-.548l3.902 5.895a.5.5 0 01-.141.693.526.526 0 01-.276.081zM37.972 102.891a.499.499 0 01-.417-.775l3.901-5.895a.5.5 0 01.834.546l-3.901 5.896a.496.496 0 01-.417.228z"/>
  <path fill="#0099F9" d="M31.901 103.768a.498.498 0 01-.404-.793l3.902-5.379a.5.5 0 11.808.588l-3.902 5.379a.497.497 0 01-.404.205zM41.873 103.768a.495.495 0 01-.404-.205l-3.901-5.379a.502.502 0 01.109-.699.506.506 0 01.699.111l3.9 5.379a.498.498 0 01-.403.793zM31.901 113.377a.5.5 0 01-.404-.794l3.902-5.379a.5.5 0 11.808.588l-3.902 5.379a.492.492 0 01-.404.206zM41.873 113.377a.494.494 0 01-.404-.206l-3.901-5.379a.5.5 0 01.808-.588l3.9 5.379a.499.499 0 01-.403.794zM36.866 89.376a.5.5 0 01-.266-.076l-4.965-3.105a.5.5 0 01.531-.847l4.965 3.105a.5.5 0 01-.265.923z"/>
  <path fill="#0099F9" d="M36.907 89.376a.498.498 0 01-.264-.923l4.965-3.105a.5.5 0 11.529.847L37.172 89.3a.493.493 0 01-.265.076zM31.901 86.271a.5.5 0 01-.265-.923l4.965-3.104a.498.498 0 11.529.847l-4.965 3.104a.487.487 0 01-.264.076z"/>
  <path fill="#0099F9" d="M41.873 86.271a.493.493 0 01-.265-.076l-4.965-3.104a.498.498 0 11.528-.847l4.966 3.104a.499.499 0 01-.264.923zM35.804 93.21a.5.5 0 01-.417-.224l-3.902-5.896a.5.5 0 01.834-.552l3.902 5.896a.5.5 0 01-.417.776z"/>
  <path fill="#0099F9" d="M37.972 93.21a.502.502 0 01-.417-.776l3.901-5.896a.5.5 0 11.834.552l-3.901 5.896a.5.5 0 01-.417.224zM36.866 80.007a.5.5 0 01-.266-.076l-4.965-3.106a.5.5 0 01.531-.847l4.965 3.106a.5.5 0 01-.265.923z"/>
  <path fill="#0099F9" d="M36.907 80.007a.5.5 0 01-.266-.923l4.966-3.106a.5.5 0 01.531.847l-4.966 3.106a.493.493 0 01-.265.076zM31.901 76.901a.5.5 0 01-.266-.923l4.965-3.105a.5.5 0 01.531.847l-4.965 3.105a.501.501 0 01-.265.076z"/>
  <path fill="#0099F9" d="M41.873 76.901a.493.493 0 01-.265-.076l-4.965-3.105a.498.498 0 11.528-.847l4.966 3.105a.499.499 0 01-.264.923zM35.804 83.842a.498.498 0 01-.417-.225l-3.902-5.9a.499.499 0 11.834-.55l3.902 5.9a.499.499 0 01-.417.775z"/>
  <path fill="#0099F9" d="M37.972 83.842a.5.5 0 01-.417-.775l3.901-5.9a.5.5 0 01.834.55l-3.901 5.9a.498.498 0 01-.417.225zM31.901 84.719a.5.5 0 01-.404-.794l3.902-5.377a.5.5 0 11.808.588l-3.902 5.377a.495.495 0 01-.404.206z"/>
  <path fill="#0099F9" d="M41.873 84.719a.496.496 0 01-.404-.206l-3.901-5.377a.5.5 0 01.808-.588l3.9 5.377a.499.499 0 01-.403.794zM31.901 94.327a.498.498 0 01-.404-.794l3.902-5.376a.5.5 0 11.808.588l-3.902 5.376a.498.498 0 01-.404.206zM41.873 94.327a.496.496 0 01-.404-.206l-3.901-5.376a.5.5 0 01.808-.588l3.9 5.376a.498.498 0 01-.403.794zM36.866 70.328a.5.5 0 01-.266-.076l-4.965-3.105a.5.5 0 01.531-.847l4.965 3.105a.5.5 0 01-.265.923z"/>
  <path fill="#0099F9" d="M36.907 70.328a.498.498 0 01-.264-.923l4.965-3.105a.5.5 0 11.529.847l-4.966 3.105a.496.496 0 01-.264.076zM31.901 67.222a.5.5 0 01-.266-.923l4.965-3.105a.5.5 0 01.531.847l-4.965 3.105a.493.493 0 01-.265.076z"/>
  <path fill="#0099F9" d="M41.873 67.222a.493.493 0 01-.265-.076l-4.965-3.105a.498.498 0 11.528-.847l4.966 3.105a.499.499 0 01-.264.923zM35.804 74.164a.5.5 0 01-.417-.224l-3.902-5.899a.499.499 0 11.834-.551l3.902 5.899a.499.499 0 01-.417.775z"/>
  <path fill="#0099F9" d="M37.972 74.164a.5.5 0 01-.417-.775l3.901-5.898a.5.5 0 01.834.55l-3.901 5.898a.5.5 0 01-.417.225zM36.866 60.958a.5.5 0 01-.266-.076l-4.965-3.105a.5.5 0 01.531-.847l4.965 3.105a.5.5 0 01-.265.923z"/>
  <path fill="#0099F9" d="M36.907 60.958a.498.498 0 01-.264-.923l4.965-3.105a.5.5 0 11.529.847l-4.966 3.105a.487.487 0 01-.264.076z"/>
  <path fill="#0099F9" d="M41.873 57.853a.498.498 0 01-.266-.076l-4.966-3.106a.5.5 0 01.531-.847l4.966 3.106a.5.5 0 01-.265.923zM35.804 64.793a.498.498 0 01-.417-.225l-3.902-5.899a.499.499 0 11.834-.55l3.902 5.899a.499.499 0 01-.417.775z"/>
  <path fill="#0099F9" d="M37.972 64.793a.5.5 0 01-.417-.775l3.901-5.899a.5.5 0 01.834.55l-3.901 5.899a.498.498 0 01-.417.225zM31.901 65.668a.5.5 0 01-.404-.794l3.902-5.375a.5.5 0 11.808.588l-3.902 5.375a.495.495 0 01-.404.206z"/>
  <path fill="#0099F9" d="M41.873 65.668a.496.496 0 01-.404-.206l-3.901-5.375a.5.5 0 01.808-.588l3.9 5.375a.499.499 0 01-.403.794zM31.901 75.278a.5.5 0 01-.404-.794l3.902-5.376a.5.5 0 01.808.588l-3.902 5.376a.495.495 0 01-.404.206zM41.873 75.278a.496.496 0 01-.404-.206l-3.901-5.376a.5.5 0 01.808-.588l3.9 5.376a.499.499 0 01-.403.794zM5.993 72.84a.498.498 0 01-.264-.075L.236 69.354a.5.5 0 01.014-.859L107.363 6.802a.5.5 0 11.5.868L1.474 68.946l4.529 2.812L113.32 9.923a.503.503 0 01.685.184.499.499 0 01-.185.684L6.243 72.774a.508.508 0 01-.25.066z"/>
  <path fill="#0099F9" d="M43.644 50.98a.503.503 0 01-.25-.066l-5.528-3.184a.5.5 0 01-.175-.697l5.527-8.953a.5.5 0 01.927.262V50.48a.5.5 0 01-.501.5zm-4.832-3.859l4.332 2.494v-9.51l-4.332 7.016zM54.334 44.799a.502.502 0 01-.249-.066l-5.527-3.181a.498.498 0 01-.235-.313.498.498 0 01.059-.386l5.527-8.953a.501.501 0 01.926.262v12.134a.499.499 0 01-.25.433.474.474 0 01-.251.07zm-4.831-3.856l4.331 2.492v-9.508l-4.331 7.016zM65.024 38.624a.508.508 0 01-.25-.066l-5.526-3.184a.5.5 0 01-.175-.697l5.526-8.953a.501.501 0 01.926.262v12.137a.499.499 0 01-.501.501zm-4.83-3.86l4.33 2.494v-9.51l-4.33 7.016zM75.715 32.448a.495.495 0 01-.25-.066l-5.525-3.185a.497.497 0 01-.232-.312.484.484 0 01.061-.385l5.524-8.954a.5.5 0 01.924.262v12.139a.5.5 0 01-.502.501zm-4.83-3.861l4.33 2.495V21.57l-4.33 7.017zM86.407 26.268a.503.503 0 01-.25-.066l-5.527-3.181a.5.5 0 01-.173-.697l5.526-8.953a.5.5 0 01.926.262v12.134a.503.503 0 01-.502.501zm-4.832-3.856l4.332 2.492v-9.508l-4.332 7.016zM97.098 20.091a.508.508 0 01-.25-.066l-5.523-3.183a.498.498 0 01-.173-.697l5.524-8.954a.503.503 0 01.563-.219.503.503 0 01.361.481V19.59a.5.5 0 01-.502.501zm-4.828-3.858l4.328 2.493v-9.51l-4.328 7.017zM107.789 13.913a.502.502 0 01-.249-.066l-5.524-3.181a.488.488 0 01-.232-.311.494.494 0 01.059-.386l5.521-8.953a.5.5 0 01.926.262v12.134a.499.499 0 01-.501.501zm-4.829-3.857l4.329 2.491V3.042l-4.329 7.014z"/>
  <path fill="#0099F9" d="M49.167 47.789a.498.498 0 01-.25-.066l-5.523-3.183a.501.501 0 01-.25-.434v-5.763a.498.498 0 01.925-.262l5.462 8.844a.5.5 0 01-.364.864zm-5.023-3.972l3.558 2.051-3.558-5.764v3.713zM26.353 54.574a.5.5 0 01-.5-.5v-4.262a.5.5 0 011 0v4.262a.5.5 0 01-.5.5zM21.232 57.584a.5.5 0 01-.5-.5v-4.261a.5.5 0 011 0v4.261c0 .277-.223.5-.5.5zM16.112 60.595a.5.5 0 01-.5-.5v-4.261a.5.5 0 011 0v4.261c0 .277-.223.5-.5.5z"/>
  <path fill="#0099F9" d="M16.516 66.79a.503.503 0 01-.25-.066l-5.524-3.184a.503.503 0 01-.25-.434v-4.261c0-.177.094-.341.246-.431L31.22 46.371a.5.5 0 01.754.431v3.973l5.276 3.039a.504.504 0 01.185.684.507.507 0 01-.685.184l-5.526-3.184a.503.503 0 01-.25-.434v-3.388L11.491 59.131v3.686l5.274 3.039a.501.501 0 01-.249.934z"/>
  <path fill="#FFF" d="M9.293 70.417l-5.779-3.292v-2.709l3.378-1.997 5.782 3.289-3.381 1.998v2.711"/>
  <path fill="#0099F9" d="M9.293 70.917a.493.493 0 01-.247-.065L3.267 67.56a.501.501 0 01-.253-.435v-2.71c0-.177.094-.341.245-.431l3.379-1.996a.496.496 0 01.501-.004l5.782 3.288a.501.501 0 01.006.866l-3.134 1.853v2.426a.502.502 0 01-.5.5zm-5.279-4.083l4.779 2.722v-1.851c0-.177.094-.341.246-.431l2.638-1.559-4.78-2.719-2.883 1.703v2.135zM59.856 41.612a.497.497 0 01-.249-.066l-5.523-3.183a.503.503 0 01-.25-.434v-5.764a.5.5 0 01.925-.262l5.462 8.846a.5.5 0 01-.344.863h-.021zm-5.022-3.972l3.56 2.051-3.56-5.764v3.713zM70.548 35.432a.491.491 0 01-.249-.066l-5.523-3.181a.502.502 0 01-.251-.434v-5.765a.5.5 0 01.926-.262l5.461 8.844a.503.503 0 01-.344.864h-.02zm-5.024-3.97l3.559 2.05-3.559-5.764v3.714zM81.24 29.256a.51.51 0 01-.252-.066l-5.523-3.183a.503.503 0 01-.25-.434v-5.765a.5.5 0 01.925-.262l5.463 8.846a.495.495 0 01.152.364c0 .279-.189.522-.508.5h-.007zm-5.025-3.971l3.561 2.051-3.561-5.765v3.714zM91.932 23.078a.495.495 0 01-.25-.066L86.16 19.83a.503.503 0 01-.25-.434v-5.762a.497.497 0 01.924-.262l5.461 8.842a.5.5 0 01-.363.864zm-5.025-3.971l3.558 2.05-3.558-5.762v3.712zM102.622 16.901a.498.498 0 01-.25-.066l-5.524-3.183a.503.503 0 01-.25-.434V7.455a.5.5 0 01.925-.262l5.461 8.845a.501.501 0 01-.344.864c.003-.001-.011-.001-.018-.001zm-5.024-3.972l3.563 2.051-3.563-5.764v3.713zM113.313 10.725a.498.498 0 01-.25-.066l-5.521-3.185a.508.508 0 01-.25-.434V1.279a.497.497 0 01.924-.262l5.462 8.845a.502.502 0 01-.344.864l-.021-.001zm-5.024-3.974l3.559 2.052-3.559-5.763v3.711z"/>
  <path fill="#0099F9" d="M43.644 38.843a.498.498 0 01-.25-.933L107.54.846a.499.499 0 01.683.183.498.498 0 01-.183.683L43.894 38.776a.502.502 0 01-.25.067zM31.88 57.758a.5.5 0 01-.5-.5v-4.265a.5.5 0 011 0v4.265a.5.5 0 01-.5.5zM26.759 60.768a.5.5 0 01-.5-.5v-4.264a.5.5 0 011 0v4.264a.5.5 0 01-.5.5zM21.64 63.778a.5.5 0 01-.5-.5v-4.264a.5.5 0 011 0v4.264a.5.5 0 01-.5.5z"/>
  <path fill="#0099F9" d="M16.516 62.525a.498.498 0 01-.253-.931l20.484-12.042a.499.499 0 01.753.431v4.264a.5.5 0 01-1 0v-3.39L16.769 62.456a.505.505 0 01-.253.069z"/>
  <path fill="#0099F9" d="M16.516 66.79a.5.5 0 01-.5-.5v-4.265a.5.5 0 011 0v4.265a.5.5 0 01-.5.5zM12.674 68.946a.5.5 0 01-.5-.5v-2.738a.5.5 0 011 0v2.738a.5.5 0 01-.5.5z"/>
  <g>
    <path fill="#FFF" d="M12.674 69.018l-5.493 3.094 2.445 1.407 3.048-1.764v-2.737"/>
    <path fill="#0099F9" d="M9.626 74.019a.5.5 0 01-.248-.066l-2.446-1.407a.5.5 0 01.004-.87l5.493-3.094a.502.502 0 01.745.436v2.737a.5.5 0 01-.249.433l-3.047 1.764a.5.5 0 01-.252.067zm-1.435-1.902l1.435.825 2.548-1.475v-1.594l-3.983 2.244z"/>
  </g>
  <path fill="#0099F9" d="M37 50.98a.5.5 0 01-.5-.498l-.075-18.271a.5.5 0 01.498-.502h.002c.275 0 .498.223.5.498l.075 18.271a.5.5 0 01-.498.502H37z"/>
  <path fill="#0099F9" d="M43.644 50.98a.502.502 0 01-.471-.327l-6.718-18.271a.5.5 0 01.939-.346l6.719 18.271a.503.503 0 01-.469.673z"/>
  <path fill="#0099F9" d="M31.474 51.563a.5.5 0 01-.481-.639l5.451-18.854a.5.5 0 01.961.277l-5.451 18.854a.501.501 0 01-.48.362z"/>
  <path fill="#0099F9" d="M6.892 62.919a.5.5 0 01-.355-.853l30.033-30.21a.5.5 0 11.709.705L7.246 62.772a.493.493 0 01-.354.147z"/>
  <path fill="#0099F9" d="M12.674 66.208a.5.5 0 01-.405-.793L36.52 31.917a.5.5 0 11.81.586L13.079 66a.5.5 0 01-.405.208z"/>
  <path fill="#0099F9" d="M36.925 32.709a.5.5 0 01-.204-.956L107.585.045a.5.5 0 01.408.912L37.129 32.666a.492.492 0 01-.204.043z"/>
  <g fill="#0099F9">
    <path d="M43.085 63.584v-7.116l3.727-2.148-.032-.073-4.522-2.799L37 54.476v9.141l4.873 3.105 7.294-4.376v-2.251l-.054-.13z"/>
    <path d="M41.873 67.222a.5.5 0 01-.269-.078l-4.873-3.105a.498.498 0 01-.231-.422v-9.141c0-.179.096-.344.25-.434l5.257-3.028a.508.508 0 01.514.009l4.521 2.799a.49.49 0 01.198.229c.099.232.04.576-.179.703l-3.477 2.004v5.943l5.271-3.164a.502.502 0 01.72.237l.054.13a.504.504 0 01.038.191v2.251a.498.498 0 01-.244.429l-7.293 4.376a.493.493 0 01-.257.071zm-4.373-3.88l4.381 2.792 6.786-4.071v-1.246l-5.324 3.196a.5.5 0 01-.758-.429v-7.116c0-.179.096-.344.25-.434l3.047-1.756-3.633-2.249-4.749 2.736v8.577z"/>
    <path d="M43.085 64.084a.499.499 0 01-.5-.5v-7.116c0-.179.096-.344.25-.434l3.727-2.148a.505.505 0 01.713.245l2.302 5.646a.5.5 0 01-.205.617l-6.028 3.619a.503.503 0 01-.259.071zm.5-7.327V62.7l4.903-2.943-1.924-4.718-2.979 1.718z"/>
  </g>
  <g>
    <path fill="#DFE0DE" d="M110.023 117.121l-13.43-7.753-15.691 8.993 13.431 7.754z"/>
    <path fill="#0099F9" d="M94.333 126.865a.735.735 0 01-.375-.1l-13.431-7.754a.75.75 0 01.002-1.299l15.691-8.993a.738.738 0 01.745 0l13.433 7.754a.752.752 0 01-.002 1.298l-15.69 8.994a.73.73 0 01-.373.1zm-11.926-8.502l11.927 6.888 14.186-8.132-11.927-6.887-14.186 8.131z"/>
    <path fill="#DFE0DE" d="M110.023 113.145l-13.43-7.754-15.691 8.994 13.431 7.754z"/>
    <path fill="#0099F9" d="M94.333 122.889a.736.736 0 01-.375-.101l-13.431-7.754a.751.751 0 01.002-1.299l15.691-8.994a.736.736 0 01.745.004l13.433 7.754a.755.755 0 01.373.648c0 .27-.146.519-.375.648l-15.69 8.994a.75.75 0 01-.373.1zm-11.926-8.502l11.927 6.887 14.186-8.131-11.927-6.887-14.186 8.131z"/>
    <g>
      <path fill="#DFE0DE" d="M110.023 113.145l-15.69 8.994-13.431-7.754v3.976l13.431 7.754 15.69-8.994z"/>
      <path fill="#0099F9" d="M94.333 126.865a.735.735 0 01-.375-.1l-13.431-7.754a.76.76 0 01-.375-.65v-3.977c0-.27.144-.518.375-.648a.745.745 0 01.75 0l13.057 7.537 15.316-8.778a.749.749 0 011.121.649v3.977a.75.75 0 01-.375.65l-15.69 8.994a.73.73 0 01-.373.1zm-12.681-8.935l12.682 7.32 14.938-8.564v-2.246l-14.563 8.353a.746.746 0 01-.748-.001l-12.308-7.104v2.242h-.001z"/>
    </g>
    <g>
      <path fill="none" d="M94.333 122.139v3.976"/>
      <path fill="#0099F9" d="M94.333 126.865a.75.75 0 01-.75-.75v-3.977a.75.75 0 011.5 0v3.977a.75.75 0 01-.75.75z"/>
    </g>
    <g>
      <path fill="#DFE0DE" d="M110.023 113.145l-13.43-7.754-15.691 8.994 13.431 7.754z"/>
      <path fill="#0099F9" d="M94.333 122.889a.736.736 0 01-.375-.101l-13.431-7.754a.751.751 0 01.002-1.299l15.691-8.994a.736.736 0 01.745.004l13.433 7.754a.755.755 0 01.373.648c0 .27-.146.519-.375.648l-15.69 8.994a.75.75 0 01-.373.1zm-11.926-8.502l11.927 6.887 14.186-8.131-11.927-6.887-14.186 8.131z"/>
      <path fill="#DFE0DE" d="M110.023 109.168l-13.43-7.753-15.691 8.995 13.431 7.754z"/>
      <path fill="#0099F9" d="M94.333 118.914a.727.727 0 01-.375-.102l-13.431-7.754c-.231-.136-.375-.381-.375-.649s.146-.517.377-.649l15.691-8.994a.738.738 0 01.745 0l13.433 7.754a.75.75 0 01-.002 1.298l-15.69 8.996a.75.75 0 01-.373.1zm-11.926-8.502l11.927 6.887 14.186-8.132-11.927-6.888-14.186 8.133z"/>
      <g>
        <path fill="#DFE0DE" d="M110.023 109.168l-15.69 8.996-13.431-7.754v3.975l13.431 7.754 15.69-8.994z"/>
        <path fill="#0099F9" d="M94.333 122.889a.736.736 0 01-.375-.101l-13.431-7.754a.753.753 0 01-.375-.649v-3.976a.748.748 0 011.125-.649l13.057 7.538 15.316-8.78a.746.746 0 01.748.002.755.755 0 01.373.648v3.977c0 .271-.145.52-.375.65l-15.69 8.994a.75.75 0 01-.373.1zm-12.681-8.936l12.682 7.32 14.938-8.563v-2.247l-14.563 8.352a.744.744 0 01-.748 0l-12.308-7.104v2.242h-.001z"/>
      </g>
      <g>
        <path fill="none" d="M94.333 118.164v3.975"/>
        <path fill="#0099F9" d="M94.333 122.889a.75.75 0 01-.75-.75v-3.976a.75.75 0 011.5 0v3.976a.75.75 0 01-.75.75z"/>
      </g>
    </g>
    <path fill="#0099F9" d="M102.18 122.045a.75.75 0 01-.75-.75v-7.197l-13.057-7.537a.748.748 0 11.749-1.292l13.433 7.754a.749.749 0 01.375.646v7.63a.75.75 0 01-.75.746z"/>
  </g>
  <g>
    <path fill="#DFE0DE" d="M94.251 126.072l-13.431-7.756-15.688 8.995 13.429 7.753z"/>
    <path fill="#0099F9" d="M78.561 135.814a.708.708 0 01-.375-.104l-13.429-7.754a.751.751 0 01-.375-.648c0-.27.145-.519.377-.648l15.689-8.994a.742.742 0 01.747.001l13.431 7.756a.751.751 0 01-.002 1.299l-15.69 8.989a.727.727 0 01-.373.103zm-11.925-8.501l11.924 6.889 14.188-8.133-11.928-6.887-14.184 8.131z"/>
    <path fill="#DFE0DE" d="M94.251 122.096l-13.431-7.757-15.688 8.994 13.429 7.754z"/>
    <path fill="#0099F9" d="M78.561 131.837a.723.723 0 01-.375-.101l-13.429-7.754a.746.746 0 01.002-1.298l15.689-8.994a.744.744 0 01.747 0l13.431 7.758a.76.76 0 01.375.65.746.746 0 01-.377.648l-15.69 8.99a.735.735 0 01-.373.101zm-11.925-8.502l11.924 6.888 14.188-8.129-11.928-6.89-14.184 8.131z"/>
    <g>
      <path fill="#DFE0DE" d="M94.251 122.096l-15.69 8.991-13.429-7.754v3.978l13.429 7.753 15.69-8.992z"/>
      <path fill="#0099F9" d="M78.561 135.814a.708.708 0 01-.375-.104l-13.429-7.754a.75.75 0 01-.375-.646v-3.979c0-.271.143-.519.375-.647a.736.736 0 01.75 0l13.054 7.539 15.317-8.777a.751.751 0 011.123.65v3.977a.752.752 0 01-.377.65l-15.69 8.989a.736.736 0 01-.373.102zm-12.679-8.937l12.679 7.32 14.94-8.561v-2.248l-14.567 8.348a.744.744 0 01-.748 0l-12.304-7.104v2.245z"/>
    </g>
    <g>
      <path fill="none" d="M78.561 131.087v3.977"/>
      <path fill="#0099F9" d="M78.561 135.814a.75.75 0 01-.75-.75v-3.979a.75.75 0 011.5 0v3.979a.75.75 0 01-.75.75z"/>
    </g>
    <g>
      <path fill="#DFE0DE" d="M94.251 122.096l-13.431-7.757-15.688 8.994 13.429 7.754z"/>
      <path fill="#0099F9" d="M78.561 131.837a.723.723 0 01-.375-.101l-13.429-7.754a.746.746 0 01.002-1.298l15.689-8.994a.744.744 0 01.747 0l13.431 7.758a.76.76 0 01.375.65.746.746 0 01-.377.648l-15.69 8.99a.735.735 0 01-.373.101zm-11.925-8.502l11.924 6.888 14.188-8.129-11.928-6.89-14.184 8.131z"/>
      <path fill="#DFE0DE" d="M94.251 118.12l-13.431-7.757-15.688 8.994 13.429 7.754z"/>
      <path fill="#0099F9" d="M78.561 127.861a.732.732 0 01-.375-.1l-13.429-7.757a.75.75 0 01-.375-.647c0-.271.145-.52.377-.649l15.689-8.994a.744.744 0 01.747.001l13.431 7.756a.748.748 0 01-.002 1.298l-15.69 8.992a.743.743 0 01-.373.1zm-11.925-8.502l11.924 6.888 14.188-8.13-11.928-6.889-14.184 8.131z"/>
      <g>
        <path fill="#DFE0DE" d="M94.251 118.12l-15.69 8.991-13.429-7.754v3.976l13.429 7.754 15.69-8.991z"/>
        <path fill="#0099F9" d="M78.561 131.837a.723.723 0 01-.375-.101l-13.429-7.754a.753.753 0 01-.375-.649v-3.976a.74.74 0 01.375-.649.74.74 0 01.75 0l13.054 7.538 15.317-8.777a.752.752 0 011.123.65v3.977a.749.749 0 01-.377.65l-15.69 8.99a.735.735 0 01-.373.101zM65.882 122.9l12.679 7.322 14.94-8.563v-2.248l-14.567 8.351a.746.746 0 01-.748 0l-12.304-7.105v2.243z"/>
      </g>
      <g>
        <path fill="none" d="M78.561 127.111v3.976"/>
        <path fill="#0099F9" d="M78.561 131.837a.75.75 0 01-.75-.75v-3.976a.75.75 0 011.5 0v3.976a.75.75 0 01-.75.75z"/>
      </g>
    </g>
    <path fill="#0099F9" d="M86.407 130.994a.75.75 0 01-.75-.75v-7.194L72.6 115.51a.747.747 0 11.75-1.295l13.435 7.759a.759.759 0 01.375.647v7.627a.755.755 0 01-.753.746z"/>
  </g>
  <g>
    <path fill="#DFE0DE" d="M78.479 135.021l-13.43-7.753-15.691 8.992 13.43 7.756z"/>
    <path fill="#0099F9" d="M62.788 144.766a.736.736 0 01-.375-.101l-13.43-7.756a.75.75 0 01.002-1.299l15.689-8.99a.734.734 0 01.748.001l13.43 7.754a.75.75 0 01.375.647c0 .271-.145.52-.377.649l-15.688 8.995a.757.757 0 01-.374.1zm-11.926-8.502l11.927 6.887 14.186-8.131-11.927-6.888-14.186 8.132z"/>
    <path fill="#DFE0DE" d="M78.479 131.043l-13.43-7.752-15.691 8.992 13.43 7.756z"/>
    <path fill="#0099F9" d="M62.788 140.789a.727.727 0 01-.375-.102l-13.43-7.756a.747.747 0 01.002-1.298l15.689-8.992a.744.744 0 01.748.002l13.43 7.752a.746.746 0 01-.002 1.298l-15.688 8.996a.757.757 0 01-.374.1zm-11.926-8.503l11.927 6.888 14.186-8.132-11.927-6.886-14.186 8.13z"/>
    <g>
      <path fill="#DFE0DE" d="M78.479 131.043l-15.691 8.996-13.43-7.756v3.977l13.43 7.756 15.691-8.995z"/>
      <path fill="#0099F9" d="M62.788 144.766a.736.736 0 01-.375-.101l-13.43-7.756a.75.75 0 01-.375-.649v-3.979c0-.268.143-.516.375-.648a.745.745 0 01.75 0l13.056 7.54 15.314-8.78a.75.75 0 011.123.65v3.979a.745.745 0 01-.377.649l-15.688 8.995a.75.75 0 01-.373.1zm-12.68-8.938l12.681 7.322 14.938-8.563v-2.248l-14.563 8.351a.741.741 0 01-.748 0l-12.305-7.104-.003 2.242z"/>
    </g>
    <g>
      <path fill="none" d="M62.788 140.039v3.977"/>
      <path fill="#0099F9" d="M62.788 144.766a.75.75 0 01-.75-.75v-3.978a.75.75 0 011.5 0v3.978a.75.75 0 01-.75.75z"/>
    </g>
    <g>
      <path fill="#DFE0DE" d="M78.479 131.043l-13.43-7.752-15.691 8.992 13.43 7.756z"/>
      <path fill="#0099F9" d="M62.788 140.789a.727.727 0 01-.375-.102l-13.43-7.756a.747.747 0 01.002-1.298l15.689-8.992a.744.744 0 01.748.002l13.43 7.752a.746.746 0 01-.002 1.298l-15.688 8.996a.757.757 0 01-.374.1zm-11.926-8.503l11.927 6.888 14.186-8.132-11.927-6.886-14.186 8.13z"/>
      <path fill="#DFE0DE" d="M78.479 127.068l-13.43-7.754-15.691 8.991 13.43 7.758z"/>
      <path fill="#0099F9" d="M62.788 136.813a.736.736 0 01-.375-.101l-13.43-7.758a.748.748 0 01.002-1.299l15.689-8.988a.734.734 0 01.748.001l13.43 7.754a.755.755 0 01.375.647c0 .271-.145.52-.377.65l-15.688 8.994a.757.757 0 01-.374.1zm-11.926-8.504l11.927 6.889 14.186-8.131-11.927-6.887-14.186 8.129z"/>
      <g>
        <path fill="#DFE0DE" d="M78.479 127.068l-15.691 8.995-13.43-7.758v3.978l13.43 7.756 15.691-8.996z"/>
        <path fill="#0099F9" d="M62.788 140.789a.727.727 0 01-.375-.102l-13.43-7.756a.755.755 0 01-.375-.648v-3.979a.74.74 0 01.375-.648.745.745 0 01.75 0l13.056 7.541 15.314-8.779a.75.75 0 011.123.65v3.976a.75.75 0 01-.377.649l-15.688 8.996a.75.75 0 01-.373.1zm-12.68-8.939l12.681 7.323 14.938-8.563v-2.246l-14.563 8.353a.734.734 0 01-.748-.001l-12.305-7.105-.003 2.239z"/>
      </g>
      <g>
        <path fill="none" d="M62.788 136.063v3.976"/>
        <path fill="#0099F9" d="M62.788 140.789a.75.75 0 01-.75-.75v-3.977a.75.75 0 011.5 0v3.977a.75.75 0 01-.75.75z"/>
      </g>
    </g>
    <g>
      <path fill="#DFE0DE" d="M57.202 123.811l13.433 7.753v7.627"/>
      <path fill="#0099F9" d="M70.635 139.941a.75.75 0 01-.75-.75v-7.193l-13.058-7.537a.75.75 0 11.75-1.295l13.433 7.754a.754.754 0 01.375.647v7.627a.75.75 0 01-.75.747z"/>
    </g>
  </g>
  <g>
    <path fill="#DFE0DE" d="M91.907 142.775l-13.428-7.754-15.691 8.993 13.431 7.756z"/>
    <path fill="#0099F9" d="M76.219 152.52a.736.736 0 01-.376-.102l-13.43-7.756a.747.747 0 01.002-1.298l15.688-8.99a.734.734 0 01.748.001l13.431 7.754a.745.745 0 01-.003 1.297l-15.688 8.993a.73.73 0 01-.372.101zm-11.927-8.504l11.929 6.889 14.184-8.131-11.926-6.887-14.187 8.129z"/>
    <path fill="#DFE0DE" d="M91.907 138.798l-13.428-7.755-15.691 8.996 13.431 7.753z"/>
    <path fill="#0099F9" d="M76.219 148.542a.735.735 0 01-.376-.101l-13.43-7.754a.746.746 0 01.002-1.298l15.688-8.996a.746.746 0 01.748.002l13.431 7.754a.747.747 0 01-.003 1.298l-15.688 8.994a.71.71 0 01-.372.101zm-11.927-8.501l11.929 6.887 14.184-8.131-11.926-6.888-14.187 8.132z"/>
    <g>
      <path fill="#DFE0DE" d="M91.907 138.798l-15.688 8.994-13.431-7.753v3.975l13.431 7.756 15.688-8.995z"/>
      <path fill="#0099F9" d="M76.219 152.52a.736.736 0 01-.376-.102l-13.43-7.756a.752.752 0 01-.375-.648v-3.976c0-.269.143-.517.375-.649a.745.745 0 01.75 0l13.058 7.539 15.313-8.779a.748.748 0 011.123.649v3.978a.74.74 0 01-.378.649l-15.688 8.994a.73.73 0 01-.372.101zm-12.681-8.939l12.683 7.323 14.938-8.563v-2.247l-14.566 8.35a.733.733 0 01-.747 0L63.54 141.34l-.002 2.241z"/>
    </g>
    <g>
      <path fill="none" d="M76.219 147.792v3.978"/>
      <path fill="#0099F9" d="M76.219 152.52a.75.75 0 01-.75-.75v-3.978a.75.75 0 011.5 0v3.978a.75.75 0 01-.75.75z"/>
    </g>
    <g>
      <path fill="#DFE0DE" d="M91.907 138.798l-13.428-7.755-15.691 8.996 13.431 7.753z"/>
      <path fill="#0099F9" d="M76.219 148.542a.735.735 0 01-.376-.101l-13.43-7.754a.746.746 0 01.002-1.298l15.688-8.996a.746.746 0 01.748.002l13.431 7.754a.747.747 0 01-.003 1.298l-15.688 8.994a.71.71 0 01-.372.101zm-11.927-8.501l11.929 6.887 14.184-8.131-11.926-6.888-14.187 8.132z"/>
      <path fill="#DFE0DE" d="M91.907 134.822l-13.428-7.754-15.691 8.995 13.431 7.753z"/>
      <path fill="#0099F9" d="M76.219 144.566a.718.718 0 01-.376-.103l-13.43-7.754a.75.75 0 01-.375-.647c0-.271.145-.52.377-.649l15.688-8.995a.746.746 0 01.748.001l13.431 7.754a.75.75 0 01-.003 1.299l-15.688 8.992a.702.702 0 01-.372.102zm-11.927-8.502l11.929 6.888 14.184-8.132-11.926-6.887-14.187 8.131z"/>
      <g>
        <path fill="#DFE0DE" d="M91.907 134.822l-15.688 8.994-13.431-7.753v3.976l13.431 7.753 15.688-8.994z"/>
        <path fill="#0099F9" d="M76.219 148.542a.735.735 0 01-.376-.101l-13.43-7.754a.753.753 0 01-.375-.649v-3.976a.74.74 0 01.375-.649.74.74 0 01.75 0l13.058 7.538 15.313-8.78a.748.748 0 011.123.649v3.978a.744.744 0 01-.378.649l-15.688 8.994a.71.71 0 01-.372.101zm-12.681-8.937l12.683 7.322 14.938-8.564v-2.246l-14.566 8.352a.744.744 0 01-.747-.002l-12.306-7.104-.002 2.242z"/>
      </g>
      <g>
        <path fill="none" d="M76.219 143.816v3.976"/>
        <path fill="#0099F9" d="M76.219 148.542a.75.75 0 01-.75-.75v-3.976a.75.75 0 011.5 0v3.976a.75.75 0 01-.75.75z"/>
      </g>
    </g>
    <g>
      <path fill="#DFE0DE" d="M70.635 131.564l13.428 7.754v7.631"/>
      <path fill="#0099F9" d="M84.063 147.699a.75.75 0 01-.75-.75v-7.197l-13.055-7.537a.75.75 0 01.751-1.295l13.429 7.754a.755.755 0 01.375.647v7.632c0 .41-.334.746-.75.746z"/>
    </g>
  </g>
  <g>
    <path fill="#DFE0DE" d="M105.338 150.529l-13.431-7.754-15.688 8.995 13.429 7.753z"/>
    <path fill="#0099F9" d="M89.648 160.273a.72.72 0 01-.377-.104l-13.432-7.754a.755.755 0 01-.374-.648.74.74 0 01.38-.648l15.688-8.994a.744.744 0 01.748.001l13.431 7.754a.75.75 0 01-.003 1.299l-15.688 8.991a.725.725 0 01-.373.103zm-11.925-8.502l11.928 6.887 14.187-8.131-11.929-6.887-14.186 8.131z"/>
    <path fill="#DFE0DE" d="M105.338 146.551l-13.431-7.753-15.688 8.994 13.429 7.754z"/>
    <path fill="#0099F9" d="M89.648 156.296a.736.736 0 01-.377-.101l-13.432-7.754c-.23-.135-.374-.383-.374-.65s.146-.518.38-.648l15.688-8.994a.746.746 0 01.748 0l13.431 7.754a.748.748 0 01-.003 1.298l-15.688 8.994a.732.732 0 01-.373.101zm-11.925-8.502l11.928 6.888 14.187-8.133-11.929-6.886-14.186 8.131z"/>
    <g>
      <path fill="#DFE0DE" d="M105.338 146.551l-15.69 8.995-13.429-7.754v3.978l13.429 7.753 15.69-8.994z"/>
      <path fill="#0099F9" d="M89.648 160.273a.72.72 0 01-.377-.104l-13.432-7.754a.754.754 0 01-.374-.646v-3.979c0-.271.144-.519.374-.647a.736.736 0 01.75 0l13.059 7.539 15.313-8.781a.748.748 0 011.123.648v3.979c0 .27-.146.518-.378.65L90.02 160.17a.719.719 0 01-.372.103zm-12.679-8.937l12.682 7.32 14.938-8.563v-2.248l-14.565 8.352a.744.744 0 01-.748-.002l-12.305-7.104v2.245h-.002z"/>
    </g>
    <g>
      <path fill="none" d="M89.648 155.546v3.977"/>
      <path fill="#0099F9" d="M89.648 160.273a.75.75 0 01-.75-.75v-3.979a.75.75 0 011.5 0v3.979c0 .415-.335.75-.75.75z"/>
    </g>
    <g>
      <path fill="#DFE0DE" d="M105.338 146.551l-13.431-7.753-15.688 8.994 13.429 7.754z"/>
      <path fill="#0099F9" d="M89.648 156.296a.736.736 0 01-.377-.101l-13.432-7.754c-.23-.135-.374-.383-.374-.65s.146-.518.38-.648l15.688-8.994a.746.746 0 01.748 0l13.431 7.754a.748.748 0 01-.003 1.298l-15.688 8.994a.732.732 0 01-.373.101zm-11.925-8.502l11.928 6.888 14.187-8.133-11.929-6.886-14.186 8.131z"/>
      <path fill="#DFE0DE" d="M105.338 142.576l-13.431-7.754-15.688 8.994 13.429 7.754z"/>
      <path fill="#0099F9" d="M89.648 152.32a.737.737 0 01-.377-.102l-13.432-7.755a.753.753 0 01-.374-.647.74.74 0 01.38-.649l15.688-8.995a.746.746 0 01.748.001l13.431 7.755a.75.75 0 01-.003 1.298l-15.688 8.994a.751.751 0 01-.373.1zm-11.925-8.502l11.928 6.887 14.187-8.131-11.929-6.887-14.186 8.131z"/>
      <g>
        <path fill="#DFE0DE" d="M105.338 142.576l-15.69 8.994-13.429-7.754v3.976l13.429 7.754 15.69-8.995z"/>
        <path fill="#0099F9" d="M89.648 156.296a.736.736 0 01-.377-.101l-13.432-7.754a.756.756 0 01-.374-.649v-3.976c0-.271.144-.519.374-.649a.74.74 0 01.75 0l13.059 7.537 15.313-8.779a.75.75 0 011.123.65v3.976c0 .27-.146.518-.378.65l-15.688 8.994a.714.714 0 01-.37.101zm-12.679-8.937l12.682 7.322 14.938-8.564v-2.246l-14.565 8.35a.746.746 0 01-.748 0l-12.305-7.104v2.242h-.002z"/>
      </g>
      <g>
        <path fill="none" d="M89.648 151.57v3.976"/>
        <path fill="#0099F9" d="M89.648 156.296a.75.75 0 01-.75-.75v-3.978a.75.75 0 011.5 0v3.978a.75.75 0 01-.75.75z"/>
      </g>
    </g>
    <g>
      <path fill="#DFE0DE" d="M84.063 139.318l13.428 7.754v7.631"/>
      <path fill="#0099F9" d="M97.491 155.453a.75.75 0 01-.75-.75v-7.197l-13.054-7.537a.749.749 0 11.75-1.295l13.429 7.755a.755.755 0 01.375.648v7.63a.75.75 0 01-.75.746z"/>
    </g>
  </g>
  <g>
    <path fill="#DFE0DE" d="M118.768 158.285l-13.43-7.756-15.69 8.994 13.429 7.754z"/>
    <path fill="#0099F9" d="M103.077 168.027a.713.713 0 01-.375-.104l-13.431-7.754a.752.752 0 01-.373-.648c0-.27.144-.519.377-.648l15.688-8.994a.746.746 0 01.748.001l13.43 7.757a.75.75 0 01-.002 1.298l-15.688 8.992a.746.746 0 01-.374.1zm-11.925-8.502l11.925 6.887 14.187-8.131-11.927-6.887-14.185 8.131z"/>
    <path fill="#DFE0DE" d="M118.768 154.309l-13.43-7.758-15.69 8.995 13.429 7.754z"/>
    <path fill="#0099F9" d="M103.077 164.05a.729.729 0 01-.375-.101l-13.431-7.754c-.23-.135-.373-.383-.373-.65s.144-.518.377-.648l15.688-8.996a.746.746 0 01.748.002l13.43 7.759a.753.753 0 01.375.647c0 .271-.146.52-.377.649l-15.688 8.992a.736.736 0 01-.374.1zm-11.925-8.502l11.925 6.888 14.187-8.131-11.927-6.889-14.185 8.132z"/>
    <g>
      <path fill="#DFE0DE" d="M118.768 154.309l-15.691 8.991-13.429-7.754v3.977l13.429 7.754 15.691-8.992z"/>
      <path fill="#0099F9" d="M103.077 168.027a.713.713 0 01-.375-.104l-13.431-7.754a.752.752 0 01-.373-.646v-3.979a.749.749 0 011.125-.647l13.054 7.539 15.315-8.777a.75.75 0 011.123.65v3.977a.75.75 0 01-.377.65l-15.688 8.992a.75.75 0 01-.373.099zm-12.679-8.937l12.679 7.321 14.938-8.562v-2.248l-14.565 8.349a.746.746 0 01-.748-.001l-12.304-7.104v2.245z"/>
    </g>
    <g>
      <path fill="none" d="M103.077 163.3v3.977"/>
      <path fill="#0099F9" d="M103.077 168.027a.75.75 0 01-.75-.75V163.3a.75.75 0 011.5 0v3.978a.75.75 0 01-.75.749z"/>
    </g>
    <g>
      <path fill="#DFE0DE" d="M118.768 154.309l-13.43-7.758-15.69 8.995 13.429 7.754z"/>
      <path fill="#0099F9" d="M103.077 164.05a.729.729 0 01-.375-.101l-13.431-7.754c-.23-.135-.373-.383-.373-.65s.144-.518.377-.648l15.688-8.996a.746.746 0 01.748.002l13.43 7.759a.753.753 0 01.375.647c0 .271-.146.52-.377.649l-15.688 8.992a.736.736 0 01-.374.1zm-11.925-8.502l11.925 6.888 14.187-8.131-11.927-6.889-14.185 8.132z"/>
      <path fill="#DFE0DE" d="M118.768 150.332l-13.43-7.756-15.69 8.994 13.429 7.754z"/>
      <path fill="#0099F9" d="M103.077 160.074a.73.73 0 01-.375-.102l-13.431-7.754a.758.758 0 01-.373-.65c0-.27.144-.516.377-.648l15.688-8.994a.744.744 0 01.748.002l13.43 7.756a.75.75 0 01-.002 1.298l-15.688 8.992a.746.746 0 01-.374.1zm-11.925-8.502l11.925 6.887 14.187-8.13-11.927-6.888-14.185 8.131z"/>
      <g>
        <path fill="#DFE0DE" d="M118.768 150.332l-15.691 8.992-13.429-7.754v3.976l13.429 7.754 15.691-8.991z"/>
        <path fill="#0099F9" d="M103.077 164.05a.729.729 0 01-.375-.101l-13.431-7.754a.755.755 0 01-.373-.649v-3.978a.749.749 0 011.125-.648l13.054 7.538 15.315-8.776a.752.752 0 011.123.649v3.978a.745.745 0 01-.377.649l-15.688 8.992a.73.73 0 01-.373.1zm-12.679-8.937l12.679 7.322 14.938-8.563v-2.248l-14.565 8.351a.746.746 0 01-.748-.002l-12.304-7.104v2.244z"/>
      </g>
      <g>
        <path fill="none" d="M103.077 159.324v3.976"/>
        <path fill="#0099F9" d="M103.077 164.05a.75.75 0 01-.75-.75v-3.978a.75.75 0 011.5 0v3.978a.75.75 0 01-.75.75z"/>
      </g>
    </g>
    <g>
      <path fill="#DFE0DE" d="M97.491 147.072l13.432 7.757v7.628"/>
      <path fill="#0099F9" d="M110.923 163.207a.75.75 0 01-.749-.75v-7.195l-13.058-7.539a.747.747 0 11.75-1.294l13.433 7.758a.747.747 0 01.375.646v7.628a.75.75 0 01-.751.746z"/>
    </g>
  </g>
  <g>
    <path fill="#DFE0DE" d="M132.199 166.039l-13.431-7.754-15.691 8.992 13.432 7.756z"/>
    <path fill="#0099F9" d="M116.509 175.783a.73.73 0 01-.375-.102l-13.432-7.758a.746.746 0 01.002-1.296l15.688-8.992a.744.744 0 01.748.002l13.433 7.754a.747.747 0 01-.001 1.298l-15.69 8.994a.735.735 0 01-.373.1zm-11.928-8.504l11.929 6.889 14.186-8.131-11.93-6.887-14.185 8.129z"/>
    <path fill="#DFE0DE" d="M132.199 162.061l-13.431-7.752-15.691 8.991 13.432 7.757z"/>
    <path fill="#0099F9" d="M116.509 171.807a.73.73 0 01-.375-.102l-13.432-7.756a.748.748 0 01.002-1.298l15.688-8.99a.734.734 0 01.748.001l13.433 7.753a.749.749 0 01.376.648c0 .27-.145.519-.377.648l-15.69 8.995a.736.736 0 01-.373.101zm-11.928-8.504l11.929 6.889 14.186-8.133-11.93-6.886-14.185 8.13z"/>
    <g>
      <path fill="#DFE0DE" d="M132.199 162.061l-15.69 8.996-13.432-7.757v3.977l13.432 7.756 15.69-8.994z"/>
      <path fill="#0099F9" d="M116.509 175.783a.73.73 0 01-.375-.102l-13.432-7.758a.751.751 0 01-.375-.646V163.3a.749.749 0 011.125-.649l13.058 7.541 15.315-8.778a.752.752 0 011.124.647v3.979a.743.743 0 01-.377.649l-15.69 8.994a.735.735 0 01-.373.1zm-12.682-8.939l12.683 7.323 14.939-8.563v-2.248l-14.567 8.354a.744.744 0 01-.748-.001l-12.307-7.104v2.239z"/>
    </g>
    <g>
      <path fill="none" d="M116.509 171.057v3.976"/>
      <path fill="#0099F9" d="M116.509 175.783a.75.75 0 01-.75-.75v-3.977a.75.75 0 011.5 0v3.977a.75.75 0 01-.75.75z"/>
    </g>
    <g>
      <path fill="#DFE0DE" d="M132.199 162.061l-13.431-7.752-15.691 8.991 13.432 7.757z"/>
      <path fill="#0099F9" d="M116.509 171.807a.73.73 0 01-.375-.102l-13.432-7.756a.748.748 0 01.002-1.298l15.688-8.99a.734.734 0 01.748.001l13.433 7.753a.749.749 0 01.376.648c0 .27-.145.519-.377.648l-15.69 8.995a.736.736 0 01-.373.101zm-11.928-8.504l11.929 6.889 14.186-8.133-11.93-6.886-14.185 8.13z"/>
      <path fill="#DFE0DE" d="M132.199 158.085l-13.431-7.753-15.691 8.992 13.432 7.757z"/>
      <path fill="#0099F9" d="M116.509 167.831a.738.738 0 01-.375-.101l-13.432-7.758a.75.75 0 01.002-1.298l15.688-8.992a.744.744 0 01.748.002l13.433 7.754a.747.747 0 01-.001 1.298l-15.69 8.994a.736.736 0 01-.373.101zm-11.928-8.504l11.929 6.889 14.186-8.132-11.93-6.887-14.185 8.13z"/>
      <g>
        <path fill="#DFE0DE" d="M132.199 158.085l-15.69 8.996-13.432-7.757v3.976l13.432 7.757 15.69-8.996z"/>
        <path fill="#0099F9" d="M116.509 171.807a.73.73 0 01-.375-.102l-13.432-7.756a.755.755 0 01-.375-.649v-3.978c0-.268.144-.516.375-.648a.745.745 0 01.75 0l13.058 7.541 15.315-8.779a.75.75 0 011.124.649v3.976c0 .271-.145.52-.377.65l-15.69 8.995a.736.736 0 01-.373.101zm-12.682-8.939l12.683 7.323 14.939-8.564v-2.246l-14.567 8.352a.746.746 0 01-.748-.002l-12.307-7.104v2.241z"/>
      </g>
      <g>
        <path fill="none" d="M116.509 167.081v3.976"/>
        <path fill="#0099F9" d="M116.509 171.807a.75.75 0 01-.75-.75v-3.977a.75.75 0 011.5 0v3.977a.75.75 0 01-.75.75z"/>
      </g>
    </g>
    <path fill="#0099F9" d="M124.354 170.96a.75.75 0 01-.75-.75v-7.194l-13.055-7.537a.749.749 0 01.75-1.294l13.43 7.754a.754.754 0 01.375.647v7.628a.749.749 0 01-.75.746z"/>
  </g>
</svg>
